0
SECTION
2
HEADER
9
$INSUNITS
70
4
0
ENDSEC
0
SECTION
2
TABLES
0
TABLE
2
LTYPE
0
LTYPE
72
65
70
64
2
CONTINUOUS
3
______
73
0
40
0
0
ENDTAB
0
TABLE
2
LAYER
0
ENDTAB
0
ENDSEC
0
SECTION
2
ENTITIES
0
LINE
8
0
10
3.025
20
-2.525
11
16.025
21
-2.525
0
LINE
8
0
10
3.025
20
-16.525
11
16.025
21
-16.525
0
LINE
8
0
10
2.525
20
-3.025
11
2.525
21
-16.025
0
LINE
8
0
10
16.525
20
-3.025
11
16.525
21
-16.025
0
ARC
8
0
10
3.025
20
-3.025
40
0.5
50
90
51
180
0
ARC
8
0
10
16.025
20
-3.025
40
0.5
50
0
51
90
0
ARC
8
0
10
3.025
20
-16.025
40
0.5
50
180
51
270
0
ARC
8
0
10
16.025
20
-16.025
40
0.5
50
270
51
0
0
LINE
8
0
10
22.075
20
-2.525
11
35.075
21
-2.525
0
LINE
8
0
10
22.075
20
-16.525
11
35.075
21
-16.525
0
LINE
8
0
10
21.575
20
-3.025
11
21.575
21
-16.025
0
LINE
8
0
10
35.575
20
-3.025
11
35.575
21
-16.025
0
ARC
8
0
10
22.075
20
-3.025
40
0.5
50
90
51
180
0
ARC
8
0
10
35.075
20
-3.025
40
0.5
50
0
51
90
0
ARC
8
0
10
22.075
20
-16.025
40
0.5
50
180
51
270
0
ARC
8
0
10
35.075
20
-16.025
40
0.5
50
270
51
0
0
LINE
8
0
10
41.125
20
-2.525
11
54.125
21
-2.525
0
LINE
8
0
10
41.125
20
-16.525
11
54.125
21
-16.525
0
LINE
8
0
10
40.625
20
-3.025
11
40.625
21
-16.025
0
LINE
8
0
10
54.625
20
-3.025
11
54.625
21
-16.025
0
ARC
8
0
10
41.125
20
-3.025
40
0.5
50
90
51
180
0
ARC
8
0
10
54.125
20
-3.025
40
0.5
50
0
51
90
0
ARC
8
0
10
41.125
20
-16.025
40
0.5
50
180
51
270
0
ARC
8
0
10
54.125
20
-16.025
40
0.5
50
270
51
0
0
LINE
8
0
10
60.175
20
-2.525
11
73.175
21
-2.525
0
LINE
8
0
10
60.175
20
-16.525
11
73.175
21
-16.525
0
LINE
8
0
10
59.675
20
-3.025
11
59.675
21
-16.025
0
LINE
8
0
10
73.675
20
-3.025
11
73.675
21
-16.025
0
ARC
8
0
10
60.175
20
-3.025
40
0.5
50
90
51
180
0
ARC
8
0
10
73.175
20
-3.025
40
0.5
50
0
51
90
0
ARC
8
0
10
60.175
20
-16.025
40
0.5
50
180
51
270
0
ARC
8
0
10
73.175
20
-16.025
40
0.5
50
270
51
0
0
LINE
8
0
10
83.9875
20
-2.525
11
96.9875
21
-2.525
0
LINE
8
0
10
83.9875
20
-16.525
11
96.9875
21
-16.525
0
LINE
8
0
10
83.4875
20
-3.025
11
83.4875
21
-16.025
0
LINE
8
0
10
97.4875
20
-3.025
11
97.4875
21
-16.025
0
ARC
8
0
10
83.9875
20
-3.025
40
0.5
50
90
51
180
0
ARC
8
0
10
96.9875
20
-3.025
40
0.5
50
0
51
90
0
ARC
8
0
10
83.9875
20
-16.025
40
0.5
50
180
51
270
0
ARC
8
0
10
96.9875
20
-16.025
40
0.5
50
270
51
0
0
LINE
8
0
10
107.8
20
-2.525
11
120.8
21
-2.525
0
LINE
8
0
10
107.8
20
-16.525
11
120.8
21
-16.525
0
LINE
8
0
10
107.3
20
-3.025
11
107.3
21
-16.025
0
LINE
8
0
10
121.3
20
-3.025
11
121.3
21
-16.025
0
ARC
8
0
10
107.8
20
-3.025
40
0.5
50
90
51
180
0
ARC
8
0
10
120.8
20
-3.025
40
0.5
50
0
51
90
0
ARC
8
0
10
107.8
20
-16.025
40
0.5
50
180
51
270
0
ARC
8
0
10
120.8
20
-16.025
40
0.5
50
270
51
0
0
LINE
8
0
10
126.85
20
-2.525
11
139.85
21
-2.525
0
LINE
8
0
10
126.85
20
-16.525
11
139.85
21
-16.525
0
LINE
8
0
10
126.35
20
-3.025
11
126.35
21
-16.025
0
LINE
8
0
10
140.35
20
-3.025
11
140.35
21
-16.025
0
ARC
8
0
10
126.85
20
-3.025
40
0.5
50
90
51
180
0
ARC
8
0
10
139.85
20
-3.025
40
0.5
50
0
51
90
0
ARC
8
0
10
126.85
20
-16.025
40
0.5
50
180
51
270
0
ARC
8
0
10
139.85
20
-16.025
40
0.5
50
270
51
0
0
LINE
8
0
10
145.9
20
-2.525
11
158.9
21
-2.525
0
LINE
8
0
10
145.9
20
-16.525
11
158.9
21
-16.525
0
LINE
8
0
10
145.4
20
-3.025
11
145.4
21
-16.025
0
LINE
8
0
10
159.4
20
-3.025
11
159.4
21
-16.025
0
ARC
8
0
10
145.9
20
-3.025
40
0.5
50
90
51
180
0
ARC
8
0
10
158.9
20
-3.025
40
0.5
50
0
51
90
0
ARC
8
0
10
145.9
20
-16.025
40
0.5
50
180
51
270
0
ARC
8
0
10
158.9
20
-16.025
40
0.5
50
270
51
0
0
LINE
8
0
10
164.95
20
-2.525
11
177.95
21
-2.525
0
LINE
8
0
10
164.95
20
-16.525
11
177.95
21
-16.525
0
LINE
8
0
10
164.45
20
-3.025
11
164.45
21
-16.025
0
LINE
8
0
10
178.45
20
-3.025
11
178.45
21
-16.025
0
ARC
8
0
10
164.95
20
-3.025
40
0.5
50
90
51
180
0
ARC
8
0
10
177.95
20
-3.025
40
0.5
50
0
51
90
0
ARC
8
0
10
164.95
20
-16.025
40
0.5
50
180
51
270
0
ARC
8
0
10
177.95
20
-16.025
40
0.5
50
270
51
0
0
LINE
8
0
10
188.7625
20
-2.525
11
201.7625
21
-2.525
0
LINE
8
0
10
188.7625
20
-16.525
11
201.7625
21
-16.525
0
LINE
8
0
10
188.2625
20
-3.025
11
188.2625
21
-16.025
0
LINE
8
0
10
202.2625
20
-3.025
11
202.2625
21
-16.025
0
ARC
8
0
10
188.7625
20
-3.025
40
0.5
50
90
51
180
0
ARC
8
0
10
201.7625
20
-3.025
40
0.5
50
0
51
90
0
ARC
8
0
10
188.7625
20
-16.025
40
0.5
50
180
51
270
0
ARC
8
0
10
201.7625
20
-16.025
40
0.5
50
270
51
0
0
LINE
8
0
10
207.8125
20
-2.525
11
220.8125
21
-2.525
0
LINE
8
0
10
207.8125
20
-16.525
11
220.8125
21
-16.525
0
LINE
8
0
10
207.3125
20
-3.025
11
207.3125
21
-16.025
0
LINE
8
0
10
221.3125
20
-3.025
11
221.3125
21
-16.025
0
ARC
8
0
10
207.8125
20
-3.025
40
0.5
50
90
51
180
0
ARC
8
0
10
220.8125
20
-3.025
40
0.5
50
0
51
90
0
ARC
8
0
10
207.8125
20
-16.025
40
0.5
50
180
51
270
0
ARC
8
0
10
220.8125
20
-16.025
40
0.5
50
270
51
0
0
LINE
8
0
10
226.8625
20
-2.525
11
239.8625
21
-2.525
0
LINE
8
0
10
226.8625
20
-16.525
11
239.8625
21
-16.525
0
LINE
8
0
10
226.3625
20
-3.025
11
226.3625
21
-16.025
0
LINE
8
0
10
240.3625
20
-3.025
11
240.3625
21
-16.025
0
ARC
8
0
10
226.8625
20
-3.025
40
0.5
50
90
51
180
0
ARC
8
0
10
239.8625
20
-3.025
40
0.5
50
0
51
90
0
ARC
8
0
10
226.8625
20
-16.025
40
0.5
50
180
51
270
0
ARC
8
0
10
239.8625
20
-16.025
40
0.5
50
270
51
0
0
LINE
8
0
10
245.9125
20
-2.525
11
258.9125
21
-2.525
0
LINE
8
0
10
245.9125
20
-16.525
11
258.9125
21
-16.525
0
LINE
8
0
10
245.4125
20
-3.025
11
245.4125
21
-16.025
0
LINE
8
0
10
259.4125
20
-3.025
11
259.4125
21
-16.025
0
ARC
8
0
10
245.9125
20
-3.025
40
0.5
50
90
51
180
0
ARC
8
0
10
258.9125
20
-3.025
40
0.5
50
0
51
90
0
ARC
8
0
10
245.9125
20
-16.025
40
0.5
50
180
51
270
0
ARC
8
0
10
258.9125
20
-16.025
40
0.5
50
270
51
0
0
LINE
8
0
10
269.725
20
-2.525
11
282.725
21
-2.525
0
LINE
8
0
10
269.725
20
-16.525
11
282.725
21
-16.525
0
LINE
8
0
10
269.225
20
-3.025
11
269.225
21
-16.025
0
LINE
8
0
10
283.225
20
-3.025
11
283.225
21
-16.025
0
ARC
8
0
10
269.725
20
-3.025
40
0.5
50
90
51
180
0
ARC
8
0
10
282.725
20
-3.025
40
0.5
50
0
51
90
0
ARC
8
0
10
269.725
20
-16.025
40
0.5
50
180
51
270
0
ARC
8
0
10
282.725
20
-16.025
40
0.5
50
270
51
0
0
LINE
8
0
10
288.775
20
-2.525
11
301.775
21
-2.525
0
LINE
8
0
10
288.775
20
-16.525
11
301.775
21
-16.525
0
LINE
8
0
10
288.275
20
-3.025
11
288.275
21
-16.025
0
LINE
8
0
10
302.275
20
-3.025
11
302.275
21
-16.025
0
ARC
8
0
10
288.775
20
-3.025
40
0.5
50
90
51
180
0
ARC
8
0
10
301.775
20
-3.025
40
0.5
50
0
51
90
0
ARC
8
0
10
288.775
20
-16.025
40
0.5
50
180
51
270
0
ARC
8
0
10
301.775
20
-16.025
40
0.5
50
270
51
0
0
LINE
8
0
10
307.825
20
-2.525
11
320.825
21
-2.525
0
LINE
8
0
10
307.825
20
-16.525
11
320.825
21
-16.525
0
LINE
8
0
10
307.325
20
-3.025
11
307.325
21
-16.025
0
LINE
8
0
10
321.325
20
-3.025
11
321.325
21
-16.025
0
ARC
8
0
10
307.825
20
-3.025
40
0.5
50
90
51
180
0
ARC
8
0
10
320.825
20
-3.025
40
0.5
50
0
51
90
0
ARC
8
0
10
307.825
20
-16.025
40
0.5
50
180
51
270
0
ARC
8
0
10
320.825
20
-16.025
40
0.5
50
270
51
0
0
LINE
8
0
10
326.875
20
-2.525
11
339.875
21
-2.525
0
LINE
8
0
10
326.875
20
-16.525
11
339.875
21
-16.525
0
LINE
8
0
10
326.375
20
-3.025
11
326.375
21
-16.025
0
LINE
8
0
10
340.375
20
-3.025
11
340.375
21
-16.025
0
ARC
8
0
10
326.875
20
-3.025
40
0.5
50
90
51
180
0
ARC
8
0
10
339.875
20
-3.025
40
0.5
50
0
51
90
0
ARC
8
0
10
326.875
20
-16.025
40
0.5
50
180
51
270
0
ARC
8
0
10
339.875
20
-16.025
40
0.5
50
270
51
0
0
LINE
8
0
10
350.6875
20
-2.525
11
363.6875
21
-2.525
0
LINE
8
0
10
350.6875
20
-16.525
11
363.6875
21
-16.525
0
LINE
8
0
10
350.1875
20
-3.025
11
350.1875
21
-16.025
0
LINE
8
0
10
364.1875
20
-3.025
11
364.1875
21
-16.025
0
ARC
8
0
10
350.6875
20
-3.025
40
0.5
50
90
51
180
0
ARC
8
0
10
363.6875
20
-3.025
40
0.5
50
0
51
90
0
ARC
8
0
10
350.6875
20
-16.025
40
0.5
50
180
51
270
0
ARC
8
0
10
363.6875
20
-16.025
40
0.5
50
270
51
0
0
LINE
8
0
10
384.025
20
-2.525
11
397.025
21
-2.525
0
LINE
8
0
10
384.025
20
-16.525
11
397.025
21
-16.525
0
LINE
8
0
10
383.525
20
-3.025
11
383.525
21
-16.025
0
LINE
8
0
10
397.525
20
-3.025
11
397.525
21
-16.025
0
ARC
8
0
10
384.025
20
-3.025
40
0.5
50
90
51
180
0
ARC
8
0
10
397.025
20
-3.025
40
0.5
50
0
51
90
0
ARC
8
0
10
384.025
20
-16.025
40
0.5
50
180
51
270
0
ARC
8
0
10
397.025
20
-16.025
40
0.5
50
270
51
0
0
LINE
8
0
10
3.025
20
-31.1
11
16.025
21
-31.1
0
LINE
8
0
10
3.025
20
-45.1
11
16.025
21
-45.1
0
LINE
8
0
10
2.525
20
-31.6
11
2.525
21
-44.6
0
LINE
8
0
10
16.525
20
-31.6
11
16.525
21
-44.6
0
ARC
8
0
10
3.025
20
-31.6
40
0.5
50
90
51
180
0
ARC
8
0
10
16.025
20
-31.6
40
0.5
50
0
51
90
0
ARC
8
0
10
3.025
20
-44.6
40
0.5
50
180
51
270
0
ARC
8
0
10
16.025
20
-44.6
40
0.5
50
270
51
0
0
LINE
8
0
10
22.075
20
-31.1
11
35.075
21
-31.1
0
LINE
8
0
10
22.075
20
-45.1
11
35.075
21
-45.1
0
LINE
8
0
10
21.575
20
-31.6
11
21.575
21
-44.6
0
LINE
8
0
10
35.575
20
-31.6
11
35.575
21
-44.6
0
ARC
8
0
10
22.075
20
-31.6
40
0.5
50
90
51
180
0
ARC
8
0
10
35.075
20
-31.6
40
0.5
50
0
51
90
0
ARC
8
0
10
22.075
20
-44.6
40
0.5
50
180
51
270
0
ARC
8
0
10
35.075
20
-44.6
40
0.5
50
270
51
0
0
LINE
8
0
10
41.125
20
-31.1
11
54.125
21
-31.1
0
LINE
8
0
10
41.125
20
-45.1
11
54.125
21
-45.1
0
LINE
8
0
10
40.625
20
-31.6
11
40.625
21
-44.6
0
LINE
8
0
10
54.625
20
-31.6
11
54.625
21
-44.6
0
ARC
8
0
10
41.125
20
-31.6
40
0.5
50
90
51
180
0
ARC
8
0
10
54.125
20
-31.6
40
0.5
50
0
51
90
0
ARC
8
0
10
41.125
20
-44.6
40
0.5
50
180
51
270
0
ARC
8
0
10
54.125
20
-44.6
40
0.5
50
270
51
0
0
LINE
8
0
10
60.175
20
-31.1
11
73.175
21
-31.1
0
LINE
8
0
10
60.175
20
-45.1
11
73.175
21
-45.1
0
LINE
8
0
10
59.675
20
-31.6
11
59.675
21
-44.6
0
LINE
8
0
10
73.675
20
-31.6
11
73.675
21
-44.6
0
ARC
8
0
10
60.175
20
-31.6
40
0.5
50
90
51
180
0
ARC
8
0
10
73.175
20
-31.6
40
0.5
50
0
51
90
0
ARC
8
0
10
60.175
20
-44.6
40
0.5
50
180
51
270
0
ARC
8
0
10
73.175
20
-44.6
40
0.5
50
270
51
0
0
LINE
8
0
10
83.9875
20
-31.1
11
96.9875
21
-31.1
0
LINE
8
0
10
83.9875
20
-45.1
11
96.9875
21
-45.1
0
LINE
8
0
10
83.4875
20
-31.6
11
83.4875
21
-44.6
0
LINE
8
0
10
97.4875
20
-31.6
11
97.4875
21
-44.6
0
ARC
8
0
10
83.9875
20
-31.6
40
0.5
50
90
51
180
0
ARC
8
0
10
96.9875
20
-31.6
40
0.5
50
0
51
90
0
ARC
8
0
10
83.9875
20
-44.6
40
0.5
50
180
51
270
0
ARC
8
0
10
96.9875
20
-44.6
40
0.5
50
270
51
0
0
LINE
8
0
10
103.0375
20
-31.1
11
116.0375
21
-31.1
0
LINE
8
0
10
103.0375
20
-45.1
11
116.0375
21
-45.1
0
LINE
8
0
10
102.5375
20
-31.6
11
102.5375
21
-44.6
0
LINE
8
0
10
116.5375
20
-31.6
11
116.5375
21
-44.6
0
ARC
8
0
10
103.0375
20
-31.6
40
0.5
50
90
51
180
0
ARC
8
0
10
116.0375
20
-31.6
40
0.5
50
0
51
90
0
ARC
8
0
10
103.0375
20
-44.6
40
0.5
50
180
51
270
0
ARC
8
0
10
116.0375
20
-44.6
40
0.5
50
270
51
0
0
LINE
8
0
10
122.0875
20
-31.1
11
135.0875
21
-31.1
0
LINE
8
0
10
122.0875
20
-45.1
11
135.0875
21
-45.1
0
LINE
8
0
10
121.5875
20
-31.6
11
121.5875
21
-44.6
0
LINE
8
0
10
135.5875
20
-31.6
11
135.5875
21
-44.6
0
ARC
8
0
10
122.0875
20
-31.6
40
0.5
50
90
51
180
0
ARC
8
0
10
135.0875
20
-31.6
40
0.5
50
0
51
90
0
ARC
8
0
10
122.0875
20
-44.6
40
0.5
50
180
51
270
0
ARC
8
0
10
135.0875
20
-44.6
40
0.5
50
270
51
0
0
LINE
8
0
10
141.1375
20
-31.1
11
154.1375
21
-31.1
0
LINE
8
0
10
141.1375
20
-45.1
11
154.1375
21
-45.1
0
LINE
8
0
10
140.6375
20
-31.6
11
140.6375
21
-44.6
0
LINE
8
0
10
154.6375
20
-31.6
11
154.6375
21
-44.6
0
ARC
8
0
10
141.1375
20
-31.6
40
0.5
50
90
51
180
0
ARC
8
0
10
154.1375
20
-31.6
40
0.5
50
0
51
90
0
ARC
8
0
10
141.1375
20
-44.6
40
0.5
50
180
51
270
0
ARC
8
0
10
154.1375
20
-44.6
40
0.5
50
270
51
0
0
LINE
8
0
10
160.1875
20
-31.1
11
173.1875
21
-31.1
0
LINE
8
0
10
160.1875
20
-45.1
11
173.1875
21
-45.1
0
LINE
8
0
10
159.6875
20
-31.6
11
159.6875
21
-44.6
0
LINE
8
0
10
173.6875
20
-31.6
11
173.6875
21
-44.6
0
ARC
8
0
10
160.1875
20
-31.6
40
0.5
50
90
51
180
0
ARC
8
0
10
173.1875
20
-31.6
40
0.5
50
0
51
90
0
ARC
8
0
10
160.1875
20
-44.6
40
0.5
50
180
51
270
0
ARC
8
0
10
173.1875
20
-44.6
40
0.5
50
270
51
0
0
LINE
8
0
10
179.2375
20
-31.1
11
192.2375
21
-31.1
0
LINE
8
0
10
179.2375
20
-45.1
11
192.2375
21
-45.1
0
LINE
8
0
10
178.7375
20
-31.6
11
178.7375
21
-44.6
0
LINE
8
0
10
192.7375
20
-31.6
11
192.7375
21
-44.6
0
ARC
8
0
10
179.2375
20
-31.6
40
0.5
50
90
51
180
0
ARC
8
0
10
192.2375
20
-31.6
40
0.5
50
0
51
90
0
ARC
8
0
10
179.2375
20
-44.6
40
0.5
50
180
51
270
0
ARC
8
0
10
192.2375
20
-44.6
40
0.5
50
270
51
0
0
LINE
8
0
10
198.2875
20
-31.1
11
211.2875
21
-31.1
0
LINE
8
0
10
198.2875
20
-45.1
11
211.2875
21
-45.1
0
LINE
8
0
10
197.7875
20
-31.6
11
197.7875
21
-44.6
0
LINE
8
0
10
211.7875
20
-31.6
11
211.7875
21
-44.6
0
ARC
8
0
10
198.2875
20
-31.6
40
0.5
50
90
51
180
0
ARC
8
0
10
211.2875
20
-31.6
40
0.5
50
0
51
90
0
ARC
8
0
10
198.2875
20
-44.6
40
0.5
50
180
51
270
0
ARC
8
0
10
211.2875
20
-44.6
40
0.5
50
270
51
0
0
LINE
8
0
10
217.3375
20
-31.1
11
230.3375
21
-31.1
0
LINE
8
0
10
217.3375
20
-45.1
11
230.3375
21
-45.1
0
LINE
8
0
10
216.8375
20
-31.6
11
216.8375
21
-44.6
0
LINE
8
0
10
230.8375
20
-31.6
11
230.8375
21
-44.6
0
ARC
8
0
10
217.3375
20
-31.6
40
0.5
50
90
51
180
0
ARC
8
0
10
230.3375
20
-31.6
40
0.5
50
0
51
90
0
ARC
8
0
10
217.3375
20
-44.6
40
0.5
50
180
51
270
0
ARC
8
0
10
230.3375
20
-44.6
40
0.5
50
270
51
0
0
LINE
8
0
10
236.3875
20
-31.1
11
249.3875
21
-31.1
0
LINE
8
0
10
236.3875
20
-45.1
11
249.3875
21
-45.1
0
LINE
8
0
10
235.8875
20
-31.6
11
235.8875
21
-44.6
0
LINE
8
0
10
249.8875
20
-31.6
11
249.8875
21
-44.6
0
ARC
8
0
10
236.3875
20
-31.6
40
0.5
50
90
51
180
0
ARC
8
0
10
249.3875
20
-31.6
40
0.5
50
0
51
90
0
ARC
8
0
10
236.3875
20
-44.6
40
0.5
50
180
51
270
0
ARC
8
0
10
249.3875
20
-44.6
40
0.5
50
270
51
0
0
LINE
8
0
10
255.4375
20
-31.1
11
268.4375
21
-31.1
0
LINE
8
0
10
255.4375
20
-45.1
11
268.4375
21
-45.1
0
LINE
8
0
10
254.9375
20
-31.6
11
254.9375
21
-44.6
0
LINE
8
0
10
268.9375
20
-31.6
11
268.9375
21
-44.6
0
ARC
8
0
10
255.4375
20
-31.6
40
0.5
50
90
51
180
0
ARC
8
0
10
268.4375
20
-31.6
40
0.5
50
0
51
90
0
ARC
8
0
10
255.4375
20
-44.6
40
0.5
50
180
51
270
0
ARC
8
0
10
268.4375
20
-44.6
40
0.5
50
270
51
0
0
LINE
8
0
10
274.4875
20
-31.1
11
287.4875
21
-31.1
0
LINE
8
0
10
274.4875
20
-45.1
11
287.4875
21
-45.1
0
LINE
8
0
10
273.9875
20
-31.6
11
273.9875
21
-44.6
0
LINE
8
0
10
287.9875
20
-31.6
11
287.9875
21
-44.6
0
ARC
8
0
10
274.4875
20
-31.6
40
0.5
50
90
51
180
0
ARC
8
0
10
287.4875
20
-31.6
40
0.5
50
0
51
90
0
ARC
8
0
10
274.4875
20
-44.6
40
0.5
50
180
51
270
0
ARC
8
0
10
287.4875
20
-44.6
40
0.5
50
270
51
0
0
LINE
8
0
10
293.5375
20
-31.1
11
306.5375
21
-31.1
0
LINE
8
0
10
293.5375
20
-45.1
11
306.5375
21
-45.1
0
LINE
8
0
10
293.0375
20
-31.6
11
293.0375
21
-44.6
0
LINE
8
0
10
307.0375
20
-31.6
11
307.0375
21
-44.6
0
ARC
8
0
10
293.5375
20
-31.6
40
0.5
50
90
51
180
0
ARC
8
0
10
306.5375
20
-31.6
40
0.5
50
0
51
90
0
ARC
8
0
10
293.5375
20
-44.6
40
0.5
50
180
51
270
0
ARC
8
0
10
306.5375
20
-44.6
40
0.5
50
270
51
0
0
LINE
8
0
10
312.5875
20
-31.1
11
325.5875
21
-31.1
0
LINE
8
0
10
312.5875
20
-45.1
11
325.5875
21
-45.1
0
LINE
8
0
10
312.0875
20
-31.6
11
312.0875
21
-44.6
0
LINE
8
0
10
326.0875
20
-31.6
11
326.0875
21
-44.6
0
ARC
8
0
10
312.5875
20
-31.6
40
0.5
50
90
51
180
0
ARC
8
0
10
325.5875
20
-31.6
40
0.5
50
0
51
90
0
ARC
8
0
10
312.5875
20
-44.6
40
0.5
50
180
51
270
0
ARC
8
0
10
325.5875
20
-44.6
40
0.5
50
270
51
0
0
LINE
8
0
10
341.1625
20
-31.1
11
354.1625
21
-31.1
0
LINE
8
0
10
341.1625
20
-45.1
11
354.1625
21
-45.1
0
LINE
8
0
10
340.6625
20
-31.6
11
340.6625
21
-44.6
0
LINE
8
0
10
354.6625
20
-31.6
11
354.6625
21
-44.6
0
ARC
8
0
10
341.1625
20
-31.6
40
0.5
50
90
51
180
0
ARC
8
0
10
354.1625
20
-31.6
40
0.5
50
0
51
90
0
ARC
8
0
10
341.1625
20
-44.6
40
0.5
50
180
51
270
0
ARC
8
0
10
354.1625
20
-44.6
40
0.5
50
270
51
0
0
LINE
8
0
10
332.7245
20
-32.1
11
338.7245
21
-32.1
0
LINE
8
0
10
332.7245
20
-47.1
11
338.7245
21
-47.1
0
LINE
8
0
10
332.2245
20
-32.6
11
332.2245
21
-46.6
0
LINE
8
0
10
339.2245
20
-32.6
11
339.2245
21
-46.6
0
ARC
8
0
10
332.7245
20
-32.6
40
0.5
50
90
51
180
0
ARC
8
0
10
338.7245
20
-32.6
40
0.5
50
0
51
90
0
ARC
8
0
10
332.7245
20
-46.6
40
0.5
50
180
51
270
0
ARC
8
0
10
338.7245
20
-46.6
40
0.5
50
270
51
0
0
LINE
8
0
10
356.6005
20
-32.1
11
362.6005
21
-32.1
0
LINE
8
0
10
356.6005
20
-47.1
11
362.6005
21
-47.1
0
LINE
8
0
10
356.1005
20
-32.6
11
356.1005
21
-46.6
0
LINE
8
0
10
363.1005
20
-32.6
11
363.1005
21
-46.6
0
ARC
8
0
10
356.6005
20
-32.6
40
0.5
50
90
51
180
0
ARC
8
0
10
362.6005
20
-32.6
40
0.5
50
0
51
90
0
ARC
8
0
10
356.6005
20
-46.6
40
0.5
50
180
51
270
0
ARC
8
0
10
362.6005
20
-46.6
40
0.5
50
270
51
0
0
LINE
8
0
10
374.5
20
-31.1
11
387.5
21
-31.1
0
LINE
8
0
10
374.5
20
-45.1
11
387.5
21
-45.1
0
LINE
8
0
10
374
20
-31.6
11
374
21
-44.6
0
LINE
8
0
10
388
20
-31.6
11
388
21
-44.6
0
ARC
8
0
10
374.5
20
-31.6
40
0.5
50
90
51
180
0
ARC
8
0
10
387.5
20
-31.6
40
0.5
50
0
51
90
0
ARC
8
0
10
374.5
20
-44.6
40
0.5
50
180
51
270
0
ARC
8
0
10
387.5
20
-44.6
40
0.5
50
270
51
0
0
LINE
8
0
10
393.55
20
-31.1
11
406.55
21
-31.1
0
LINE
8
0
10
393.55
20
-45.1
11
406.55
21
-45.1
0
LINE
8
0
10
393.05
20
-31.6
11
393.05
21
-44.6
0
LINE
8
0
10
407.05
20
-31.6
11
407.05
21
-44.6
0
ARC
8
0
10
393.55
20
-31.6
40
0.5
50
90
51
180
0
ARC
8
0
10
406.55
20
-31.6
40
0.5
50
0
51
90
0
ARC
8
0
10
393.55
20
-44.6
40
0.5
50
180
51
270
0
ARC
8
0
10
406.55
20
-44.6
40
0.5
50
270
51
0
0
LINE
8
0
10
3.025
20
-50.15
11
16.025
21
-50.15
0
LINE
8
0
10
3.025
20
-64.15
11
16.025
21
-64.15
0
LINE
8
0
10
2.525
20
-50.65
11
2.525
21
-63.65
0
LINE
8
0
10
16.525
20
-50.65
11
16.525
21
-63.65
0
ARC
8
0
10
3.025
20
-50.65
40
0.5
50
90
51
180
0
ARC
8
0
10
16.025
20
-50.65
40
0.5
50
0
51
90
0
ARC
8
0
10
3.025
20
-63.65
40
0.5
50
180
51
270
0
ARC
8
0
10
16.025
20
-63.65
40
0.5
50
270
51
0
0
LINE
8
0
10
22.075
20
-50.15
11
35.075
21
-50.15
0
LINE
8
0
10
22.075
20
-64.15
11
35.075
21
-64.15
0
LINE
8
0
10
21.575
20
-50.65
11
21.575
21
-63.65
0
LINE
8
0
10
35.575
20
-50.65
11
35.575
21
-63.65
0
ARC
8
0
10
22.075
20
-50.65
40
0.5
50
90
51
180
0
ARC
8
0
10
35.075
20
-50.65
40
0.5
50
0
51
90
0
ARC
8
0
10
22.075
20
-63.65
40
0.5
50
180
51
270
0
ARC
8
0
10
35.075
20
-63.65
40
0.5
50
270
51
0
0
LINE
8
0
10
41.125
20
-50.15
11
54.125
21
-50.15
0
LINE
8
0
10
41.125
20
-64.15
11
54.125
21
-64.15
0
LINE
8
0
10
40.625
20
-50.65
11
40.625
21
-63.65
0
LINE
8
0
10
54.625
20
-50.65
11
54.625
21
-63.65
0
ARC
8
0
10
41.125
20
-50.65
40
0.5
50
90
51
180
0
ARC
8
0
10
54.125
20
-50.65
40
0.5
50
0
51
90
0
ARC
8
0
10
41.125
20
-63.65
40
0.5
50
180
51
270
0
ARC
8
0
10
54.125
20
-63.65
40
0.5
50
270
51
0
0
LINE
8
0
10
73.675
20
-60.175
11
73.675
21
-73.175
0
LINE
8
0
10
59.675
20
-60.175
11
59.675
21
-73.175
0
LINE
8
0
10
73.175
20
-59.675
11
60.175
21
-59.675
0
LINE
8
0
10
73.175
20
-73.675
11
60.175
21
-73.675
0
ARC
8
0
10
73.175
20
-60.175
40
0.5
50
0
51
90
0
ARC
8
0
10
73.175
20
-73.175
40
0.5
50
270
51
0
0
ARC
8
0
10
60.175
20
-60.175
40
0.5
50
90
51
180
0
ARC
8
0
10
60.175
20
-73.175
40
0.5
50
180
51
270
0
LINE
8
0
10
72.675
20
-51.737
11
72.675
21
-57.737
0
LINE
8
0
10
57.675
20
-51.737
11
57.675
21
-57.737
0
LINE
8
0
10
72.175
20
-51.237
11
58.175
21
-51.237
0
LINE
8
0
10
72.175
20
-58.237
11
58.175
21
-58.237
0
ARC
8
0
10
72.175
20
-51.737
40
0.5
50
0
51
90
0
ARC
8
0
10
72.175
20
-57.737
40
0.5
50
270
51
0
0
ARC
8
0
10
58.175
20
-51.737
40
0.5
50
90
51
180
0
ARC
8
0
10
58.175
20
-57.737
40
0.5
50
180
51
270
0
LINE
8
0
10
72.675
20
-75.613
11
72.675
21
-81.613
0
LINE
8
0
10
57.675
20
-75.613
11
57.675
21
-81.613
0
LINE
8
0
10
72.175
20
-75.113
11
58.175
21
-75.113
0
LINE
8
0
10
72.175
20
-82.113
11
58.175
21
-82.113
0
ARC
8
0
10
72.175
20
-75.613
40
0.5
50
0
51
90
0
ARC
8
0
10
72.175
20
-81.613
40
0.5
50
270
51
0
0
ARC
8
0
10
58.175
20
-75.613
40
0.5
50
90
51
180
0
ARC
8
0
10
58.175
20
-81.613
40
0.5
50
180
51
270
0
LINE
8
0
10
88.75
20
-50.15
11
101.75
21
-50.15
0
LINE
8
0
10
88.75
20
-64.15
11
101.75
21
-64.15
0
LINE
8
0
10
88.25
20
-50.65
11
88.25
21
-63.65
0
LINE
8
0
10
102.25
20
-50.65
11
102.25
21
-63.65
0
ARC
8
0
10
88.75
20
-50.65
40
0.5
50
90
51
180
0
ARC
8
0
10
101.75
20
-50.65
40
0.5
50
0
51
90
0
ARC
8
0
10
88.75
20
-63.65
40
0.5
50
180
51
270
0
ARC
8
0
10
101.75
20
-63.65
40
0.5
50
270
51
0
0
LINE
8
0
10
84.25
20
-50.15
11
84.75
21
-50.15
0
LINE
8
0
10
84.25
20
-64.15
11
84.75
21
-64.15
0
LINE
8
0
10
83.75
20
-50.65
11
83.75
21
-63.65
0
LINE
8
0
10
85.25
20
-50.65
11
85.25
21
-63.65
0
ARC
8
0
10
84.25
20
-50.65
40
0.5
50
90
51
180
0
ARC
8
0
10
84.75
20
-50.65
40
0.5
50
0
51
90
0
ARC
8
0
10
84.25
20
-63.65
40
0.5
50
180
51
270
0
ARC
8
0
10
84.75
20
-63.65
40
0.5
50
270
51
0
0
LINE
8
0
10
105.75
20
-50.15
11
106.25
21
-50.15
0
LINE
8
0
10
105.75
20
-64.15
11
106.25
21
-64.15
0
LINE
8
0
10
105.25
20
-50.65
11
105.25
21
-63.65
0
LINE
8
0
10
106.75
20
-50.65
11
106.75
21
-63.65
0
ARC
8
0
10
105.75
20
-50.65
40
0.5
50
90
51
180
0
ARC
8
0
10
106.25
20
-50.65
40
0.5
50
0
51
90
0
ARC
8
0
10
105.75
20
-63.65
40
0.5
50
180
51
270
0
ARC
8
0
10
106.25
20
-63.65
40
0.5
50
270
51
0
0
LINE
8
0
10
112.5625
20
-50.15
11
125.5625
21
-50.15
0
LINE
8
0
10
112.5625
20
-64.15
11
125.5625
21
-64.15
0
LINE
8
0
10
112.0625
20
-50.65
11
112.0625
21
-63.65
0
LINE
8
0
10
126.0625
20
-50.65
11
126.0625
21
-63.65
0
ARC
8
0
10
112.5625
20
-50.65
40
0.5
50
90
51
180
0
ARC
8
0
10
125.5625
20
-50.65
40
0.5
50
0
51
90
0
ARC
8
0
10
112.5625
20
-63.65
40
0.5
50
180
51
270
0
ARC
8
0
10
125.5625
20
-63.65
40
0.5
50
270
51
0
0
LINE
8
0
10
131.6125
20
-50.15
11
144.6125
21
-50.15
0
LINE
8
0
10
131.6125
20
-64.15
11
144.6125
21
-64.15
0
LINE
8
0
10
131.1125
20
-50.65
11
131.1125
21
-63.65
0
LINE
8
0
10
145.1125
20
-50.65
11
145.1125
21
-63.65
0
ARC
8
0
10
131.6125
20
-50.65
40
0.5
50
90
51
180
0
ARC
8
0
10
144.6125
20
-50.65
40
0.5
50
0
51
90
0
ARC
8
0
10
131.6125
20
-63.65
40
0.5
50
180
51
270
0
ARC
8
0
10
144.6125
20
-63.65
40
0.5
50
270
51
0
0
LINE
8
0
10
150.6625
20
-50.15
11
163.6625
21
-50.15
0
LINE
8
0
10
150.6625
20
-64.15
11
163.6625
21
-64.15
0
LINE
8
0
10
150.1625
20
-50.65
11
150.1625
21
-63.65
0
LINE
8
0
10
164.1625
20
-50.65
11
164.1625
21
-63.65
0
ARC
8
0
10
150.6625
20
-50.65
40
0.5
50
90
51
180
0
ARC
8
0
10
163.6625
20
-50.65
40
0.5
50
0
51
90
0
ARC
8
0
10
150.6625
20
-63.65
40
0.5
50
180
51
270
0
ARC
8
0
10
163.6625
20
-63.65
40
0.5
50
270
51
0
0
LINE
8
0
10
169.7125
20
-50.15
11
182.7125
21
-50.15
0
LINE
8
0
10
169.7125
20
-64.15
11
182.7125
21
-64.15
0
LINE
8
0
10
169.2125
20
-50.65
11
169.2125
21
-63.65
0
LINE
8
0
10
183.2125
20
-50.65
11
183.2125
21
-63.65
0
ARC
8
0
10
169.7125
20
-50.65
40
0.5
50
90
51
180
0
ARC
8
0
10
182.7125
20
-50.65
40
0.5
50
0
51
90
0
ARC
8
0
10
169.7125
20
-63.65
40
0.5
50
180
51
270
0
ARC
8
0
10
182.7125
20
-63.65
40
0.5
50
270
51
0
0
LINE
8
0
10
188.7625
20
-50.15
11
201.7625
21
-50.15
0
LINE
8
0
10
188.7625
20
-64.15
11
201.7625
21
-64.15
0
LINE
8
0
10
188.2625
20
-50.65
11
188.2625
21
-63.65
0
LINE
8
0
10
202.2625
20
-50.65
11
202.2625
21
-63.65
0
ARC
8
0
10
188.7625
20
-50.65
40
0.5
50
90
51
180
0
ARC
8
0
10
201.7625
20
-50.65
40
0.5
50
0
51
90
0
ARC
8
0
10
188.7625
20
-63.65
40
0.5
50
180
51
270
0
ARC
8
0
10
201.7625
20
-63.65
40
0.5
50
270
51
0
0
LINE
8
0
10
207.8125
20
-50.15
11
220.8125
21
-50.15
0
LINE
8
0
10
207.8125
20
-64.15
11
220.8125
21
-64.15
0
LINE
8
0
10
207.3125
20
-50.65
11
207.3125
21
-63.65
0
LINE
8
0
10
221.3125
20
-50.65
11
221.3125
21
-63.65
0
ARC
8
0
10
207.8125
20
-50.65
40
0.5
50
90
51
180
0
ARC
8
0
10
220.8125
20
-50.65
40
0.5
50
0
51
90
0
ARC
8
0
10
207.8125
20
-63.65
40
0.5
50
180
51
270
0
ARC
8
0
10
220.8125
20
-63.65
40
0.5
50
270
51
0
0
LINE
8
0
10
226.8625
20
-50.15
11
239.8625
21
-50.15
0
LINE
8
0
10
226.8625
20
-64.15
11
239.8625
21
-64.15
0
LINE
8
0
10
226.3625
20
-50.65
11
226.3625
21
-63.65
0
LINE
8
0
10
240.3625
20
-50.65
11
240.3625
21
-63.65
0
ARC
8
0
10
226.8625
20
-50.65
40
0.5
50
90
51
180
0
ARC
8
0
10
239.8625
20
-50.65
40
0.5
50
0
51
90
0
ARC
8
0
10
226.8625
20
-63.65
40
0.5
50
180
51
270
0
ARC
8
0
10
239.8625
20
-63.65
40
0.5
50
270
51
0
0
LINE
8
0
10
245.9125
20
-50.15
11
258.9125
21
-50.15
0
LINE
8
0
10
245.9125
20
-64.15
11
258.9125
21
-64.15
0
LINE
8
0
10
245.4125
20
-50.65
11
245.4125
21
-63.65
0
LINE
8
0
10
259.4125
20
-50.65
11
259.4125
21
-63.65
0
ARC
8
0
10
245.9125
20
-50.65
40
0.5
50
90
51
180
0
ARC
8
0
10
258.9125
20
-50.65
40
0.5
50
0
51
90
0
ARC
8
0
10
245.9125
20
-63.65
40
0.5
50
180
51
270
0
ARC
8
0
10
258.9125
20
-63.65
40
0.5
50
270
51
0
0
LINE
8
0
10
264.9625
20
-50.15
11
277.9625
21
-50.15
0
LINE
8
0
10
264.9625
20
-64.15
11
277.9625
21
-64.15
0
LINE
8
0
10
264.4625
20
-50.65
11
264.4625
21
-63.65
0
LINE
8
0
10
278.4625
20
-50.65
11
278.4625
21
-63.65
0
ARC
8
0
10
264.9625
20
-50.65
40
0.5
50
90
51
180
0
ARC
8
0
10
277.9625
20
-50.65
40
0.5
50
0
51
90
0
ARC
8
0
10
264.9625
20
-63.65
40
0.5
50
180
51
270
0
ARC
8
0
10
277.9625
20
-63.65
40
0.5
50
270
51
0
0
LINE
8
0
10
284.0125
20
-50.15
11
297.0125
21
-50.15
0
LINE
8
0
10
284.0125
20
-64.15
11
297.0125
21
-64.15
0
LINE
8
0
10
283.5125
20
-50.65
11
283.5125
21
-63.65
0
LINE
8
0
10
297.5125
20
-50.65
11
297.5125
21
-63.65
0
ARC
8
0
10
284.0125
20
-50.65
40
0.5
50
90
51
180
0
ARC
8
0
10
297.0125
20
-50.65
40
0.5
50
0
51
90
0
ARC
8
0
10
284.0125
20
-63.65
40
0.5
50
180
51
270
0
ARC
8
0
10
297.0125
20
-63.65
40
0.5
50
270
51
0
0
LINE
8
0
10
303.0625
20
-50.15
11
316.0625
21
-50.15
0
LINE
8
0
10
303.0625
20
-64.15
11
316.0625
21
-64.15
0
LINE
8
0
10
302.5625
20
-50.65
11
302.5625
21
-63.65
0
LINE
8
0
10
316.5625
20
-50.65
11
316.5625
21
-63.65
0
ARC
8
0
10
303.0625
20
-50.65
40
0.5
50
90
51
180
0
ARC
8
0
10
316.0625
20
-50.65
40
0.5
50
0
51
90
0
ARC
8
0
10
303.0625
20
-63.65
40
0.5
50
180
51
270
0
ARC
8
0
10
316.0625
20
-63.65
40
0.5
50
270
51
0
0
LINE
8
0
10
322.1125
20
-50.15
11
335.1125
21
-50.15
0
LINE
8
0
10
322.1125
20
-64.15
11
335.1125
21
-64.15
0
LINE
8
0
10
321.6125
20
-50.65
11
321.6125
21
-63.65
0
LINE
8
0
10
335.6125
20
-50.65
11
335.6125
21
-63.65
0
ARC
8
0
10
322.1125
20
-50.65
40
0.5
50
90
51
180
0
ARC
8
0
10
335.1125
20
-50.65
40
0.5
50
0
51
90
0
ARC
8
0
10
322.1125
20
-63.65
40
0.5
50
180
51
270
0
ARC
8
0
10
335.1125
20
-63.65
40
0.5
50
270
51
0
0
LINE
8
0
10
345.925
20
-50.15
11
358.925
21
-50.15
0
LINE
8
0
10
345.925
20
-64.15
11
358.925
21
-64.15
0
LINE
8
0
10
345.425
20
-50.65
11
345.425
21
-63.65
0
LINE
8
0
10
359.425
20
-50.65
11
359.425
21
-63.65
0
ARC
8
0
10
345.925
20
-50.65
40
0.5
50
90
51
180
0
ARC
8
0
10
358.925
20
-50.65
40
0.5
50
0
51
90
0
ARC
8
0
10
345.925
20
-63.65
40
0.5
50
180
51
270
0
ARC
8
0
10
358.925
20
-63.65
40
0.5
50
270
51
0
0
LINE
8
0
10
341.425
20
-50.15
11
341.925
21
-50.15
0
LINE
8
0
10
341.425
20
-64.15
11
341.925
21
-64.15
0
LINE
8
0
10
340.925
20
-50.65
11
340.925
21
-63.65
0
LINE
8
0
10
342.425
20
-50.65
11
342.425
21
-63.65
0
ARC
8
0
10
341.425
20
-50.65
40
0.5
50
90
51
180
0
ARC
8
0
10
341.925
20
-50.65
40
0.5
50
0
51
90
0
ARC
8
0
10
341.425
20
-63.65
40
0.5
50
180
51
270
0
ARC
8
0
10
341.925
20
-63.65
40
0.5
50
270
51
0
0
LINE
8
0
10
362.925
20
-50.15
11
363.425
21
-50.15
0
LINE
8
0
10
362.925
20
-64.15
11
363.425
21
-64.15
0
LINE
8
0
10
362.425
20
-50.65
11
362.425
21
-63.65
0
LINE
8
0
10
363.925
20
-50.65
11
363.925
21
-63.65
0
ARC
8
0
10
362.925
20
-50.65
40
0.5
50
90
51
180
0
ARC
8
0
10
363.425
20
-50.65
40
0.5
50
0
51
90
0
ARC
8
0
10
362.925
20
-63.65
40
0.5
50
180
51
270
0
ARC
8
0
10
363.425
20
-63.65
40
0.5
50
270
51
0
0
LINE
8
0
10
374.5
20
-50.15
11
387.5
21
-50.15
0
LINE
8
0
10
374.5
20
-64.15
11
387.5
21
-64.15
0
LINE
8
0
10
374
20
-50.65
11
374
21
-63.65
0
LINE
8
0
10
388
20
-50.65
11
388
21
-63.65
0
ARC
8
0
10
374.5
20
-50.65
40
0.5
50
90
51
180
0
ARC
8
0
10
387.5
20
-50.65
40
0.5
50
0
51
90
0
ARC
8
0
10
374.5
20
-63.65
40
0.5
50
180
51
270
0
ARC
8
0
10
387.5
20
-63.65
40
0.5
50
270
51
0
0
LINE
8
0
10
393.55
20
-50.15
11
406.55
21
-50.15
0
LINE
8
0
10
393.55
20
-64.15
11
406.55
21
-64.15
0
LINE
8
0
10
393.05
20
-50.65
11
393.05
21
-63.65
0
LINE
8
0
10
407.05
20
-50.65
11
407.05
21
-63.65
0
ARC
8
0
10
393.55
20
-50.65
40
0.5
50
90
51
180
0
ARC
8
0
10
406.55
20
-50.65
40
0.5
50
0
51
90
0
ARC
8
0
10
393.55
20
-63.65
40
0.5
50
180
51
270
0
ARC
8
0
10
406.55
20
-63.65
40
0.5
50
270
51
0
0
LINE
8
0
10
3.025
20
-69.2
11
16.025
21
-69.2
0
LINE
8
0
10
3.025
20
-83.2
11
16.025
21
-83.2
0
LINE
8
0
10
2.525
20
-69.7
11
2.525
21
-82.7
0
LINE
8
0
10
16.525
20
-69.7
11
16.525
21
-82.7
0
ARC
8
0
10
3.025
20
-69.7
40
0.5
50
90
51
180
0
ARC
8
0
10
16.025
20
-69.7
40
0.5
50
0
51
90
0
ARC
8
0
10
3.025
20
-82.7
40
0.5
50
180
51
270
0
ARC
8
0
10
16.025
20
-82.7
40
0.5
50
270
51
0
0
LINE
8
0
10
22.075
20
-69.2
11
35.075
21
-69.2
0
LINE
8
0
10
22.075
20
-83.2
11
35.075
21
-83.2
0
LINE
8
0
10
21.575
20
-69.7
11
21.575
21
-82.7
0
LINE
8
0
10
35.575
20
-69.7
11
35.575
21
-82.7
0
ARC
8
0
10
22.075
20
-69.7
40
0.5
50
90
51
180
0
ARC
8
0
10
35.075
20
-69.7
40
0.5
50
0
51
90
0
ARC
8
0
10
22.075
20
-82.7
40
0.5
50
180
51
270
0
ARC
8
0
10
35.075
20
-82.7
40
0.5
50
270
51
0
0
LINE
8
0
10
41.125
20
-69.2
11
54.125
21
-69.2
0
LINE
8
0
10
41.125
20
-83.2
11
54.125
21
-83.2
0
LINE
8
0
10
40.625
20
-69.7
11
40.625
21
-82.7
0
LINE
8
0
10
54.625
20
-69.7
11
54.625
21
-82.7
0
ARC
8
0
10
41.125
20
-69.7
40
0.5
50
90
51
180
0
ARC
8
0
10
54.125
20
-69.7
40
0.5
50
0
51
90
0
ARC
8
0
10
41.125
20
-82.7
40
0.5
50
180
51
270
0
ARC
8
0
10
54.125
20
-82.7
40
0.5
50
270
51
0
0
LINE
8
0
10
91.13125
20
-69.2
11
104.13125
21
-69.2
0
LINE
8
0
10
91.13125
20
-83.2
11
104.13125
21
-83.2
0
LINE
8
0
10
90.63125
20
-69.7
11
90.63125
21
-82.7
0
LINE
8
0
10
104.63125
20
-69.7
11
104.63125
21
-82.7
0
ARC
8
0
10
91.13125
20
-69.7
40
0.5
50
90
51
180
0
ARC
8
0
10
104.13125
20
-69.7
40
0.5
50
0
51
90
0
ARC
8
0
10
91.13125
20
-82.7
40
0.5
50
180
51
270
0
ARC
8
0
10
104.13125
20
-82.7
40
0.5
50
270
51
0
0
LINE
8
0
10
86.63125
20
-69.2
11
87.13125
21
-69.2
0
LINE
8
0
10
86.63125
20
-83.2
11
87.13125
21
-83.2
0
LINE
8
0
10
86.13125
20
-69.7
11
86.13125
21
-82.7
0
LINE
8
0
10
87.63125
20
-69.7
11
87.63125
21
-82.7
0
ARC
8
0
10
86.63125
20
-69.7
40
0.5
50
90
51
180
0
ARC
8
0
10
87.13125
20
-69.7
40
0.5
50
0
51
90
0
ARC
8
0
10
86.63125
20
-82.7
40
0.5
50
180
51
270
0
ARC
8
0
10
87.13125
20
-82.7
40
0.5
50
270
51
0
0
LINE
8
0
10
108.13125
20
-69.2
11
108.63125
21
-69.2
0
LINE
8
0
10
108.13125
20
-83.2
11
108.63125
21
-83.2
0
LINE
8
0
10
107.63125
20
-69.7
11
107.63125
21
-82.7
0
LINE
8
0
10
109.13125
20
-69.7
11
109.13125
21
-82.7
0
ARC
8
0
10
108.13125
20
-69.7
40
0.5
50
90
51
180
0
ARC
8
0
10
108.63125
20
-69.7
40
0.5
50
0
51
90
0
ARC
8
0
10
108.13125
20
-82.7
40
0.5
50
180
51
270
0
ARC
8
0
10
108.63125
20
-82.7
40
0.5
50
270
51
0
0
LINE
8
0
10
117.325
20
-69.2
11
130.325
21
-69.2
0
LINE
8
0
10
117.325
20
-83.2
11
130.325
21
-83.2
0
LINE
8
0
10
116.825
20
-69.7
11
116.825
21
-82.7
0
LINE
8
0
10
130.825
20
-69.7
11
130.825
21
-82.7
0
ARC
8
0
10
117.325
20
-69.7
40
0.5
50
90
51
180
0
ARC
8
0
10
130.325
20
-69.7
40
0.5
50
0
51
90
0
ARC
8
0
10
117.325
20
-82.7
40
0.5
50
180
51
270
0
ARC
8
0
10
130.325
20
-82.7
40
0.5
50
270
51
0
0
LINE
8
0
10
136.375
20
-69.2
11
149.375
21
-69.2
0
LINE
8
0
10
136.375
20
-83.2
11
149.375
21
-83.2
0
LINE
8
0
10
135.875
20
-69.7
11
135.875
21
-82.7
0
LINE
8
0
10
149.875
20
-69.7
11
149.875
21
-82.7
0
ARC
8
0
10
136.375
20
-69.7
40
0.5
50
90
51
180
0
ARC
8
0
10
149.375
20
-69.7
40
0.5
50
0
51
90
0
ARC
8
0
10
136.375
20
-82.7
40
0.5
50
180
51
270
0
ARC
8
0
10
149.375
20
-82.7
40
0.5
50
270
51
0
0
LINE
8
0
10
155.425
20
-69.2
11
168.425
21
-69.2
0
LINE
8
0
10
155.425
20
-83.2
11
168.425
21
-83.2
0
LINE
8
0
10
154.925
20
-69.7
11
154.925
21
-82.7
0
LINE
8
0
10
168.925
20
-69.7
11
168.925
21
-82.7
0
ARC
8
0
10
155.425
20
-69.7
40
0.5
50
90
51
180
0
ARC
8
0
10
168.425
20
-69.7
40
0.5
50
0
51
90
0
ARC
8
0
10
155.425
20
-82.7
40
0.5
50
180
51
270
0
ARC
8
0
10
168.425
20
-82.7
40
0.5
50
270
51
0
0
LINE
8
0
10
174.475
20
-69.2
11
187.475
21
-69.2
0
LINE
8
0
10
174.475
20
-83.2
11
187.475
21
-83.2
0
LINE
8
0
10
173.975
20
-69.7
11
173.975
21
-82.7
0
LINE
8
0
10
187.975
20
-69.7
11
187.975
21
-82.7
0
ARC
8
0
10
174.475
20
-69.7
40
0.5
50
90
51
180
0
ARC
8
0
10
187.475
20
-69.7
40
0.5
50
0
51
90
0
ARC
8
0
10
174.475
20
-82.7
40
0.5
50
180
51
270
0
ARC
8
0
10
187.475
20
-82.7
40
0.5
50
270
51
0
0
LINE
8
0
10
193.525
20
-69.2
11
206.525
21
-69.2
0
LINE
8
0
10
193.525
20
-83.2
11
206.525
21
-83.2
0
LINE
8
0
10
193.025
20
-69.7
11
193.025
21
-82.7
0
LINE
8
0
10
207.025
20
-69.7
11
207.025
21
-82.7
0
ARC
8
0
10
193.525
20
-69.7
40
0.5
50
90
51
180
0
ARC
8
0
10
206.525
20
-69.7
40
0.5
50
0
51
90
0
ARC
8
0
10
193.525
20
-82.7
40
0.5
50
180
51
270
0
ARC
8
0
10
206.525
20
-82.7
40
0.5
50
270
51
0
0
LINE
8
0
10
212.575
20
-69.2
11
225.575
21
-69.2
0
LINE
8
0
10
212.575
20
-83.2
11
225.575
21
-83.2
0
LINE
8
0
10
212.075
20
-69.7
11
212.075
21
-82.7
0
LINE
8
0
10
226.075
20
-69.7
11
226.075
21
-82.7
0
ARC
8
0
10
212.575
20
-69.7
40
0.5
50
90
51
180
0
ARC
8
0
10
225.575
20
-69.7
40
0.5
50
0
51
90
0
ARC
8
0
10
212.575
20
-82.7
40
0.5
50
180
51
270
0
ARC
8
0
10
225.575
20
-82.7
40
0.5
50
270
51
0
0
LINE
8
0
10
231.625
20
-69.2
11
244.625
21
-69.2
0
LINE
8
0
10
231.625
20
-83.2
11
244.625
21
-83.2
0
LINE
8
0
10
231.125
20
-69.7
11
231.125
21
-82.7
0
LINE
8
0
10
245.125
20
-69.7
11
245.125
21
-82.7
0
ARC
8
0
10
231.625
20
-69.7
40
0.5
50
90
51
180
0
ARC
8
0
10
244.625
20
-69.7
40
0.5
50
0
51
90
0
ARC
8
0
10
231.625
20
-82.7
40
0.5
50
180
51
270
0
ARC
8
0
10
244.625
20
-82.7
40
0.5
50
270
51
0
0
LINE
8
0
10
250.675
20
-69.2
11
263.675
21
-69.2
0
LINE
8
0
10
250.675
20
-83.2
11
263.675
21
-83.2
0
LINE
8
0
10
250.175
20
-69.7
11
250.175
21
-82.7
0
LINE
8
0
10
264.175
20
-69.7
11
264.175
21
-82.7
0
ARC
8
0
10
250.675
20
-69.7
40
0.5
50
90
51
180
0
ARC
8
0
10
263.675
20
-69.7
40
0.5
50
0
51
90
0
ARC
8
0
10
250.675
20
-82.7
40
0.5
50
180
51
270
0
ARC
8
0
10
263.675
20
-82.7
40
0.5
50
270
51
0
0
LINE
8
0
10
269.725
20
-69.2
11
282.725
21
-69.2
0
LINE
8
0
10
269.725
20
-83.2
11
282.725
21
-83.2
0
LINE
8
0
10
269.225
20
-69.7
11
269.225
21
-82.7
0
LINE
8
0
10
283.225
20
-69.7
11
283.225
21
-82.7
0
ARC
8
0
10
269.725
20
-69.7
40
0.5
50
90
51
180
0
ARC
8
0
10
282.725
20
-69.7
40
0.5
50
0
51
90
0
ARC
8
0
10
269.725
20
-82.7
40
0.5
50
180
51
270
0
ARC
8
0
10
282.725
20
-82.7
40
0.5
50
270
51
0
0
LINE
8
0
10
288.775
20
-69.2
11
301.775
21
-69.2
0
LINE
8
0
10
288.775
20
-83.2
11
301.775
21
-83.2
0
LINE
8
0
10
288.275
20
-69.7
11
288.275
21
-82.7
0
LINE
8
0
10
302.275
20
-69.7
11
302.275
21
-82.7
0
ARC
8
0
10
288.775
20
-69.7
40
0.5
50
90
51
180
0
ARC
8
0
10
301.775
20
-69.7
40
0.5
50
0
51
90
0
ARC
8
0
10
288.775
20
-82.7
40
0.5
50
180
51
270
0
ARC
8
0
10
301.775
20
-82.7
40
0.5
50
270
51
0
0
LINE
8
0
10
307.825
20
-69.2
11
320.825
21
-69.2
0
LINE
8
0
10
307.825
20
-83.2
11
320.825
21
-83.2
0
LINE
8
0
10
307.325
20
-69.7
11
307.325
21
-82.7
0
LINE
8
0
10
321.325
20
-69.7
11
321.325
21
-82.7
0
ARC
8
0
10
307.825
20
-69.7
40
0.5
50
90
51
180
0
ARC
8
0
10
320.825
20
-69.7
40
0.5
50
0
51
90
0
ARC
8
0
10
307.825
20
-82.7
40
0.5
50
180
51
270
0
ARC
8
0
10
320.825
20
-82.7
40
0.5
50
270
51
0
0
LINE
8
0
10
338.78125
20
-69.2
11
351.78125
21
-69.2
0
LINE
8
0
10
338.78125
20
-83.2
11
351.78125
21
-83.2
0
LINE
8
0
10
338.28125
20
-69.7
11
338.28125
21
-82.7
0
LINE
8
0
10
352.28125
20
-69.7
11
352.28125
21
-82.7
0
ARC
8
0
10
338.78125
20
-69.7
40
0.5
50
90
51
180
0
ARC
8
0
10
351.78125
20
-69.7
40
0.5
50
0
51
90
0
ARC
8
0
10
338.78125
20
-82.7
40
0.5
50
180
51
270
0
ARC
8
0
10
351.78125
20
-82.7
40
0.5
50
270
51
0
0
LINE
8
0
10
330.34325
20
-70.2
11
336.34325
21
-70.2
0
LINE
8
0
10
330.34325
20
-85.2
11
336.34325
21
-85.2
0
LINE
8
0
10
329.84325
20
-70.7
11
329.84325
21
-84.7
0
LINE
8
0
10
336.84325
20
-70.7
11
336.84325
21
-84.7
0
ARC
8
0
10
330.34325
20
-70.7
40
0.5
50
90
51
180
0
ARC
8
0
10
336.34325
20
-70.7
40
0.5
50
0
51
90
0
ARC
8
0
10
330.34325
20
-84.7
40
0.5
50
180
51
270
0
ARC
8
0
10
336.34325
20
-84.7
40
0.5
50
270
51
0
0
LINE
8
0
10
354.21925
20
-70.2
11
360.21925
21
-70.2
0
LINE
8
0
10
354.21925
20
-85.2
11
360.21925
21
-85.2
0
LINE
8
0
10
353.71925
20
-70.7
11
353.71925
21
-84.7
0
LINE
8
0
10
360.71925
20
-70.7
11
360.71925
21
-84.7
0
ARC
8
0
10
354.21925
20
-70.7
40
0.5
50
90
51
180
0
ARC
8
0
10
360.21925
20
-70.7
40
0.5
50
0
51
90
0
ARC
8
0
10
354.21925
20
-84.7
40
0.5
50
180
51
270
0
ARC
8
0
10
360.21925
20
-84.7
40
0.5
50
270
51
0
0
LINE
8
0
10
374.5
20
-69.2
11
387.5
21
-69.2
0
LINE
8
0
10
374.5
20
-83.2
11
387.5
21
-83.2
0
LINE
8
0
10
374
20
-69.7
11
374
21
-82.7
0
LINE
8
0
10
388
20
-69.7
11
388
21
-82.7
0
ARC
8
0
10
374.5
20
-69.7
40
0.5
50
90
51
180
0
ARC
8
0
10
387.5
20
-69.7
40
0.5
50
0
51
90
0
ARC
8
0
10
374.5
20
-82.7
40
0.5
50
180
51
270
0
ARC
8
0
10
387.5
20
-82.7
40
0.5
50
270
51
0
0
LINE
8
0
10
393.55
20
-69.2
11
406.55
21
-69.2
0
LINE
8
0
10
393.55
20
-83.2
11
406.55
21
-83.2
0
LINE
8
0
10
393.05
20
-69.7
11
393.05
21
-82.7
0
LINE
8
0
10
407.05
20
-69.7
11
407.05
21
-82.7
0
ARC
8
0
10
393.55
20
-69.7
40
0.5
50
90
51
180
0
ARC
8
0
10
406.55
20
-69.7
40
0.5
50
0
51
90
0
ARC
8
0
10
393.55
20
-82.7
40
0.5
50
180
51
270
0
ARC
8
0
10
406.55
20
-82.7
40
0.5
50
270
51
0
0
LINE
8
0
10
3.025
20
-88.25
11
16.025
21
-88.25
0
LINE
8
0
10
3.025
20
-102.25
11
16.025
21
-102.25
0
LINE
8
0
10
2.525
20
-88.75
11
2.525
21
-101.75
0
LINE
8
0
10
16.525
20
-88.75
11
16.525
21
-101.75
0
ARC
8
0
10
3.025
20
-88.75
40
0.5
50
90
51
180
0
ARC
8
0
10
16.025
20
-88.75
40
0.5
50
0
51
90
0
ARC
8
0
10
3.025
20
-101.75
40
0.5
50
180
51
270
0
ARC
8
0
10
16.025
20
-101.75
40
0.5
50
270
51
0
0
LINE
8
0
10
22.075
20
-88.25
11
35.075
21
-88.25
0
LINE
8
0
10
22.075
20
-102.25
11
35.075
21
-102.25
0
LINE
8
0
10
21.575
20
-88.75
11
21.575
21
-101.75
0
LINE
8
0
10
35.575
20
-88.75
11
35.575
21
-101.75
0
ARC
8
0
10
22.075
20
-88.75
40
0.5
50
90
51
180
0
ARC
8
0
10
35.075
20
-88.75
40
0.5
50
0
51
90
0
ARC
8
0
10
22.075
20
-101.75
40
0.5
50
180
51
270
0
ARC
8
0
10
35.075
20
-101.75
40
0.5
50
270
51
0
0
LINE
8
0
10
41.125
20
-88.25
11
54.125
21
-88.25
0
LINE
8
0
10
41.125
20
-102.25
11
54.125
21
-102.25
0
LINE
8
0
10
40.625
20
-88.75
11
40.625
21
-101.75
0
LINE
8
0
10
54.625
20
-88.75
11
54.625
21
-101.75
0
ARC
8
0
10
41.125
20
-88.75
40
0.5
50
90
51
180
0
ARC
8
0
10
54.125
20
-88.75
40
0.5
50
0
51
90
0
ARC
8
0
10
41.125
20
-101.75
40
0.5
50
180
51
270
0
ARC
8
0
10
54.125
20
-101.75
40
0.5
50
270
51
0
0
LINE
8
0
10
73.675
20
-98.275
11
73.675
21
-111.275
0
LINE
8
0
10
59.675
20
-98.275
11
59.675
21
-111.275
0
LINE
8
0
10
73.175
20
-97.775
11
60.175
21
-97.775
0
LINE
8
0
10
73.175
20
-111.775
11
60.175
21
-111.775
0
ARC
8
0
10
73.175
20
-98.275
40
0.5
50
0
51
90
0
ARC
8
0
10
73.175
20
-111.275
40
0.5
50
270
51
0
0
ARC
8
0
10
60.175
20
-98.275
40
0.5
50
90
51
180
0
ARC
8
0
10
60.175
20
-111.275
40
0.5
50
180
51
270
0
LINE
8
0
10
72.675
20
-89.837
11
72.675
21
-95.837
0
LINE
8
0
10
57.675
20
-89.837
11
57.675
21
-95.837
0
LINE
8
0
10
72.175
20
-89.337
11
58.175
21
-89.337
0
LINE
8
0
10
72.175
20
-96.337
11
58.175
21
-96.337
0
ARC
8
0
10
72.175
20
-89.837
40
0.5
50
0
51
90
0
ARC
8
0
10
72.175
20
-95.837
40
0.5
50
270
51
0
0
ARC
8
0
10
58.175
20
-89.837
40
0.5
50
90
51
180
0
ARC
8
0
10
58.175
20
-95.837
40
0.5
50
180
51
270
0
LINE
8
0
10
72.675
20
-113.713
11
72.675
21
-119.713
0
LINE
8
0
10
57.675
20
-113.713
11
57.675
21
-119.713
0
LINE
8
0
10
72.175
20
-113.213
11
58.175
21
-113.213
0
LINE
8
0
10
72.175
20
-120.213
11
58.175
21
-120.213
0
ARC
8
0
10
72.175
20
-113.713
40
0.5
50
0
51
90
0
ARC
8
0
10
72.175
20
-119.713
40
0.5
50
270
51
0
0
ARC
8
0
10
58.175
20
-113.713
40
0.5
50
90
51
180
0
ARC
8
0
10
58.175
20
-119.713
40
0.5
50
180
51
270
0
LINE
8
0
10
95.89375
20
-88.25
11
108.89375
21
-88.25
0
LINE
8
0
10
95.89375
20
-102.25
11
108.89375
21
-102.25
0
LINE
8
0
10
95.39375
20
-88.75
11
95.39375
21
-101.75
0
LINE
8
0
10
109.39375
20
-88.75
11
109.39375
21
-101.75
0
ARC
8
0
10
95.89375
20
-88.75
40
0.5
50
90
51
180
0
ARC
8
0
10
108.89375
20
-88.75
40
0.5
50
0
51
90
0
ARC
8
0
10
95.89375
20
-101.75
40
0.5
50
180
51
270
0
ARC
8
0
10
108.89375
20
-101.75
40
0.5
50
270
51
0
0
LINE
8
0
10
87.45575
20
-89.25
11
93.45575
21
-89.25
0
LINE
8
0
10
87.45575
20
-104.25
11
93.45575
21
-104.25
0
LINE
8
0
10
86.95575
20
-89.75
11
86.95575
21
-103.75
0
LINE
8
0
10
93.95575
20
-89.75
11
93.95575
21
-103.75
0
ARC
8
0
10
87.45575
20
-89.75
40
0.5
50
90
51
180
0
ARC
8
0
10
93.45575
20
-89.75
40
0.5
50
0
51
90
0
ARC
8
0
10
87.45575
20
-103.75
40
0.5
50
180
51
270
0
ARC
8
0
10
93.45575
20
-103.75
40
0.5
50
270
51
0
0
LINE
8
0
10
111.33175
20
-89.25
11
117.33175
21
-89.25
0
LINE
8
0
10
111.33175
20
-104.25
11
117.33175
21
-104.25
0
LINE
8
0
10
110.83175
20
-89.75
11
110.83175
21
-103.75
0
LINE
8
0
10
117.83175
20
-89.75
11
117.83175
21
-103.75
0
ARC
8
0
10
111.33175
20
-89.75
40
0.5
50
90
51
180
0
ARC
8
0
10
117.33175
20
-89.75
40
0.5
50
0
51
90
0
ARC
8
0
10
111.33175
20
-103.75
40
0.5
50
180
51
270
0
ARC
8
0
10
117.33175
20
-103.75
40
0.5
50
270
51
0
0
LINE
8
0
10
126.85
20
-88.25
11
139.85
21
-88.25
0
LINE
8
0
10
126.85
20
-102.25
11
139.85
21
-102.25
0
LINE
8
0
10
126.35
20
-88.75
11
126.35
21
-101.75
0
LINE
8
0
10
140.35
20
-88.75
11
140.35
21
-101.75
0
ARC
8
0
10
126.85
20
-88.75
40
0.5
50
90
51
180
0
ARC
8
0
10
139.85
20
-88.75
40
0.5
50
0
51
90
0
ARC
8
0
10
126.85
20
-101.75
40
0.5
50
180
51
270
0
ARC
8
0
10
139.85
20
-101.75
40
0.5
50
270
51
0
0
LINE
8
0
10
145.9
20
-88.25
11
158.9
21
-88.25
0
LINE
8
0
10
145.9
20
-102.25
11
158.9
21
-102.25
0
LINE
8
0
10
145.4
20
-88.75
11
145.4
21
-101.75
0
LINE
8
0
10
159.4
20
-88.75
11
159.4
21
-101.75
0
ARC
8
0
10
145.9
20
-88.75
40
0.5
50
90
51
180
0
ARC
8
0
10
158.9
20
-88.75
40
0.5
50
0
51
90
0
ARC
8
0
10
145.9
20
-101.75
40
0.5
50
180
51
270
0
ARC
8
0
10
158.9
20
-101.75
40
0.5
50
270
51
0
0
LINE
8
0
10
164.95
20
-88.25
11
177.95
21
-88.25
0
LINE
8
0
10
164.95
20
-102.25
11
177.95
21
-102.25
0
LINE
8
0
10
164.45
20
-88.75
11
164.45
21
-101.75
0
LINE
8
0
10
178.45
20
-88.75
11
178.45
21
-101.75
0
ARC
8
0
10
164.95
20
-88.75
40
0.5
50
90
51
180
0
ARC
8
0
10
177.95
20
-88.75
40
0.5
50
0
51
90
0
ARC
8
0
10
164.95
20
-101.75
40
0.5
50
180
51
270
0
ARC
8
0
10
177.95
20
-101.75
40
0.5
50
270
51
0
0
LINE
8
0
10
184
20
-88.25
11
197
21
-88.25
0
LINE
8
0
10
184
20
-102.25
11
197
21
-102.25
0
LINE
8
0
10
183.5
20
-88.75
11
183.5
21
-101.75
0
LINE
8
0
10
197.5
20
-88.75
11
197.5
21
-101.75
0
ARC
8
0
10
184
20
-88.75
40
0.5
50
90
51
180
0
ARC
8
0
10
197
20
-88.75
40
0.5
50
0
51
90
0
ARC
8
0
10
184
20
-101.75
40
0.5
50
180
51
270
0
ARC
8
0
10
197
20
-101.75
40
0.5
50
270
51
0
0
LINE
8
0
10
203.05
20
-88.25
11
216.05
21
-88.25
0
LINE
8
0
10
203.05
20
-102.25
11
216.05
21
-102.25
0
LINE
8
0
10
202.55
20
-88.75
11
202.55
21
-101.75
0
LINE
8
0
10
216.55
20
-88.75
11
216.55
21
-101.75
0
ARC
8
0
10
203.05
20
-88.75
40
0.5
50
90
51
180
0
ARC
8
0
10
216.05
20
-88.75
40
0.5
50
0
51
90
0
ARC
8
0
10
203.05
20
-101.75
40
0.5
50
180
51
270
0
ARC
8
0
10
216.05
20
-101.75
40
0.5
50
270
51
0
0
LINE
8
0
10
222.1
20
-88.25
11
235.1
21
-88.25
0
LINE
8
0
10
222.1
20
-102.25
11
235.1
21
-102.25
0
LINE
8
0
10
221.6
20
-88.75
11
221.6
21
-101.75
0
LINE
8
0
10
235.6
20
-88.75
11
235.6
21
-101.75
0
ARC
8
0
10
222.1
20
-88.75
40
0.5
50
90
51
180
0
ARC
8
0
10
235.1
20
-88.75
40
0.5
50
0
51
90
0
ARC
8
0
10
222.1
20
-101.75
40
0.5
50
180
51
270
0
ARC
8
0
10
235.1
20
-101.75
40
0.5
50
270
51
0
0
LINE
8
0
10
241.15
20
-88.25
11
254.15
21
-88.25
0
LINE
8
0
10
241.15
20
-102.25
11
254.15
21
-102.25
0
LINE
8
0
10
240.65
20
-88.75
11
240.65
21
-101.75
0
LINE
8
0
10
254.65
20
-88.75
11
254.65
21
-101.75
0
ARC
8
0
10
241.15
20
-88.75
40
0.5
50
90
51
180
0
ARC
8
0
10
254.15
20
-88.75
40
0.5
50
0
51
90
0
ARC
8
0
10
241.15
20
-101.75
40
0.5
50
180
51
270
0
ARC
8
0
10
254.15
20
-101.75
40
0.5
50
270
51
0
0
LINE
8
0
10
260.2
20
-88.25
11
273.2
21
-88.25
0
LINE
8
0
10
260.2
20
-102.25
11
273.2
21
-102.25
0
LINE
8
0
10
259.7
20
-88.75
11
259.7
21
-101.75
0
LINE
8
0
10
273.7
20
-88.75
11
273.7
21
-101.75
0
ARC
8
0
10
260.2
20
-88.75
40
0.5
50
90
51
180
0
ARC
8
0
10
273.2
20
-88.75
40
0.5
50
0
51
90
0
ARC
8
0
10
260.2
20
-101.75
40
0.5
50
180
51
270
0
ARC
8
0
10
273.2
20
-101.75
40
0.5
50
270
51
0
0
LINE
8
0
10
279.25
20
-88.25
11
292.25
21
-88.25
0
LINE
8
0
10
279.25
20
-102.25
11
292.25
21
-102.25
0
LINE
8
0
10
278.75
20
-88.75
11
278.75
21
-101.75
0
LINE
8
0
10
292.75
20
-88.75
11
292.75
21
-101.75
0
ARC
8
0
10
279.25
20
-88.75
40
0.5
50
90
51
180
0
ARC
8
0
10
292.25
20
-88.75
40
0.5
50
0
51
90
0
ARC
8
0
10
279.25
20
-101.75
40
0.5
50
180
51
270
0
ARC
8
0
10
292.25
20
-101.75
40
0.5
50
270
51
0
0
LINE
8
0
10
298.3
20
-88.25
11
311.3
21
-88.25
0
LINE
8
0
10
298.3
20
-102.25
11
311.3
21
-102.25
0
LINE
8
0
10
297.8
20
-88.75
11
297.8
21
-101.75
0
LINE
8
0
10
311.8
20
-88.75
11
311.8
21
-101.75
0
ARC
8
0
10
298.3
20
-88.75
40
0.5
50
90
51
180
0
ARC
8
0
10
311.3
20
-88.75
40
0.5
50
0
51
90
0
ARC
8
0
10
298.3
20
-101.75
40
0.5
50
180
51
270
0
ARC
8
0
10
311.3
20
-101.75
40
0.5
50
270
51
0
0
LINE
8
0
10
324.49375
20
-88.25
11
337.49375
21
-88.25
0
LINE
8
0
10
324.49375
20
-102.25
11
337.49375
21
-102.25
0
LINE
8
0
10
323.99375
20
-88.75
11
323.99375
21
-101.75
0
LINE
8
0
10
337.99375
20
-88.75
11
337.99375
21
-101.75
0
ARC
8
0
10
324.49375
20
-88.75
40
0.5
50
90
51
180
0
ARC
8
0
10
337.49375
20
-88.75
40
0.5
50
0
51
90
0
ARC
8
0
10
324.49375
20
-101.75
40
0.5
50
180
51
270
0
ARC
8
0
10
337.49375
20
-101.75
40
0.5
50
270
51
0
0
LINE
8
0
10
319.99375
20
-88.25
11
320.49375
21
-88.25
0
LINE
8
0
10
319.99375
20
-102.25
11
320.49375
21
-102.25
0
LINE
8
0
10
319.49375
20
-88.75
11
319.49375
21
-101.75
0
LINE
8
0
10
320.99375
20
-88.75
11
320.99375
21
-101.75
0
ARC
8
0
10
319.99375
20
-88.75
40
0.5
50
90
51
180
0
ARC
8
0
10
320.49375
20
-88.75
40
0.5
50
0
51
90
0
ARC
8
0
10
319.99375
20
-101.75
40
0.5
50
180
51
270
0
ARC
8
0
10
320.49375
20
-101.75
40
0.5
50
270
51
0
0
LINE
8
0
10
341.49375
20
-88.25
11
341.99375
21
-88.25
0
LINE
8
0
10
341.49375
20
-102.25
11
341.99375
21
-102.25
0
LINE
8
0
10
340.99375
20
-88.75
11
340.99375
21
-101.75
0
LINE
8
0
10
342.49375
20
-88.75
11
342.49375
21
-101.75
0
ARC
8
0
10
341.49375
20
-88.75
40
0.5
50
90
51
180
0
ARC
8
0
10
341.99375
20
-88.75
40
0.5
50
0
51
90
0
ARC
8
0
10
341.49375
20
-101.75
40
0.5
50
180
51
270
0
ARC
8
0
10
341.99375
20
-101.75
40
0.5
50
270
51
0
0
LINE
8
0
10
355.45
20
-93.0125
11
368.45
21
-93.0125
0
LINE
8
0
10
355.45
20
-107.0125
11
368.45
21
-107.0125
0
LINE
8
0
10
354.95
20
-93.5125
11
354.95
21
-106.5125
0
LINE
8
0
10
368.95
20
-93.5125
11
368.95
21
-106.5125
0
ARC
8
0
10
355.45
20
-93.5125
40
0.5
50
90
51
180
0
ARC
8
0
10
368.45
20
-93.5125
40
0.5
50
0
51
90
0
ARC
8
0
10
355.45
20
-106.5125
40
0.5
50
180
51
270
0
ARC
8
0
10
368.45
20
-106.5125
40
0.5
50
270
51
0
0
LINE
8
0
10
12.55
20
-107.3
11
25.55
21
-107.3
0
LINE
8
0
10
12.55
20
-121.3
11
25.55
21
-121.3
0
LINE
8
0
10
12.05
20
-107.8
11
12.05
21
-120.8
0
LINE
8
0
10
26.05
20
-107.8
11
26.05
21
-120.8
0
ARC
8
0
10
12.55
20
-107.8
40
0.5
50
90
51
180
0
ARC
8
0
10
25.55
20
-107.8
40
0.5
50
0
51
90
0
ARC
8
0
10
12.55
20
-120.8
40
0.5
50
180
51
270
0
ARC
8
0
10
25.55
20
-120.8
40
0.5
50
270
51
0
0
LINE
8
0
10
4.112
20
-108.3
11
10.112
21
-108.3
0
LINE
8
0
10
4.112
20
-123.3
11
10.112
21
-123.3
0
LINE
8
0
10
3.612
20
-108.8
11
3.612
21
-122.8
0
LINE
8
0
10
10.612
20
-108.8
11
10.612
21
-122.8
0
ARC
8
0
10
4.112
20
-108.8
40
0.5
50
90
51
180
0
ARC
8
0
10
10.112
20
-108.8
40
0.5
50
0
51
90
0
ARC
8
0
10
4.112
20
-122.8
40
0.5
50
180
51
270
0
ARC
8
0
10
10.112
20
-122.8
40
0.5
50
270
51
0
0
LINE
8
0
10
27.988
20
-108.3
11
33.988
21
-108.3
0
LINE
8
0
10
27.988
20
-123.3
11
33.988
21
-123.3
0
LINE
8
0
10
27.488
20
-108.8
11
27.488
21
-122.8
0
LINE
8
0
10
34.488
20
-108.8
11
34.488
21
-122.8
0
ARC
8
0
10
27.988
20
-108.8
40
0.5
50
90
51
180
0
ARC
8
0
10
33.988
20
-108.8
40
0.5
50
0
51
90
0
ARC
8
0
10
27.988
20
-122.8
40
0.5
50
180
51
270
0
ARC
8
0
10
33.988
20
-122.8
40
0.5
50
270
51
0
0
LINE
8
0
10
41.125
20
-107.3
11
54.125
21
-107.3
0
LINE
8
0
10
41.125
20
-121.3
11
54.125
21
-121.3
0
LINE
8
0
10
40.625
20
-107.8
11
40.625
21
-120.8
0
LINE
8
0
10
54.625
20
-107.8
11
54.625
21
-120.8
0
ARC
8
0
10
41.125
20
-107.8
40
0.5
50
90
51
180
0
ARC
8
0
10
54.125
20
-107.8
40
0.5
50
0
51
90
0
ARC
8
0
10
41.125
20
-120.8
40
0.5
50
180
51
270
0
ARC
8
0
10
54.125
20
-120.8
40
0.5
50
270
51
0
0
LINE
8
0
10
86.36875
20
-107.3
11
99.36875
21
-107.3
0
LINE
8
0
10
86.36875
20
-121.3
11
99.36875
21
-121.3
0
LINE
8
0
10
85.86875
20
-107.8
11
85.86875
21
-120.8
0
LINE
8
0
10
99.86875
20
-107.8
11
99.86875
21
-120.8
0
ARC
8
0
10
86.36875
20
-107.8
40
0.5
50
90
51
180
0
ARC
8
0
10
99.36875
20
-107.8
40
0.5
50
0
51
90
0
ARC
8
0
10
86.36875
20
-120.8
40
0.5
50
180
51
270
0
ARC
8
0
10
99.36875
20
-120.8
40
0.5
50
270
51
0
0
LINE
8
0
10
110.18125
20
-107.3
11
123.18125
21
-107.3
0
LINE
8
0
10
110.18125
20
-121.3
11
123.18125
21
-121.3
0
LINE
8
0
10
109.68125
20
-107.8
11
109.68125
21
-120.8
0
LINE
8
0
10
123.68125
20
-107.8
11
123.68125
21
-120.8
0
ARC
8
0
10
110.18125
20
-107.8
40
0.5
50
90
51
180
0
ARC
8
0
10
123.18125
20
-107.8
40
0.5
50
0
51
90
0
ARC
8
0
10
110.18125
20
-120.8
40
0.5
50
180
51
270
0
ARC
8
0
10
123.18125
20
-120.8
40
0.5
50
270
51
0
0
LINE
8
0
10
133.99375
20
-107.3
11
146.99375
21
-107.3
0
LINE
8
0
10
133.99375
20
-121.3
11
146.99375
21
-121.3
0
LINE
8
0
10
133.49375
20
-107.8
11
133.49375
21
-120.8
0
LINE
8
0
10
147.49375
20
-107.8
11
147.49375
21
-120.8
0
ARC
8
0
10
133.99375
20
-107.8
40
0.5
50
90
51
180
0
ARC
8
0
10
146.99375
20
-107.8
40
0.5
50
0
51
90
0
ARC
8
0
10
133.99375
20
-120.8
40
0.5
50
180
51
270
0
ARC
8
0
10
146.99375
20
-120.8
40
0.5
50
270
51
0
0
LINE
8
0
10
205.43125
20
-107.3
11
218.43125
21
-107.3
0
LINE
8
0
10
205.43125
20
-121.3
11
218.43125
21
-121.3
0
LINE
8
0
10
204.93125
20
-107.8
11
204.93125
21
-120.8
0
LINE
8
0
10
218.93125
20
-107.8
11
218.93125
21
-120.8
0
ARC
8
0
10
205.43125
20
-107.8
40
0.5
50
90
51
180
0
ARC
8
0
10
218.43125
20
-107.8
40
0.5
50
0
51
90
0
ARC
8
0
10
205.43125
20
-120.8
40
0.5
50
180
51
270
0
ARC
8
0
10
218.43125
20
-120.8
40
0.5
50
270
51
0
0
LINE
8
0
10
158.93125
20
-108.3
11
164.93125
21
-108.3
0
LINE
8
0
10
158.93125
20
-123.3
11
164.93125
21
-123.3
0
LINE
8
0
10
158.43125
20
-108.8
11
158.43125
21
-122.8
0
LINE
8
0
10
165.43125
20
-108.8
11
165.43125
21
-122.8
0
ARC
8
0
10
158.93125
20
-108.8
40
0.5
50
90
51
180
0
ARC
8
0
10
164.93125
20
-108.8
40
0.5
50
0
51
90
0
ARC
8
0
10
158.93125
20
-122.8
40
0.5
50
180
51
270
0
ARC
8
0
10
164.93125
20
-122.8
40
0.5
50
270
51
0
0
LINE
8
0
10
258.93125
20
-108.3
11
264.93125
21
-108.3
0
LINE
8
0
10
258.93125
20
-123.3
11
264.93125
21
-123.3
0
LINE
8
0
10
258.43125
20
-108.8
11
258.43125
21
-122.8
0
LINE
8
0
10
265.43125
20
-108.8
11
265.43125
21
-122.8
0
ARC
8
0
10
258.93125
20
-108.8
40
0.5
50
90
51
180
0
ARC
8
0
10
264.93125
20
-108.8
40
0.5
50
0
51
90
0
ARC
8
0
10
258.93125
20
-122.8
40
0.5
50
180
51
270
0
ARC
8
0
10
264.93125
20
-122.8
40
0.5
50
270
51
0
0
LINE
8
0
10
274.4875
20
-107.3
11
287.4875
21
-107.3
0
LINE
8
0
10
274.4875
20
-121.3
11
287.4875
21
-121.3
0
LINE
8
0
10
273.9875
20
-107.8
11
273.9875
21
-120.8
0
LINE
8
0
10
287.9875
20
-107.8
11
287.9875
21
-120.8
0
ARC
8
0
10
274.4875
20
-107.8
40
0.5
50
90
51
180
0
ARC
8
0
10
287.4875
20
-107.8
40
0.5
50
0
51
90
0
ARC
8
0
10
274.4875
20
-120.8
40
0.5
50
180
51
270
0
ARC
8
0
10
287.4875
20
-120.8
40
0.5
50
270
51
0
0
LINE
8
0
10
293.5375
20
-107.3
11
306.5375
21
-107.3
0
LINE
8
0
10
293.5375
20
-121.3
11
306.5375
21
-121.3
0
LINE
8
0
10
293.0375
20
-107.8
11
293.0375
21
-120.8
0
LINE
8
0
10
307.0375
20
-107.8
11
307.0375
21
-120.8
0
ARC
8
0
10
293.5375
20
-107.8
40
0.5
50
90
51
180
0
ARC
8
0
10
306.5375
20
-107.8
40
0.5
50
0
51
90
0
ARC
8
0
10
293.5375
20
-120.8
40
0.5
50
180
51
270
0
ARC
8
0
10
306.5375
20
-120.8
40
0.5
50
270
51
0
0
LINE
8
0
10
312.5875
20
-107.3
11
325.5875
21
-107.3
0
LINE
8
0
10
312.5875
20
-121.3
11
325.5875
21
-121.3
0
LINE
8
0
10
312.0875
20
-107.8
11
312.0875
21
-120.8
0
LINE
8
0
10
326.0875
20
-107.8
11
326.0875
21
-120.8
0
ARC
8
0
10
312.5875
20
-107.8
40
0.5
50
90
51
180
0
ARC
8
0
10
325.5875
20
-107.8
40
0.5
50
0
51
90
0
ARC
8
0
10
312.5875
20
-120.8
40
0.5
50
180
51
270
0
ARC
8
0
10
325.5875
20
-120.8
40
0.5
50
270
51
0
0
LINE
8
0
10
336.4
20
-112.0625
11
349.4
21
-112.0625
0
LINE
8
0
10
336.4
20
-126.0625
11
349.4
21
-126.0625
0
LINE
8
0
10
335.9
20
-112.5625
11
335.9
21
-125.5625
0
LINE
8
0
10
349.9
20
-112.5625
11
349.9
21
-125.5625
0
ARC
8
0
10
336.4
20
-112.5625
40
0.5
50
90
51
180
0
ARC
8
0
10
349.4
20
-112.5625
40
0.5
50
0
51
90
0
ARC
8
0
10
336.4
20
-125.5625
40
0.5
50
180
51
270
0
ARC
8
0
10
349.4
20
-125.5625
40
0.5
50
270
51
0
0
LINE
8
0
10
355.45
20
-112.0625
11
368.45
21
-112.0625
0
LINE
8
0
10
355.45
20
-126.0625
11
368.45
21
-126.0625
0
LINE
8
0
10
354.95
20
-112.5625
11
354.95
21
-125.5625
0
LINE
8
0
10
368.95
20
-112.5625
11
368.95
21
-125.5625
0
ARC
8
0
10
355.45
20
-112.5625
40
0.5
50
90
51
180
0
ARC
8
0
10
368.45
20
-112.5625
40
0.5
50
0
51
90
0
ARC
8
0
10
355.45
20
-125.5625
40
0.5
50
180
51
270
0
ARC
8
0
10
368.45
20
-125.5625
40
0.5
50
270
51
0
0
LINE
8
0
10
374.5
20
-112.0625
11
387.5
21
-112.0625
0
LINE
8
0
10
374.5
20
-126.0625
11
387.5
21
-126.0625
0
LINE
8
0
10
374
20
-112.5625
11
374
21
-125.5625
0
LINE
8
0
10
388
20
-112.5625
11
388
21
-125.5625
0
ARC
8
0
10
374.5
20
-112.5625
40
0.5
50
90
51
180
0
ARC
8
0
10
387.5
20
-112.5625
40
0.5
50
0
51
90
0
ARC
8
0
10
374.5
20
-125.5625
40
0.5
50
180
51
270
0
ARC
8
0
10
387.5
20
-125.5625
40
0.5
50
270
51
0
0
LINE
8
0
10
0
20
-128.5875
11
409.575
21
-128.5875
0
LINE
8
0
10
0
20
0
11
409.575
21
0
0
LINE
8
0
10
0
20
-128.5875
11
0
21
0
0
LINE
8
0
10
409.575
20
-128.5875
11
409.575
21
0
0
ENDSEC
0
EOF