  0
SECTION
  2
HEADER
  9
$ACADVER
  1
AC1009
  9
$FILLMODE
 70
 0
  9
$SPLFRAME
 70
 1
  9
$EXTMIN
 10
0
 20
0
 30
0.0
  9
$EXTMAX
 10
1058.33
 20
1058.33
 30
0.0
  0
ENDSEC
  0
SECTION
  2
TABLES
  0
TABLE
  2
LAYER
 70
1
  0
LAYER
  2
0
 70
     0
 62
     7
  6
CONTINUOUS
  0
ENDTAB
  0
ENDSEC
  0
SECTION
  2
ENTITIES
  0
LINE
  8
0
 62
     0
 10
0.0950846
 20
129.021
 30
0.0
 11
409.67
 21
129.021
 31
0.0
  0
LINE
  8
0
 62
     0
 10
409.67
 20
129.021
 30
0.0
 11
409.67
 21
0.434082
 31
0.0
  0
LINE
  8
0
 62
     0
 10
409.67
 20
0.434082
 30
0.0
 11
0.0950846
 21
0.434082
 31
0.0
  0
LINE
  8
0
 62
     0
 10
0.0950846
 20
0.434082
 30
0.0
 11
0.0950846
 21
129.021
 31
0.0
  0
LINE
  8
0
 62
     0
 10
335.995
 20
16.9595
 30
0.0
 11
335.995
 21
16.3601
 31
0.0
  0
LINE
  8
0
 62
     0
 10
335.995
 20
16.3601
 30
0.0
 11
335.194
 21
16.3601
 31
0.0
  0
LINE
  8
0
 62
     0
 10
335.194
 20
16.3601
 30
0.0
 11
335.194
 21
3.56087
 31
0.0
  0
LINE
  8
0
 62
     0
 10
335.194
 20
3.56087
 30
0.0
 11
335.995
 21
3.56087
 31
0.0
  0
LINE
  8
0
 62
     0
 10
335.995
 20
3.56087
 30
0.0
 11
335.995
 21
2.96003
 31
0.0
  0
LINE
  8
0
 62
     0
 10
335.995
 20
2.96003
 30
0.0
 11
349.994
 21
2.96003
 31
0.0
  0
LINE
  8
0
 62
     0
 10
349.994
 20
2.96003
 30
0.0
 11
349.994
 21
3.56087
 31
0.0
  0
LINE
  8
0
 62
     0
 10
349.994
 20
3.56087
 30
0.0
 11
350.795
 21
3.56087
 31
0.0
  0
LINE
  8
0
 62
     0
 10
350.795
 20
3.56087
 30
0.0
 11
350.795
 21
16.3601
 31
0.0
  0
LINE
  8
0
 62
     0
 10
350.795
 20
16.3601
 30
0.0
 11
349.994
 21
16.3601
 31
0.0
  0
LINE
  8
0
 62
     0
 10
349.994
 20
16.3601
 30
0.0
 11
349.994
 21
16.9595
 31
0.0
  0
LINE
  8
0
 62
     0
 10
349.994
 20
16.9595
 30
0.0
 11
335.995
 21
16.9595
 31
0.0
  0
LINE
  8
0
 62
     0
 10
355.046
 20
16.9595
 30
0.0
 11
355.046
 21
16.3601
 31
0.0
  0
LINE
  8
0
 62
     0
 10
355.046
 20
16.3601
 30
0.0
 11
354.245
 21
16.3601
 31
0.0
  0
LINE
  8
0
 62
     0
 10
354.245
 20
16.3601
 30
0.0
 11
354.245
 21
3.56087
 31
0.0
  0
LINE
  8
0
 62
     0
 10
354.245
 20
3.56087
 30
0.0
 11
355.046
 21
3.56087
 31
0.0
  0
LINE
  8
0
 62
     0
 10
355.046
 20
3.56087
 30
0.0
 11
355.046
 21
2.96003
 31
0.0
  0
LINE
  8
0
 62
     0
 10
355.046
 20
2.96003
 30
0.0
 11
369.044
 21
2.96003
 31
0.0
  0
LINE
  8
0
 62
     0
 10
369.044
 20
2.96003
 30
0.0
 11
369.044
 21
3.56087
 31
0.0
  0
LINE
  8
0
 62
     0
 10
369.044
 20
3.56087
 30
0.0
 11
369.845
 21
3.56087
 31
0.0
  0
LINE
  8
0
 62
     0
 10
369.845
 20
3.56087
 30
0.0
 11
369.845
 21
16.3601
 31
0.0
  0
LINE
  8
0
 62
     0
 10
369.845
 20
16.3601
 30
0.0
 11
369.044
 21
16.3601
 31
0.0
  0
LINE
  8
0
 62
     0
 10
369.044
 20
16.3601
 30
0.0
 11
369.044
 21
16.9595
 31
0.0
  0
LINE
  8
0
 62
     0
 10
369.044
 20
16.9595
 30
0.0
 11
355.046
 21
16.9595
 31
0.0
  0
LINE
  8
0
 62
     0
 10
374.096
 20
16.9595
 30
0.0
 11
374.096
 21
16.3601
 31
0.0
  0
LINE
  8
0
 62
     0
 10
374.096
 20
16.3601
 30
0.0
 11
373.295
 21
16.3601
 31
0.0
  0
LINE
  8
0
 62
     0
 10
373.295
 20
16.3601
 30
0.0
 11
373.295
 21
3.56087
 31
0.0
  0
LINE
  8
0
 62
     0
 10
373.295
 20
3.56087
 30
0.0
 11
374.096
 21
3.56087
 31
0.0
  0
LINE
  8
0
 62
     0
 10
374.096
 20
3.56087
 30
0.0
 11
374.096
 21
2.96003
 31
0.0
  0
LINE
  8
0
 62
     0
 10
374.096
 20
2.96003
 30
0.0
 11
388.094
 21
2.96003
 31
0.0
  0
LINE
  8
0
 62
     0
 10
388.094
 20
2.96003
 30
0.0
 11
388.094
 21
3.56087
 31
0.0
  0
LINE
  8
0
 62
     0
 10
388.094
 20
3.56087
 30
0.0
 11
388.895
 21
3.56087
 31
0.0
  0
LINE
  8
0
 62
     0
 10
388.895
 20
3.56087
 30
0.0
 11
388.895
 21
16.3601
 31
0.0
  0
LINE
  8
0
 62
     0
 10
388.895
 20
16.3601
 30
0.0
 11
388.094
 21
16.3601
 31
0.0
  0
LINE
  8
0
 62
     0
 10
388.094
 20
16.3601
 30
0.0
 11
388.094
 21
16.9595
 31
0.0
  0
LINE
  8
0
 62
     0
 10
388.094
 20
16.9595
 30
0.0
 11
374.096
 21
16.9595
 31
0.0
  0
LINE
  8
0
 62
     0
 10
12.1447
 20
21.722
 30
0.0
 11
12.1447
 21
21.1226
 31
0.0
  0
LINE
  8
0
 62
     0
 10
12.1447
 20
21.1226
 30
0.0
 11
11.344
 21
21.1226
 31
0.0
  0
LINE
  8
0
 62
     0
 10
11.344
 20
21.1226
 30
0.0
 11
11.344
 21
17.0215
 31
0.0
  0
LINE
  8
0
 62
     0
 10
11.344
 20
17.0215
 30
0.0
 11
10.6192
 21
17.0215
 31
0.0
  0
LINE
  8
0
 62
     0
 10
10.6192
 20
17.0215
 30
0.0
 11
10.6192
 21
20.2517
 31
0.0
  0
LINE
  8
0
 62
     0
 10
10.6192
 20
20.2517
 30
0.0
 11
3.86955
 21
20.2517
 31
0.0
  0
LINE
  8
0
 62
     0
 10
3.86955
 20
20.2517
 30
0.0
 11
3.86955
 21
17.0215
 31
0.0
  0
LINE
  8
0
 62
     0
 10
3.86955
 20
17.0215
 30
0.0
 11
3.04409
 21
17.0215
 31
0.0
  0
LINE
  8
0
 62
     0
 10
3.04409
 20
17.0215
 30
0.0
 11
3.04409
 21
14.2227
 31
0.0
  0
LINE
  8
0
 62
     0
 10
3.04409
 20
14.2227
 30
0.0
 11
3.86955
 21
14.2227
 31
0.0
  0
LINE
  8
0
 62
     0
 10
3.86955
 20
14.2227
 30
0.0
 11
3.86955
 21
7.95267
 31
0.0
  0
LINE
  8
0
 62
     0
 10
3.86955
 20
7.95267
 30
0.0
 11
5.59484
 21
7.95267
 31
0.0
  0
LINE
  8
0
 62
     0
 10
5.59484
 20
7.95267
 30
0.0
 11
5.59484
 21
6.75238
 31
0.0
  0
LINE
  8
0
 62
     0
 10
5.59484
 20
6.75238
 30
0.0
 11
8.89385
 21
6.75238
 31
0.0
  0
LINE
  8
0
 62
     0
 10
8.89385
 20
6.75238
 30
0.0
 11
8.89385
 21
7.95267
 31
0.0
  0
LINE
  8
0
 62
     0
 10
8.89385
 20
7.95267
 30
0.0
 11
10.6192
 21
7.95267
 31
0.0
  0
LINE
  8
0
 62
     0
 10
10.6192
 20
7.95267
 30
0.0
 11
10.6192
 21
12.4216
 31
0.0
  0
LINE
  8
0
 62
     0
 10
10.6192
 20
12.4216
 30
0.0
 11
11.344
 21
12.4216
 31
0.0
  0
LINE
  8
0
 62
     0
 10
11.344
 20
12.4216
 30
0.0
 11
11.344
 21
8.32196
 31
0.0
  0
LINE
  8
0
 62
     0
 10
11.344
 20
8.32196
 30
0.0
 11
12.1447
 21
8.32196
 31
0.0
  0
LINE
  8
0
 62
     0
 10
12.1447
 20
8.32196
 30
0.0
 11
12.1447
 21
7.72252
 31
0.0
  0
LINE
  8
0
 62
     0
 10
12.1447
 20
7.72252
 30
0.0
 11
26.1441
 21
7.72252
 31
0.0
  0
LINE
  8
0
 62
     0
 10
26.1441
 20
7.72252
 30
0.0
 11
26.1441
 21
8.32196
 31
0.0
  0
LINE
  8
0
 62
     0
 10
26.1441
 20
8.32196
 30
0.0
 11
26.9448
 21
8.32196
 31
0.0
  0
LINE
  8
0
 62
     0
 10
26.9448
 20
8.32196
 30
0.0
 11
26.9448
 21
12.4216
 31
0.0
  0
LINE
  8
0
 62
     0
 10
26.9448
 20
12.4216
 30
0.0
 11
27.6696
 21
12.4216
 31
0.0
  0
LINE
  8
0
 62
     0
 10
27.6696
 20
12.4216
 30
0.0
 11
27.6696
 21
7.95267
 31
0.0
  0
LINE
  8
0
 62
     0
 10
27.6696
 20
7.95267
 30
0.0
 11
29.3949
 21
7.95267
 31
0.0
  0
LINE
  8
0
 62
     0
 10
29.3949
 20
7.95267
 30
0.0
 11
29.3949
 21
6.75238
 31
0.0
  0
LINE
  8
0
 62
     0
 10
29.3949
 20
6.75238
 30
0.0
 11
32.694
 21
6.75238
 31
0.0
  0
LINE
  8
0
 62
     0
 10
32.694
 20
6.75238
 30
0.0
 11
32.694
 21
7.95267
 31
0.0
  0
LINE
  8
0
 62
     0
 10
32.694
 20
7.95267
 30
0.0
 11
34.4193
 21
7.95267
 31
0.0
  0
LINE
  8
0
 62
     0
 10
34.4193
 20
7.95267
 30
0.0
 11
34.4193
 21
14.2227
 31
0.0
  0
LINE
  8
0
 62
     0
 10
34.4193
 20
14.2227
 30
0.0
 11
35.2447
 21
14.2227
 31
0.0
  0
LINE
  8
0
 62
     0
 10
35.2447
 20
14.2227
 30
0.0
 11
35.2447
 21
17.0215
 31
0.0
  0
LINE
  8
0
 62
     0
 10
35.2447
 20
17.0215
 30
0.0
 11
34.4193
 21
17.0215
 31
0.0
  0
LINE
  8
0
 62
     0
 10
34.4193
 20
17.0215
 30
0.0
 11
34.4193
 21
20.2517
 31
0.0
  0
LINE
  8
0
 62
     0
 10
34.4193
 20
20.2517
 30
0.0
 11
27.6696
 21
20.2517
 31
0.0
  0
LINE
  8
0
 62
     0
 10
27.6696
 20
20.2517
 30
0.0
 11
27.6696
 21
17.0215
 31
0.0
  0
LINE
  8
0
 62
     0
 10
27.6696
 20
17.0215
 30
0.0
 11
26.9448
 21
17.0215
 31
0.0
  0
LINE
  8
0
 62
     0
 10
26.9448
 20
17.0215
 30
0.0
 11
26.9448
 21
21.1226
 31
0.0
  0
LINE
  8
0
 62
     0
 10
26.9448
 20
21.1226
 30
0.0
 11
26.1441
 21
21.1226
 31
0.0
  0
LINE
  8
0
 62
     0
 10
26.1441
 20
21.1226
 30
0.0
 11
26.1441
 21
21.722
 31
0.0
  0
LINE
  8
0
 62
     0
 10
26.1441
 20
21.722
 30
0.0
 11
12.1447
 21
21.722
 31
0.0
  0
LINE
  8
0
 62
     0
 10
205.026
 20
21.722
 30
0.0
 11
205.026
 21
21.1226
 31
0.0
  0
LINE
  8
0
 62
     0
 10
205.026
 20
21.1226
 30
0.0
 11
204.225
 21
21.1226
 31
0.0
  0
LINE
  8
0
 62
     0
 10
204.225
 20
21.1226
 30
0.0
 11
204.225
 21
17.0215
 31
0.0
  0
LINE
  8
0
 62
     0
 10
204.225
 20
17.0215
 30
0.0
 11
165.401
 21
17.0215
 31
0.0
  0
LINE
  8
0
 62
     0
 10
165.401
 20
17.0215
 30
0.0
 11
165.401
 21
20.2517
 31
0.0
  0
LINE
  8
0
 62
     0
 10
165.401
 20
20.2517
 30
0.0
 11
158.651
 21
20.2517
 31
0.0
  0
LINE
  8
0
 62
     0
 10
158.651
 20
20.2517
 30
0.0
 11
158.651
 21
17.0215
 31
0.0
  0
LINE
  8
0
 62
     0
 10
158.651
 20
17.0215
 30
0.0
 11
157.825
 21
17.0215
 31
0.0
  0
LINE
  8
0
 62
     0
 10
157.825
 20
17.0215
 30
0.0
 11
157.825
 21
14.2227
 31
0.0
  0
LINE
  8
0
 62
     0
 10
157.825
 20
14.2227
 30
0.0
 11
158.651
 21
14.2227
 31
0.0
  0
LINE
  8
0
 62
     0
 10
158.651
 20
14.2227
 30
0.0
 11
158.651
 21
7.95267
 31
0.0
  0
LINE
  8
0
 62
     0
 10
158.651
 20
7.95267
 30
0.0
 11
160.376
 21
7.95267
 31
0.0
  0
LINE
  8
0
 62
     0
 10
160.376
 20
7.95267
 30
0.0
 11
160.376
 21
6.75238
 31
0.0
  0
LINE
  8
0
 62
     0
 10
160.376
 20
6.75238
 30
0.0
 11
163.675
 21
6.75238
 31
0.0
  0
LINE
  8
0
 62
     0
 10
163.675
 20
6.75238
 30
0.0
 11
163.675
 21
7.95267
 31
0.0
  0
LINE
  8
0
 62
     0
 10
163.675
 20
7.95267
 30
0.0
 11
165.401
 21
7.95267
 31
0.0
  0
LINE
  8
0
 62
     0
 10
165.401
 20
7.95267
 30
0.0
 11
165.401
 21
12.4216
 31
0.0
  0
LINE
  8
0
 62
     0
 10
165.401
 20
12.4216
 30
0.0
 11
204.225
 21
12.4216
 31
0.0
  0
LINE
  8
0
 62
     0
 10
204.225
 20
12.4216
 30
0.0
 11
204.225
 21
8.32196
 31
0.0
  0
LINE
  8
0
 62
     0
 10
204.225
 20
8.32196
 30
0.0
 11
205.026
 21
8.32196
 31
0.0
  0
LINE
  8
0
 62
     0
 10
205.026
 20
8.32196
 30
0.0
 11
205.026
 21
7.72252
 31
0.0
  0
LINE
  8
0
 62
     0
 10
205.026
 20
7.72252
 30
0.0
 11
219.025
 21
7.72252
 31
0.0
  0
LINE
  8
0
 62
     0
 10
219.025
 20
7.72252
 30
0.0
 11
219.025
 21
8.32196
 31
0.0
  0
LINE
  8
0
 62
     0
 10
219.025
 20
8.32196
 30
0.0
 11
219.826
 21
8.32196
 31
0.0
  0
LINE
  8
0
 62
     0
 10
219.826
 20
8.32196
 30
0.0
 11
219.826
 21
12.4216
 31
0.0
  0
LINE
  8
0
 62
     0
 10
219.826
 20
12.4216
 30
0.0
 11
258.651
 21
12.4216
 31
0.0
  0
LINE
  8
0
 62
     0
 10
258.651
 20
12.4216
 30
0.0
 11
258.651
 21
7.95267
 31
0.0
  0
LINE
  8
0
 62
     0
 10
258.651
 20
7.95267
 30
0.0
 11
260.375
 21
7.95267
 31
0.0
  0
LINE
  8
0
 62
     0
 10
260.375
 20
7.95267
 30
0.0
 11
260.375
 21
6.75238
 31
0.0
  0
LINE
  8
0
 62
     0
 10
260.375
 20
6.75238
 30
0.0
 11
263.675
 21
6.75238
 31
0.0
  0
LINE
  8
0
 62
     0
 10
263.675
 20
6.75238
 30
0.0
 11
263.675
 21
7.95267
 31
0.0
  0
LINE
  8
0
 62
     0
 10
263.675
 20
7.95267
 30
0.0
 11
265.4
 21
7.95267
 31
0.0
  0
LINE
  8
0
 62
     0
 10
265.4
 20
7.95267
 30
0.0
 11
265.4
 21
14.2227
 31
0.0
  0
LINE
  8
0
 62
     0
 10
265.4
 20
14.2227
 30
0.0
 11
266.226
 21
14.2227
 31
0.0
  0
LINE
  8
0
 62
     0
 10
266.226
 20
14.2227
 30
0.0
 11
266.226
 21
17.0215
 31
0.0
  0
LINE
  8
0
 62
     0
 10
266.226
 20
17.0215
 30
0.0
 11
265.4
 21
17.0215
 31
0.0
  0
LINE
  8
0
 62
     0
 10
265.4
 20
17.0215
 30
0.0
 11
265.4
 21
20.2517
 31
0.0
  0
LINE
  8
0
 62
     0
 10
265.4
 20
20.2517
 30
0.0
 11
258.651
 21
20.2517
 31
0.0
  0
LINE
  8
0
 62
     0
 10
258.651
 20
20.2517
 30
0.0
 11
258.651
 21
17.0215
 31
0.0
  0
LINE
  8
0
 62
     0
 10
258.651
 20
17.0215
 30
0.0
 11
219.826
 21
17.0215
 31
0.0
  0
LINE
  8
0
 62
     0
 10
219.826
 20
17.0215
 30
0.0
 11
219.826
 21
21.1226
 31
0.0
  0
LINE
  8
0
 62
     0
 10
219.826
 20
21.1226
 30
0.0
 11
219.025
 21
21.1226
 31
0.0
  0
LINE
  8
0
 62
     0
 10
219.025
 20
21.1226
 30
0.0
 11
219.025
 21
21.722
 31
0.0
  0
LINE
  8
0
 62
     0
 10
219.025
 20
21.722
 30
0.0
 11
205.026
 21
21.722
 31
0.0
  0
LINE
  8
0
 62
     0
 10
40.7197
 20
21.722
 30
0.0
 11
40.7197
 21
21.1226
 31
0.0
  0
LINE
  8
0
 62
     0
 10
40.7197
 20
21.1226
 30
0.0
 11
39.9189
 21
21.1226
 31
0.0
  0
LINE
  8
0
 62
     0
 10
39.9189
 20
21.1226
 30
0.0
 11
39.9189
 21
8.32196
 31
0.0
  0
LINE
  8
0
 62
     0
 10
39.9189
 20
8.32196
 30
0.0
 11
40.7197
 21
8.32196
 31
0.0
  0
LINE
  8
0
 62
     0
 10
40.7197
 20
8.32196
 30
0.0
 11
40.7197
 21
7.72252
 31
0.0
  0
LINE
  8
0
 62
     0
 10
40.7197
 20
7.72252
 30
0.0
 11
54.719
 21
7.72252
 31
0.0
  0
LINE
  8
0
 62
     0
 10
54.719
 20
7.72252
 30
0.0
 11
54.719
 21
8.32196
 31
0.0
  0
LINE
  8
0
 62
     0
 10
54.719
 20
8.32196
 30
0.0
 11
55.5198
 21
8.32196
 31
0.0
  0
LINE
  8
0
 62
     0
 10
55.5198
 20
8.32196
 30
0.0
 11
55.5198
 21
21.1226
 31
0.0
  0
LINE
  8
0
 62
     0
 10
55.5198
 20
21.1226
 30
0.0
 11
54.719
 21
21.1226
 31
0.0
  0
LINE
  8
0
 62
     0
 10
54.719
 20
21.1226
 30
0.0
 11
54.719
 21
21.722
 31
0.0
  0
LINE
  8
0
 62
     0
 10
54.719
 20
21.722
 30
0.0
 11
40.7197
 21
21.722
 31
0.0
  0
LINE
  8
0
 62
     0
 10
85.9621
 20
21.722
 30
0.0
 11
85.9621
 21
21.1226
 31
0.0
  0
LINE
  8
0
 62
     0
 10
85.9621
 20
21.1226
 30
0.0
 11
85.1627
 21
21.1226
 31
0.0
  0
LINE
  8
0
 62
     0
 10
85.1627
 20
21.1226
 30
0.0
 11
85.1627
 21
8.32196
 31
0.0
  0
LINE
  8
0
 62
     0
 10
85.1627
 20
8.32196
 30
0.0
 11
85.9621
 21
8.32196
 31
0.0
  0
LINE
  8
0
 62
     0
 10
85.9621
 20
8.32196
 30
0.0
 11
85.9621
 21
7.72252
 31
0.0
  0
LINE
  8
0
 62
     0
 10
85.9621
 20
7.72252
 30
0.0
 11
99.9628
 21
7.72252
 31
0.0
  0
LINE
  8
0
 62
     0
 10
99.9628
 20
7.72252
 30
0.0
 11
99.9628
 21
8.32196
 31
0.0
  0
LINE
  8
0
 62
     0
 10
99.9628
 20
8.32196
 30
0.0
 11
100.762
 21
8.32196
 31
0.0
  0
LINE
  8
0
 62
     0
 10
100.762
 20
8.32196
 30
0.0
 11
100.762
 21
21.1226
 31
0.0
  0
LINE
  8
0
 62
     0
 10
100.762
 20
21.1226
 30
0.0
 11
99.9628
 21
21.1226
 31
0.0
  0
LINE
  8
0
 62
     0
 10
99.9628
 20
21.1226
 30
0.0
 11
99.9628
 21
21.722
 31
0.0
  0
LINE
  8
0
 62
     0
 10
99.9628
 20
21.722
 30
0.0
 11
85.9621
 21
21.722
 31
0.0
  0
LINE
  8
0
 62
     0
 10
109.776
 20
21.722
 30
0.0
 11
109.776
 21
21.1226
 31
0.0
  0
LINE
  8
0
 62
     0
 10
109.776
 20
21.1226
 30
0.0
 11
108.975
 21
21.1226
 31
0.0
  0
LINE
  8
0
 62
     0
 10
108.975
 20
21.1226
 30
0.0
 11
108.975
 21
8.32196
 31
0.0
  0
LINE
  8
0
 62
     0
 10
108.975
 20
8.32196
 30
0.0
 11
109.776
 21
8.32196
 31
0.0
  0
LINE
  8
0
 62
     0
 10
109.776
 20
8.32196
 30
0.0
 11
109.776
 21
7.72252
 31
0.0
  0
LINE
  8
0
 62
     0
 10
109.776
 20
7.72252
 30
0.0
 11
123.775
 21
7.72252
 31
0.0
  0
LINE
  8
0
 62
     0
 10
123.775
 20
7.72252
 30
0.0
 11
123.775
 21
8.32196
 31
0.0
  0
LINE
  8
0
 62
     0
 10
123.775
 20
8.32196
 30
0.0
 11
124.576
 21
8.32196
 31
0.0
  0
LINE
  8
0
 62
     0
 10
124.576
 20
8.32196
 30
0.0
 11
124.576
 21
21.1226
 31
0.0
  0
LINE
  8
0
 62
     0
 10
124.576
 20
21.1226
 30
0.0
 11
123.775
 21
21.1226
 31
0.0
  0
LINE
  8
0
 62
     0
 10
123.775
 20
21.1226
 30
0.0
 11
123.775
 21
21.722
 31
0.0
  0
LINE
  8
0
 62
     0
 10
123.775
 20
21.722
 30
0.0
 11
109.776
 21
21.722
 31
0.0
  0
LINE
  8
0
 62
     0
 10
133.587
 20
21.722
 30
0.0
 11
133.587
 21
21.1226
 31
0.0
  0
LINE
  8
0
 62
     0
 10
133.587
 20
21.1226
 30
0.0
 11
132.788
 21
21.1226
 31
0.0
  0
LINE
  8
0
 62
     0
 10
132.788
 20
21.1226
 30
0.0
 11
132.788
 21
8.32196
 31
0.0
  0
LINE
  8
0
 62
     0
 10
132.788
 20
8.32196
 30
0.0
 11
133.587
 21
8.32196
 31
0.0
  0
LINE
  8
0
 62
     0
 10
133.587
 20
8.32196
 30
0.0
 11
133.587
 21
7.72252
 31
0.0
  0
LINE
  8
0
 62
     0
 10
133.587
 20
7.72252
 30
0.0
 11
147.588
 21
7.72252
 31
0.0
  0
LINE
  8
0
 62
     0
 10
147.588
 20
7.72252
 30
0.0
 11
147.588
 21
8.32196
 31
0.0
  0
LINE
  8
0
 62
     0
 10
147.588
 20
8.32196
 30
0.0
 11
148.387
 21
8.32196
 31
0.0
  0
LINE
  8
0
 62
     0
 10
148.387
 20
8.32196
 30
0.0
 11
148.387
 21
21.1226
 31
0.0
  0
LINE
  8
0
 62
     0
 10
148.387
 20
21.1226
 30
0.0
 11
147.588
 21
21.1226
 31
0.0
  0
LINE
  8
0
 62
     0
 10
147.588
 20
21.1226
 30
0.0
 11
147.588
 21
21.722
 31
0.0
  0
LINE
  8
0
 62
     0
 10
147.588
 20
21.722
 30
0.0
 11
133.587
 21
21.722
 31
0.0
  0
LINE
  8
0
 62
     0
 10
274.082
 20
21.722
 30
0.0
 11
274.082
 21
21.1226
 31
0.0
  0
LINE
  8
0
 62
     0
 10
274.082
 20
21.1226
 30
0.0
 11
273.281
 21
21.1226
 31
0.0
  0
LINE
  8
0
 62
     0
 10
273.281
 20
21.1226
 30
0.0
 11
273.281
 21
8.32196
 31
0.0
  0
LINE
  8
0
 62
     0
 10
273.281
 20
8.32196
 30
0.0
 11
274.082
 21
8.32196
 31
0.0
  0
LINE
  8
0
 62
     0
 10
274.082
 20
8.32196
 30
0.0
 11
274.082
 21
7.72252
 31
0.0
  0
LINE
  8
0
 62
     0
 10
274.082
 20
7.72252
 30
0.0
 11
288.082
 21
7.72252
 31
0.0
  0
LINE
  8
0
 62
     0
 10
288.082
 20
7.72252
 30
0.0
 11
288.082
 21
8.32196
 31
0.0
  0
LINE
  8
0
 62
     0
 10
288.082
 20
8.32196
 30
0.0
 11
288.881
 21
8.32196
 31
0.0
  0
LINE
  8
0
 62
     0
 10
288.881
 20
8.32196
 30
0.0
 11
288.881
 21
21.1226
 31
0.0
  0
LINE
  8
0
 62
     0
 10
288.881
 20
21.1226
 30
0.0
 11
288.082
 21
21.1226
 31
0.0
  0
LINE
  8
0
 62
     0
 10
288.082
 20
21.1226
 30
0.0
 11
288.082
 21
21.722
 31
0.0
  0
LINE
  8
0
 62
     0
 10
288.082
 20
21.722
 30
0.0
 11
274.082
 21
21.722
 31
0.0
  0
LINE
  8
0
 62
     0
 10
293.132
 20
21.722
 30
0.0
 11
293.132
 21
21.1226
 31
0.0
  0
LINE
  8
0
 62
     0
 10
293.132
 20
21.1226
 30
0.0
 11
292.331
 21
21.1226
 31
0.0
  0
LINE
  8
0
 62
     0
 10
292.331
 20
21.1226
 30
0.0
 11
292.331
 21
8.32196
 31
0.0
  0
LINE
  8
0
 62
     0
 10
292.331
 20
8.32196
 30
0.0
 11
293.132
 21
8.32196
 31
0.0
  0
LINE
  8
0
 62
     0
 10
293.132
 20
8.32196
 30
0.0
 11
293.132
 21
7.72252
 31
0.0
  0
LINE
  8
0
 62
     0
 10
293.132
 20
7.72252
 30
0.0
 11
307.132
 21
7.72252
 31
0.0
  0
LINE
  8
0
 62
     0
 10
307.132
 20
7.72252
 30
0.0
 11
307.132
 21
8.32196
 31
0.0
  0
LINE
  8
0
 62
     0
 10
307.132
 20
8.32196
 30
0.0
 11
307.931
 21
8.32196
 31
0.0
  0
LINE
  8
0
 62
     0
 10
307.931
 20
8.32196
 30
0.0
 11
307.931
 21
21.1226
 31
0.0
  0
LINE
  8
0
 62
     0
 10
307.931
 20
21.1226
 30
0.0
 11
307.132
 21
21.1226
 31
0.0
  0
LINE
  8
0
 62
     0
 10
307.132
 20
21.1226
 30
0.0
 11
307.132
 21
21.722
 31
0.0
  0
LINE
  8
0
 62
     0
 10
307.132
 20
21.722
 30
0.0
 11
293.132
 21
21.722
 31
0.0
  0
LINE
  8
0
 62
     0
 10
312.182
 20
21.722
 30
0.0
 11
312.182
 21
21.1226
 31
0.0
  0
LINE
  8
0
 62
     0
 10
312.182
 20
21.1226
 30
0.0
 11
311.381
 21
21.1226
 31
0.0
  0
LINE
  8
0
 62
     0
 10
311.381
 20
21.1226
 30
0.0
 11
311.381
 21
8.32196
 31
0.0
  0
LINE
  8
0
 62
     0
 10
311.381
 20
8.32196
 30
0.0
 11
312.182
 21
8.32196
 31
0.0
  0
LINE
  8
0
 62
     0
 10
312.182
 20
8.32196
 30
0.0
 11
312.182
 21
7.72252
 31
0.0
  0
LINE
  8
0
 62
     0
 10
312.182
 20
7.72252
 30
0.0
 11
326.182
 21
7.72252
 31
0.0
  0
LINE
  8
0
 62
     0
 10
326.182
 20
7.72252
 30
0.0
 11
326.182
 21
8.32196
 31
0.0
  0
LINE
  8
0
 62
     0
 10
326.182
 20
8.32196
 30
0.0
 11
326.981
 21
8.32196
 31
0.0
  0
LINE
  8
0
 62
     0
 10
326.981
 20
8.32196
 30
0.0
 11
326.981
 21
21.1226
 31
0.0
  0
LINE
  8
0
 62
     0
 10
326.981
 20
21.1226
 30
0.0
 11
326.182
 21
21.1226
 31
0.0
  0
LINE
  8
0
 62
     0
 10
326.182
 20
21.1226
 30
0.0
 11
326.182
 21
21.722
 31
0.0
  0
LINE
  8
0
 62
     0
 10
326.182
 20
21.722
 30
0.0
 11
312.182
 21
21.722
 31
0.0
  0
LINE
  8
0
 62
     0
 10
66.27
 20
40.3475
 30
0.0
 11
66.27
 21
39.522
 31
0.0
  0
LINE
  8
0
 62
     0
 10
66.27
 20
39.522
 30
0.0
 11
59.9997
 21
39.522
 31
0.0
  0
LINE
  8
0
 62
     0
 10
59.9997
 20
39.522
 30
0.0
 11
59.9997
 21
37.797
 31
0.0
  0
LINE
  8
0
 62
     0
 10
59.9997
 20
37.797
 30
0.0
 11
58.7996
 21
37.797
 31
0.0
  0
LINE
  8
0
 62
     0
 10
58.7996
 20
37.797
 30
0.0
 11
58.7996
 21
34.4978
 31
0.0
  0
LINE
  8
0
 62
     0
 10
58.7996
 20
34.4978
 30
0.0
 11
59.9997
 21
34.4978
 31
0.0
  0
LINE
  8
0
 62
     0
 10
59.9997
 20
34.4978
 30
0.0
 11
59.9997
 21
32.7725
 31
0.0
  0
LINE
  8
0
 62
     0
 10
59.9997
 20
32.7725
 30
0.0
 11
64.4701
 21
32.7725
 31
0.0
  0
LINE
  8
0
 62
     0
 10
64.4701
 20
32.7725
 30
0.0
 11
64.4701
 21
32.0477
 31
0.0
  0
LINE
  8
0
 62
     0
 10
64.4701
 20
32.0477
 30
0.0
 11
60.3691
 21
32.0477
 31
0.0
  0
LINE
  8
0
 62
     0
 10
60.3691
 20
32.0477
 30
0.0
 11
60.3691
 21
31.247
 31
0.0
  0
LINE
  8
0
 62
     0
 10
60.3691
 20
31.247
 30
0.0
 11
59.7697
 21
31.247
 31
0.0
  0
LINE
  8
0
 62
     0
 10
59.7697
 20
31.247
 30
0.0
 11
59.7697
 21
17.2475
 31
0.0
  0
LINE
  8
0
 62
     0
 10
59.7697
 20
17.2475
 30
0.0
 11
60.3691
 21
17.2475
 31
0.0
  0
LINE
  8
0
 62
     0
 10
60.3691
 20
17.2475
 30
0.0
 11
60.3691
 21
16.4469
 31
0.0
  0
LINE
  8
0
 62
     0
 10
60.3691
 20
16.4469
 30
0.0
 11
64.4701
 21
16.4469
 31
0.0
  0
LINE
  8
0
 62
     0
 10
64.4701
 20
16.4469
 30
0.0
 11
64.4701
 21
15.722
 31
0.0
  0
LINE
  8
0
 62
     0
 10
64.4701
 20
15.722
 30
0.0
 11
59.9997
 21
15.722
 31
0.0
  0
LINE
  8
0
 62
     0
 10
59.9997
 20
15.722
 30
0.0
 11
59.9997
 21
13.9967
 31
0.0
  0
LINE
  8
0
 62
     0
 10
59.9997
 20
13.9967
 30
0.0
 11
58.7996
 21
13.9967
 31
0.0
  0
LINE
  8
0
 62
     0
 10
58.7996
 20
13.9967
 30
0.0
 11
58.7996
 21
10.6977
 31
0.0
  0
LINE
  8
0
 62
     0
 10
58.7996
 20
10.6977
 30
0.0
 11
59.9997
 21
10.6977
 31
0.0
  0
LINE
  8
0
 62
     0
 10
59.9997
 20
10.6977
 30
0.0
 11
59.9997
 21
8.97241
 31
0.0
  0
LINE
  8
0
 62
     0
 10
59.9997
 20
8.97241
 30
0.0
 11
66.27
 21
8.97241
 31
0.0
  0
LINE
  8
0
 62
     0
 10
66.27
 20
8.97241
 30
0.0
 11
66.27
 21
8.14698
 31
0.0
  0
LINE
  8
0
 62
     0
 10
66.27
 20
8.14698
 30
0.0
 11
69.07
 21
8.14698
 31
0.0
  0
LINE
  8
0
 62
     0
 10
69.07
 20
8.14698
 30
0.0
 11
69.07
 21
8.97241
 31
0.0
  0
LINE
  8
0
 62
     0
 10
69.07
 20
8.97241
 30
0.0
 11
72.3
 21
8.97241
 31
0.0
  0
LINE
  8
0
 62
     0
 10
72.3
 20
8.97241
 30
0.0
 11
72.3
 21
15.722
 31
0.0
  0
LINE
  8
0
 62
     0
 10
72.3
 20
15.722
 30
0.0
 11
69.07
 21
15.722
 31
0.0
  0
LINE
  8
0
 62
     0
 10
69.07
 20
15.722
 30
0.0
 11
69.07
 21
16.4469
 31
0.0
  0
LINE
  8
0
 62
     0
 10
69.07
 20
16.4469
 30
0.0
 11
73.1696
 21
16.4469
 31
0.0
  0
LINE
  8
0
 62
     0
 10
73.1696
 20
16.4469
 30
0.0
 11
73.1696
 21
17.2475
 31
0.0
  0
LINE
  8
0
 62
     0
 10
73.1696
 20
17.2475
 30
0.0
 11
73.769
 21
17.2475
 31
0.0
  0
LINE
  8
0
 62
     0
 10
73.769
 20
17.2475
 30
0.0
 11
73.769
 21
31.247
 31
0.0
  0
LINE
  8
0
 62
     0
 10
73.769
 20
31.247
 30
0.0
 11
73.1696
 21
31.247
 31
0.0
  0
LINE
  8
0
 62
     0
 10
73.1696
 20
31.247
 30
0.0
 11
73.1696
 21
32.0477
 31
0.0
  0
LINE
  8
0
 62
     0
 10
73.1696
 20
32.0477
 30
0.0
 11
69.07
 21
32.0477
 31
0.0
  0
LINE
  8
0
 62
     0
 10
69.07
 20
32.0477
 30
0.0
 11
69.07
 21
32.7725
 31
0.0
  0
LINE
  8
0
 62
     0
 10
69.07
 20
32.7725
 30
0.0
 11
72.3
 21
32.7725
 31
0.0
  0
LINE
  8
0
 62
     0
 10
72.3
 20
32.7725
 30
0.0
 11
72.3
 21
39.522
 31
0.0
  0
LINE
  8
0
 62
     0
 10
72.3
 20
39.522
 30
0.0
 11
69.07
 21
39.522
 31
0.0
  0
LINE
  8
0
 62
     0
 10
69.07
 20
39.522
 30
0.0
 11
69.07
 21
40.3475
 31
0.0
  0
LINE
  8
0
 62
     0
 10
69.07
 20
40.3475
 30
0.0
 11
66.27
 21
40.3475
 31
0.0
  0
LINE
  8
0
 62
     0
 10
355.046
 20
36.0094
 30
0.0
 11
355.046
 21
35.4101
 31
0.0
  0
LINE
  8
0
 62
     0
 10
355.046
 20
35.4101
 30
0.0
 11
354.245
 21
35.4101
 31
0.0
  0
LINE
  8
0
 62
     0
 10
354.245
 20
35.4101
 30
0.0
 11
354.245
 21
22.6109
 31
0.0
  0
LINE
  8
0
 62
     0
 10
354.245
 20
22.6109
 30
0.0
 11
355.046
 21
22.6109
 31
0.0
  0
LINE
  8
0
 62
     0
 10
355.046
 20
22.6109
 30
0.0
 11
355.046
 21
22.01
 31
0.0
  0
LINE
  8
0
 62
     0
 10
355.046
 20
22.01
 30
0.0
 11
369.044
 21
22.01
 31
0.0
  0
LINE
  8
0
 62
     0
 10
369.044
 20
22.01
 30
0.0
 11
369.044
 21
22.6109
 31
0.0
  0
LINE
  8
0
 62
     0
 10
369.044
 20
22.6109
 30
0.0
 11
369.845
 21
22.6109
 31
0.0
  0
LINE
  8
0
 62
     0
 10
369.845
 20
22.6109
 30
0.0
 11
369.845
 21
35.4101
 31
0.0
  0
LINE
  8
0
 62
     0
 10
369.845
 20
35.4101
 30
0.0
 11
369.044
 21
35.4101
 31
0.0
  0
LINE
  8
0
 62
     0
 10
369.044
 20
35.4101
 30
0.0
 11
369.044
 21
36.0094
 31
0.0
  0
LINE
  8
0
 62
     0
 10
369.044
 20
36.0094
 30
0.0
 11
355.046
 21
36.0094
 31
0.0
  0
LINE
  8
0
 62
     0
 10
95.4871
 20
40.7719
 30
0.0
 11
95.4871
 21
40.1726
 31
0.0
  0
LINE
  8
0
 62
     0
 10
95.4871
 20
40.1726
 30
0.0
 11
94.6877
 21
40.1726
 31
0.0
  0
LINE
  8
0
 62
     0
 10
94.6877
 20
40.1726
 30
0.0
 11
94.6877
 21
36.0715
 31
0.0
  0
LINE
  8
0
 62
     0
 10
94.6877
 20
36.0715
 30
0.0
 11
93.9631
 21
36.0715
 31
0.0
  0
LINE
  8
0
 62
     0
 10
93.9631
 20
36.0715
 30
0.0
 11
93.9631
 21
39.3016
 31
0.0
  0
LINE
  8
0
 62
     0
 10
93.9631
 20
39.3016
 30
0.0
 11
87.212
 21
39.3016
 31
0.0
  0
LINE
  8
0
 62
     0
 10
87.212
 20
39.3016
 30
0.0
 11
87.212
 21
36.0715
 31
0.0
  0
LINE
  8
0
 62
     0
 10
87.212
 20
36.0715
 30
0.0
 11
86.3879
 21
36.0715
 31
0.0
  0
LINE
  8
0
 62
     0
 10
86.3879
 20
36.0715
 30
0.0
 11
86.3879
 21
33.2727
 31
0.0
  0
LINE
  8
0
 62
     0
 10
86.3879
 20
33.2727
 30
0.0
 11
87.212
 21
33.2727
 31
0.0
  0
LINE
  8
0
 62
     0
 10
87.212
 20
33.2727
 30
0.0
 11
87.212
 21
27.0027
 31
0.0
  0
LINE
  8
0
 62
     0
 10
87.212
 20
27.0027
 30
0.0
 11
88.937
 21
27.0027
 31
0.0
  0
LINE
  8
0
 62
     0
 10
88.937
 20
27.0027
 30
0.0
 11
88.937
 21
25.8024
 31
0.0
  0
LINE
  8
0
 62
     0
 10
88.937
 20
25.8024
 30
0.0
 11
92.2376
 21
25.8024
 31
0.0
  0
LINE
  8
0
 62
     0
 10
92.2376
 20
25.8024
 30
0.0
 11
92.2376
 21
27.0027
 31
0.0
  0
LINE
  8
0
 62
     0
 10
92.2376
 20
27.0027
 30
0.0
 11
93.9631
 21
27.0027
 31
0.0
  0
LINE
  8
0
 62
     0
 10
93.9631
 20
27.0027
 30
0.0
 11
93.9631
 21
31.4716
 31
0.0
  0
LINE
  8
0
 62
     0
 10
93.9631
 20
31.4716
 30
0.0
 11
94.6877
 21
31.4716
 31
0.0
  0
LINE
  8
0
 62
     0
 10
94.6877
 20
31.4716
 30
0.0
 11
94.6877
 21
27.372
 31
0.0
  0
LINE
  8
0
 62
     0
 10
94.6877
 20
27.372
 30
0.0
 11
95.4871
 21
27.372
 31
0.0
  0
LINE
  8
0
 62
     0
 10
95.4871
 20
27.372
 30
0.0
 11
95.4871
 21
26.7725
 31
0.0
  0
LINE
  8
0
 62
     0
 10
95.4871
 20
26.7725
 30
0.0
 11
109.488
 21
26.7725
 31
0.0
  0
LINE
  8
0
 62
     0
 10
109.488
 20
26.7725
 30
0.0
 11
109.488
 21
27.372
 31
0.0
  0
LINE
  8
0
 62
     0
 10
109.488
 20
27.372
 30
0.0
 11
110.287
 21
27.372
 31
0.0
  0
LINE
  8
0
 62
     0
 10
110.287
 20
27.372
 30
0.0
 11
110.287
 21
31.4716
 31
0.0
  0
LINE
  8
0
 62
     0
 10
110.287
 20
31.4716
 30
0.0
 11
111.012
 21
31.4716
 31
0.0
  0
LINE
  8
0
 62
     0
 10
111.012
 20
31.4716
 30
0.0
 11
111.012
 21
27.0027
 31
0.0
  0
LINE
  8
0
 62
     0
 10
111.012
 20
27.0027
 30
0.0
 11
112.737
 21
27.0027
 31
0.0
  0
LINE
  8
0
 62
     0
 10
112.737
 20
27.0027
 30
0.0
 11
112.737
 21
25.8024
 31
0.0
  0
LINE
  8
0
 62
     0
 10
112.737
 20
25.8024
 30
0.0
 11
116.038
 21
25.8024
 31
0.0
  0
LINE
  8
0
 62
     0
 10
116.038
 20
25.8024
 30
0.0
 11
116.038
 21
27.0027
 31
0.0
  0
LINE
  8
0
 62
     0
 10
116.038
 20
27.0027
 30
0.0
 11
117.763
 21
27.0027
 31
0.0
  0
LINE
  8
0
 62
     0
 10
117.763
 20
27.0027
 30
0.0
 11
117.763
 21
33.2727
 31
0.0
  0
LINE
  8
0
 62
     0
 10
117.763
 20
33.2727
 30
0.0
 11
118.587
 21
33.2727
 31
0.0
  0
LINE
  8
0
 62
     0
 10
118.587
 20
33.2727
 30
0.0
 11
118.587
 21
36.0715
 31
0.0
  0
LINE
  8
0
 62
     0
 10
118.587
 20
36.0715
 30
0.0
 11
117.763
 21
36.0715
 31
0.0
  0
LINE
  8
0
 62
     0
 10
117.763
 20
36.0715
 30
0.0
 11
117.763
 21
39.3016
 31
0.0
  0
LINE
  8
0
 62
     0
 10
117.763
 20
39.3016
 30
0.0
 11
111.012
 21
39.3016
 31
0.0
  0
LINE
  8
0
 62
     0
 10
111.012
 20
39.3016
 30
0.0
 11
111.012
 21
36.0715
 31
0.0
  0
LINE
  8
0
 62
     0
 10
111.012
 20
36.0715
 30
0.0
 11
110.287
 21
36.0715
 31
0.0
  0
LINE
  8
0
 62
     0
 10
110.287
 20
36.0715
 30
0.0
 11
110.287
 21
40.1726
 31
0.0
  0
LINE
  8
0
 62
     0
 10
110.287
 20
40.1726
 30
0.0
 11
109.488
 21
40.1726
 31
0.0
  0
LINE
  8
0
 62
     0
 10
109.488
 20
40.1726
 30
0.0
 11
109.488
 21
40.7719
 31
0.0
  0
LINE
  8
0
 62
     0
 10
109.488
 20
40.7719
 30
0.0
 11
95.4871
 21
40.7719
 31
0.0
  0
LINE
  8
0
 62
     0
 10
2.61965
 20
40.7719
 30
0.0
 11
2.61965
 21
40.1726
 31
0.0
  0
LINE
  8
0
 62
     0
 10
2.61965
 20
40.1726
 30
0.0
 11
1.81901
 21
40.1726
 31
0.0
  0
LINE
  8
0
 62
     0
 10
1.81901
 20
40.1726
 30
0.0
 11
1.81901
 21
27.372
 31
0.0
  0
LINE
  8
0
 62
     0
 10
1.81901
 20
27.372
 30
0.0
 11
2.61965
 21
27.372
 31
0.0
  0
LINE
  8
0
 62
     0
 10
2.61965
 20
27.372
 30
0.0
 11
2.61965
 21
26.7725
 31
0.0
  0
LINE
  8
0
 62
     0
 10
2.61965
 20
26.7725
 30
0.0
 11
16.6192
 21
26.7725
 31
0.0
  0
LINE
  8
0
 62
     0
 10
16.6192
 20
26.7725
 30
0.0
 11
16.6192
 21
27.372
 31
0.0
  0
LINE
  8
0
 62
     0
 10
16.6192
 20
27.372
 30
0.0
 11
17.4198
 21
27.372
 31
0.0
  0
LINE
  8
0
 62
     0
 10
17.4198
 20
27.372
 30
0.0
 11
17.4198
 21
40.1726
 31
0.0
  0
LINE
  8
0
 62
     0
 10
17.4198
 20
40.1726
 30
0.0
 11
16.6192
 21
40.1726
 31
0.0
  0
LINE
  8
0
 62
     0
 10
16.6192
 20
40.1726
 30
0.0
 11
16.6192
 21
40.7719
 31
0.0
  0
LINE
  8
0
 62
     0
 10
16.6192
 20
40.7719
 30
0.0
 11
2.61965
 21
40.7719
 31
0.0
  0
LINE
  8
0
 62
     0
 10
21.6697
 20
40.7719
 30
0.0
 11
21.6697
 21
40.1726
 31
0.0
  0
LINE
  8
0
 62
     0
 10
21.6697
 20
40.1726
 30
0.0
 11
20.869
 21
40.1726
 31
0.0
  0
LINE
  8
0
 62
     0
 10
20.869
 20
40.1726
 30
0.0
 11
20.869
 21
27.372
 31
0.0
  0
LINE
  8
0
 62
     0
 10
20.869
 20
27.372
 30
0.0
 11
21.6697
 21
27.372
 31
0.0
  0
LINE
  8
0
 62
     0
 10
21.6697
 20
27.372
 30
0.0
 11
21.6697
 21
26.7725
 31
0.0
  0
LINE
  8
0
 62
     0
 10
21.6697
 20
26.7725
 30
0.0
 11
35.669
 21
26.7725
 31
0.0
  0
LINE
  8
0
 62
     0
 10
35.669
 20
26.7725
 30
0.0
 11
35.669
 21
27.372
 31
0.0
  0
LINE
  8
0
 62
     0
 10
35.669
 20
27.372
 30
0.0
 11
36.4698
 21
27.372
 31
0.0
  0
LINE
  8
0
 62
     0
 10
36.4698
 20
27.372
 30
0.0
 11
36.4698
 21
40.1726
 31
0.0
  0
LINE
  8
0
 62
     0
 10
36.4698
 20
40.1726
 30
0.0
 11
35.669
 21
40.1726
 31
0.0
  0
LINE
  8
0
 62
     0
 10
35.669
 20
40.1726
 30
0.0
 11
35.669
 21
40.7719
 31
0.0
  0
LINE
  8
0
 62
     0
 10
35.669
 20
40.7719
 30
0.0
 11
21.6697
 21
40.7719
 31
0.0
  0
LINE
  8
0
 62
     0
 10
40.7197
 20
40.7719
 30
0.0
 11
40.7197
 21
40.1726
 31
0.0
  0
LINE
  8
0
 62
     0
 10
40.7197
 20
40.1726
 30
0.0
 11
39.9189
 21
40.1726
 31
0.0
  0
LINE
  8
0
 62
     0
 10
39.9189
 20
40.1726
 30
0.0
 11
39.9189
 21
27.372
 31
0.0
  0
LINE
  8
0
 62
     0
 10
39.9189
 20
27.372
 30
0.0
 11
40.7197
 21
27.372
 31
0.0
  0
LINE
  8
0
 62
     0
 10
40.7197
 20
27.372
 30
0.0
 11
40.7197
 21
26.7725
 31
0.0
  0
LINE
  8
0
 62
     0
 10
40.7197
 20
26.7725
 30
0.0
 11
54.719
 21
26.7725
 31
0.0
  0
LINE
  8
0
 62
     0
 10
54.719
 20
26.7725
 30
0.0
 11
54.719
 21
27.372
 31
0.0
  0
LINE
  8
0
 62
     0
 10
54.719
 20
27.372
 30
0.0
 11
55.5198
 21
27.372
 31
0.0
  0
LINE
  8
0
 62
     0
 10
55.5198
 20
27.372
 30
0.0
 11
55.5198
 21
40.1726
 31
0.0
  0
LINE
  8
0
 62
     0
 10
55.5198
 20
40.1726
 30
0.0
 11
54.719
 21
40.1726
 31
0.0
  0
LINE
  8
0
 62
     0
 10
54.719
 20
40.1726
 30
0.0
 11
54.719
 21
40.7719
 31
0.0
  0
LINE
  8
0
 62
     0
 10
54.719
 20
40.7719
 30
0.0
 11
40.7197
 21
40.7719
 31
0.0
  0
LINE
  8
0
 62
     0
 10
126.445
 20
40.7719
 30
0.0
 11
126.445
 21
40.1726
 31
0.0
  0
LINE
  8
0
 62
     0
 10
126.445
 20
40.1726
 30
0.0
 11
125.644
 21
40.1726
 31
0.0
  0
LINE
  8
0
 62
     0
 10
125.644
 20
40.1726
 30
0.0
 11
125.644
 21
27.372
 31
0.0
  0
LINE
  8
0
 62
     0
 10
125.644
 20
27.372
 30
0.0
 11
126.445
 21
27.372
 31
0.0
  0
LINE
  8
0
 62
     0
 10
126.445
 20
27.372
 30
0.0
 11
126.445
 21
26.7725
 31
0.0
  0
LINE
  8
0
 62
     0
 10
126.445
 20
26.7725
 30
0.0
 11
140.444
 21
26.7725
 31
0.0
  0
LINE
  8
0
 62
     0
 10
140.444
 20
26.7725
 30
0.0
 11
140.444
 21
27.372
 31
0.0
  0
LINE
  8
0
 62
     0
 10
140.444
 20
27.372
 30
0.0
 11
141.245
 21
27.372
 31
0.0
  0
LINE
  8
0
 62
     0
 10
141.245
 20
27.372
 30
0.0
 11
141.245
 21
40.1726
 31
0.0
  0
LINE
  8
0
 62
     0
 10
141.245
 20
40.1726
 30
0.0
 11
140.444
 21
40.1726
 31
0.0
  0
LINE
  8
0
 62
     0
 10
140.444
 20
40.1726
 30
0.0
 11
140.444
 21
40.7719
 31
0.0
  0
LINE
  8
0
 62
     0
 10
140.444
 20
40.7719
 30
0.0
 11
126.445
 21
40.7719
 31
0.0
  0
LINE
  8
0
 62
     0
 10
145.495
 20
40.7719
 30
0.0
 11
145.495
 21
40.1726
 31
0.0
  0
LINE
  8
0
 62
     0
 10
145.495
 20
40.1726
 30
0.0
 11
144.694
 21
40.1726
 31
0.0
  0
LINE
  8
0
 62
     0
 10
144.694
 20
40.1726
 30
0.0
 11
144.694
 21
27.372
 31
0.0
  0
LINE
  8
0
 62
     0
 10
144.694
 20
27.372
 30
0.0
 11
145.495
 21
27.372
 31
0.0
  0
LINE
  8
0
 62
     0
 10
145.495
 20
27.372
 30
0.0
 11
145.495
 21
26.7725
 31
0.0
  0
LINE
  8
0
 62
     0
 10
145.495
 20
26.7725
 30
0.0
 11
159.494
 21
26.7725
 31
0.0
  0
LINE
  8
0
 62
     0
 10
159.494
 20
26.7725
 30
0.0
 11
159.494
 21
27.372
 31
0.0
  0
LINE
  8
0
 62
     0
 10
159.494
 20
27.372
 30
0.0
 11
160.295
 21
27.372
 31
0.0
  0
LINE
  8
0
 62
     0
 10
160.295
 20
27.372
 30
0.0
 11
160.295
 21
40.1726
 31
0.0
  0
LINE
  8
0
 62
     0
 10
160.295
 20
40.1726
 30
0.0
 11
159.494
 21
40.1726
 31
0.0
  0
LINE
  8
0
 62
     0
 10
159.494
 20
40.1726
 30
0.0
 11
159.494
 21
40.7719
 31
0.0
  0
LINE
  8
0
 62
     0
 10
159.494
 20
40.7719
 30
0.0
 11
145.495
 21
40.7719
 31
0.0
  0
LINE
  8
0
 62
     0
 10
164.545
 20
40.7719
 30
0.0
 11
164.545
 21
40.1726
 31
0.0
  0
LINE
  8
0
 62
     0
 10
164.545
 20
40.1726
 30
0.0
 11
163.744
 21
40.1726
 31
0.0
  0
LINE
  8
0
 62
     0
 10
163.744
 20
40.1726
 30
0.0
 11
163.744
 21
27.372
 31
0.0
  0
LINE
  8
0
 62
     0
 10
163.744
 20
27.372
 30
0.0
 11
164.545
 21
27.372
 31
0.0
  0
LINE
  8
0
 62
     0
 10
164.545
 20
27.372
 30
0.0
 11
164.545
 21
26.7725
 31
0.0
  0
LINE
  8
0
 62
     0
 10
164.545
 20
26.7725
 30
0.0
 11
178.544
 21
26.7725
 31
0.0
  0
LINE
  8
0
 62
     0
 10
178.544
 20
26.7725
 30
0.0
 11
178.544
 21
27.372
 31
0.0
  0
LINE
  8
0
 62
     0
 10
178.544
 20
27.372
 30
0.0
 11
179.345
 21
27.372
 31
0.0
  0
LINE
  8
0
 62
     0
 10
179.345
 20
27.372
 30
0.0
 11
179.345
 21
40.1726
 31
0.0
  0
LINE
  8
0
 62
     0
 10
179.345
 20
40.1726
 30
0.0
 11
178.544
 21
40.1726
 31
0.0
  0
LINE
  8
0
 62
     0
 10
178.544
 20
40.1726
 30
0.0
 11
178.544
 21
40.7719
 31
0.0
  0
LINE
  8
0
 62
     0
 10
178.544
 20
40.7719
 30
0.0
 11
164.545
 21
40.7719
 31
0.0
  0
LINE
  8
0
 62
     0
 10
183.595
 20
40.7719
 30
0.0
 11
183.595
 21
40.1726
 31
0.0
  0
LINE
  8
0
 62
     0
 10
183.595
 20
40.1726
 30
0.0
 11
182.794
 21
40.1726
 31
0.0
  0
LINE
  8
0
 62
     0
 10
182.794
 20
40.1726
 30
0.0
 11
182.794
 21
27.372
 31
0.0
  0
LINE
  8
0
 62
     0
 10
182.794
 20
27.372
 30
0.0
 11
183.595
 21
27.372
 31
0.0
  0
LINE
  8
0
 62
     0
 10
183.595
 20
27.372
 30
0.0
 11
183.595
 21
26.7725
 31
0.0
  0
LINE
  8
0
 62
     0
 10
183.595
 20
26.7725
 30
0.0
 11
197.594
 21
26.7725
 31
0.0
  0
LINE
  8
0
 62
     0
 10
197.594
 20
26.7725
 30
0.0
 11
197.594
 21
27.372
 31
0.0
  0
LINE
  8
0
 62
     0
 10
197.594
 20
27.372
 30
0.0
 11
198.395
 21
27.372
 31
0.0
  0
LINE
  8
0
 62
     0
 10
198.395
 20
27.372
 30
0.0
 11
198.395
 21
40.1726
 31
0.0
  0
LINE
  8
0
 62
     0
 10
198.395
 20
40.1726
 30
0.0
 11
197.594
 21
40.1726
 31
0.0
  0
LINE
  8
0
 62
     0
 10
197.594
 20
40.1726
 30
0.0
 11
197.594
 21
40.7719
 31
0.0
  0
LINE
  8
0
 62
     0
 10
197.594
 20
40.7719
 30
0.0
 11
183.595
 21
40.7719
 31
0.0
  0
LINE
  8
0
 62
     0
 10
202.645
 20
40.7719
 30
0.0
 11
202.645
 21
40.1726
 31
0.0
  0
LINE
  8
0
 62
     0
 10
202.645
 20
40.1726
 30
0.0
 11
201.844
 21
40.1726
 31
0.0
  0
LINE
  8
0
 62
     0
 10
201.844
 20
40.1726
 30
0.0
 11
201.844
 21
27.372
 31
0.0
  0
LINE
  8
0
 62
     0
 10
201.844
 20
27.372
 30
0.0
 11
202.645
 21
27.372
 31
0.0
  0
LINE
  8
0
 62
     0
 10
202.645
 20
27.372
 30
0.0
 11
202.645
 21
26.7725
 31
0.0
  0
LINE
  8
0
 62
     0
 10
202.645
 20
26.7725
 30
0.0
 11
216.644
 21
26.7725
 31
0.0
  0
LINE
  8
0
 62
     0
 10
216.644
 20
26.7725
 30
0.0
 11
216.644
 21
27.372
 31
0.0
  0
LINE
  8
0
 62
     0
 10
216.644
 20
27.372
 30
0.0
 11
217.445
 21
27.372
 31
0.0
  0
LINE
  8
0
 62
     0
 10
217.445
 20
27.372
 30
0.0
 11
217.445
 21
40.1726
 31
0.0
  0
LINE
  8
0
 62
     0
 10
217.445
 20
40.1726
 30
0.0
 11
216.644
 21
40.1726
 31
0.0
  0
LINE
  8
0
 62
     0
 10
216.644
 20
40.1726
 30
0.0
 11
216.644
 21
40.7719
 31
0.0
  0
LINE
  8
0
 62
     0
 10
216.644
 20
40.7719
 30
0.0
 11
202.645
 21
40.7719
 31
0.0
  0
LINE
  8
0
 62
     0
 10
221.695
 20
40.7719
 30
0.0
 11
221.695
 21
40.1726
 31
0.0
  0
LINE
  8
0
 62
     0
 10
221.695
 20
40.1726
 30
0.0
 11
220.894
 21
40.1726
 31
0.0
  0
LINE
  8
0
 62
     0
 10
220.894
 20
40.1726
 30
0.0
 11
220.894
 21
27.372
 31
0.0
  0
LINE
  8
0
 62
     0
 10
220.894
 20
27.372
 30
0.0
 11
221.695
 21
27.372
 31
0.0
  0
LINE
  8
0
 62
     0
 10
221.695
 20
27.372
 30
0.0
 11
221.695
 21
26.7725
 31
0.0
  0
LINE
  8
0
 62
     0
 10
221.695
 20
26.7725
 30
0.0
 11
235.694
 21
26.7725
 31
0.0
  0
LINE
  8
0
 62
     0
 10
235.694
 20
26.7725
 30
0.0
 11
235.694
 21
27.372
 31
0.0
  0
LINE
  8
0
 62
     0
 10
235.694
 20
27.372
 30
0.0
 11
236.495
 21
27.372
 31
0.0
  0
LINE
  8
0
 62
     0
 10
236.495
 20
27.372
 30
0.0
 11
236.495
 21
40.1726
 31
0.0
  0
LINE
  8
0
 62
     0
 10
236.495
 20
40.1726
 30
0.0
 11
235.694
 21
40.1726
 31
0.0
  0
LINE
  8
0
 62
     0
 10
235.694
 20
40.1726
 30
0.0
 11
235.694
 21
40.7719
 31
0.0
  0
LINE
  8
0
 62
     0
 10
235.694
 20
40.7719
 30
0.0
 11
221.695
 21
40.7719
 31
0.0
  0
LINE
  8
0
 62
     0
 10
240.745
 20
40.7719
 30
0.0
 11
240.745
 21
40.1726
 31
0.0
  0
LINE
  8
0
 62
     0
 10
240.745
 20
40.1726
 30
0.0
 11
239.944
 21
40.1726
 31
0.0
  0
LINE
  8
0
 62
     0
 10
239.944
 20
40.1726
 30
0.0
 11
239.944
 21
27.372
 31
0.0
  0
LINE
  8
0
 62
     0
 10
239.944
 20
27.372
 30
0.0
 11
240.745
 21
27.372
 31
0.0
  0
LINE
  8
0
 62
     0
 10
240.745
 20
27.372
 30
0.0
 11
240.745
 21
26.7725
 31
0.0
  0
LINE
  8
0
 62
     0
 10
240.745
 20
26.7725
 30
0.0
 11
254.744
 21
26.7725
 31
0.0
  0
LINE
  8
0
 62
     0
 10
254.744
 20
26.7725
 30
0.0
 11
254.744
 21
27.372
 31
0.0
  0
LINE
  8
0
 62
     0
 10
254.744
 20
27.372
 30
0.0
 11
255.545
 21
27.372
 31
0.0
  0
LINE
  8
0
 62
     0
 10
255.545
 20
27.372
 30
0.0
 11
255.545
 21
40.1726
 31
0.0
  0
LINE
  8
0
 62
     0
 10
255.545
 20
40.1726
 30
0.0
 11
254.744
 21
40.1726
 31
0.0
  0
LINE
  8
0
 62
     0
 10
254.744
 20
40.1726
 30
0.0
 11
254.744
 21
40.7719
 31
0.0
  0
LINE
  8
0
 62
     0
 10
254.744
 20
40.7719
 30
0.0
 11
240.745
 21
40.7719
 31
0.0
  0
LINE
  8
0
 62
     0
 10
259.795
 20
40.7719
 30
0.0
 11
259.795
 21
40.1726
 31
0.0
  0
LINE
  8
0
 62
     0
 10
259.795
 20
40.1726
 30
0.0
 11
258.994
 21
40.1726
 31
0.0
  0
LINE
  8
0
 62
     0
 10
258.994
 20
40.1726
 30
0.0
 11
258.994
 21
27.372
 31
0.0
  0
LINE
  8
0
 62
     0
 10
258.994
 20
27.372
 30
0.0
 11
259.795
 21
27.372
 31
0.0
  0
LINE
  8
0
 62
     0
 10
259.795
 20
27.372
 30
0.0
 11
259.795
 21
26.7725
 31
0.0
  0
LINE
  8
0
 62
     0
 10
259.795
 20
26.7725
 30
0.0
 11
273.794
 21
26.7725
 31
0.0
  0
LINE
  8
0
 62
     0
 10
273.794
 20
26.7725
 30
0.0
 11
273.794
 21
27.372
 31
0.0
  0
LINE
  8
0
 62
     0
 10
273.794
 20
27.372
 30
0.0
 11
274.595
 21
27.372
 31
0.0
  0
LINE
  8
0
 62
     0
 10
274.595
 20
27.372
 30
0.0
 11
274.595
 21
40.1726
 31
0.0
  0
LINE
  8
0
 62
     0
 10
274.595
 20
40.1726
 30
0.0
 11
273.794
 21
40.1726
 31
0.0
  0
LINE
  8
0
 62
     0
 10
273.794
 20
40.1726
 30
0.0
 11
273.794
 21
40.7719
 31
0.0
  0
LINE
  8
0
 62
     0
 10
273.794
 20
40.7719
 30
0.0
 11
259.795
 21
40.7719
 31
0.0
  0
LINE
  8
0
 62
     0
 10
278.845
 20
40.7719
 30
0.0
 11
278.845
 21
40.1726
 31
0.0
  0
LINE
  8
0
 62
     0
 10
278.845
 20
40.1726
 30
0.0
 11
278.044
 21
40.1726
 31
0.0
  0
LINE
  8
0
 62
     0
 10
278.044
 20
40.1726
 30
0.0
 11
278.044
 21
27.372
 31
0.0
  0
LINE
  8
0
 62
     0
 10
278.044
 20
27.372
 30
0.0
 11
278.845
 21
27.372
 31
0.0
  0
LINE
  8
0
 62
     0
 10
278.845
 20
27.372
 30
0.0
 11
278.845
 21
26.7725
 31
0.0
  0
LINE
  8
0
 62
     0
 10
278.845
 20
26.7725
 30
0.0
 11
292.844
 21
26.7725
 31
0.0
  0
LINE
  8
0
 62
     0
 10
292.844
 20
26.7725
 30
0.0
 11
292.844
 21
27.372
 31
0.0
  0
LINE
  8
0
 62
     0
 10
292.844
 20
27.372
 30
0.0
 11
293.645
 21
27.372
 31
0.0
  0
LINE
  8
0
 62
     0
 10
293.645
 20
27.372
 30
0.0
 11
293.645
 21
40.1726
 31
0.0
  0
LINE
  8
0
 62
     0
 10
293.645
 20
40.1726
 30
0.0
 11
292.844
 21
40.1726
 31
0.0
  0
LINE
  8
0
 62
     0
 10
292.844
 20
40.1726
 30
0.0
 11
292.844
 21
40.7719
 31
0.0
  0
LINE
  8
0
 62
     0
 10
292.844
 20
40.7719
 30
0.0
 11
278.845
 21
40.7719
 31
0.0
  0
LINE
  8
0
 62
     0
 10
297.895
 20
40.7719
 30
0.0
 11
297.895
 21
40.1726
 31
0.0
  0
LINE
  8
0
 62
     0
 10
297.895
 20
40.1726
 30
0.0
 11
297.094
 21
40.1726
 31
0.0
  0
LINE
  8
0
 62
     0
 10
297.094
 20
40.1726
 30
0.0
 11
297.094
 21
27.372
 31
0.0
  0
LINE
  8
0
 62
     0
 10
297.094
 20
27.372
 30
0.0
 11
297.895
 21
27.372
 31
0.0
  0
LINE
  8
0
 62
     0
 10
297.895
 20
27.372
 30
0.0
 11
297.895
 21
26.7725
 31
0.0
  0
LINE
  8
0
 62
     0
 10
297.895
 20
26.7725
 30
0.0
 11
311.894
 21
26.7725
 31
0.0
  0
LINE
  8
0
 62
     0
 10
311.894
 20
26.7725
 30
0.0
 11
311.894
 21
27.372
 31
0.0
  0
LINE
  8
0
 62
     0
 10
311.894
 20
27.372
 30
0.0
 11
312.695
 21
27.372
 31
0.0
  0
LINE
  8
0
 62
     0
 10
312.695
 20
27.372
 30
0.0
 11
312.695
 21
40.1726
 31
0.0
  0
LINE
  8
0
 62
     0
 10
312.695
 20
40.1726
 30
0.0
 11
311.894
 21
40.1726
 31
0.0
  0
LINE
  8
0
 62
     0
 10
311.894
 20
40.1726
 30
0.0
 11
311.894
 21
40.7719
 31
0.0
  0
LINE
  8
0
 62
     0
 10
311.894
 20
40.7719
 30
0.0
 11
297.895
 21
40.7719
 31
0.0
  0
LINE
  8
0
 62
     0
 10
324.087
 20
40.7719
 30
0.0
 11
324.087
 21
40.1726
 31
0.0
  0
LINE
  8
0
 62
     0
 10
324.087
 20
40.1726
 30
0.0
 11
323.288
 21
40.1726
 31
0.0
  0
LINE
  8
0
 62
     0
 10
323.288
 20
40.1726
 30
0.0
 11
323.288
 21
27.372
 31
0.0
  0
LINE
  8
0
 62
     0
 10
323.288
 20
27.372
 30
0.0
 11
324.087
 21
27.372
 31
0.0
  0
LINE
  8
0
 62
     0
 10
324.087
 20
27.372
 30
0.0
 11
324.087
 21
26.7725
 31
0.0
  0
LINE
  8
0
 62
     0
 10
324.087
 20
26.7725
 30
0.0
 11
338.088
 21
26.7725
 31
0.0
  0
LINE
  8
0
 62
     0
 10
338.088
 20
26.7725
 30
0.0
 11
338.088
 21
27.372
 31
0.0
  0
LINE
  8
0
 62
     0
 10
338.088
 20
27.372
 30
0.0
 11
338.887
 21
27.372
 31
0.0
  0
LINE
  8
0
 62
     0
 10
338.887
 20
27.372
 30
0.0
 11
338.887
 21
40.1726
 31
0.0
  0
LINE
  8
0
 62
     0
 10
338.887
 20
40.1726
 30
0.0
 11
338.088
 21
40.1726
 31
0.0
  0
LINE
  8
0
 62
     0
 10
338.088
 20
40.1726
 30
0.0
 11
338.088
 21
40.7719
 31
0.0
  0
LINE
  8
0
 62
     0
 10
338.088
 20
40.7719
 30
0.0
 11
324.087
 21
40.7719
 31
0.0
  0
LINE
  8
0
 62
     0
 10
338.376
 20
59.8219
 30
0.0
 11
338.376
 21
59.2226
 31
0.0
  0
LINE
  8
0
 62
     0
 10
338.376
 20
59.2226
 30
0.0
 11
337.575
 21
59.2226
 31
0.0
  0
LINE
  8
0
 62
     0
 10
337.575
 20
59.2226
 30
0.0
 11
337.575
 21
55.1215
 31
0.0
  0
LINE
  8
0
 62
     0
 10
337.575
 20
55.1215
 30
0.0
 11
336.851
 21
55.1215
 31
0.0
  0
LINE
  8
0
 62
     0
 10
336.851
 20
55.1215
 30
0.0
 11
336.851
 21
58.3516
 31
0.0
  0
LINE
  8
0
 62
     0
 10
336.851
 20
58.3516
 30
0.0
 11
330.101
 21
58.3516
 31
0.0
  0
LINE
  8
0
 62
     0
 10
330.101
 20
58.3516
 30
0.0
 11
330.101
 21
55.1215
 31
0.0
  0
LINE
  8
0
 62
     0
 10
330.101
 20
55.1215
 30
0.0
 11
329.275
 21
55.1215
 31
0.0
  0
LINE
  8
0
 62
     0
 10
329.275
 20
55.1215
 30
0.0
 11
329.275
 21
52.3226
 31
0.0
  0
LINE
  8
0
 62
     0
 10
329.275
 20
52.3226
 30
0.0
 11
330.101
 21
52.3226
 31
0.0
  0
LINE
  8
0
 62
     0
 10
330.101
 20
52.3226
 30
0.0
 11
330.101
 21
46.0527
 31
0.0
  0
LINE
  8
0
 62
     0
 10
330.101
 20
46.0527
 30
0.0
 11
331.826
 21
46.0527
 31
0.0
  0
LINE
  8
0
 62
     0
 10
331.826
 20
46.0527
 30
0.0
 11
331.826
 21
44.8525
 31
0.0
  0
LINE
  8
0
 62
     0
 10
331.826
 20
44.8525
 30
0.0
 11
335.125
 21
44.8525
 31
0.0
  0
LINE
  8
0
 62
     0
 10
335.125
 20
44.8525
 30
0.0
 11
335.125
 21
46.0527
 31
0.0
  0
LINE
  8
0
 62
     0
 10
335.125
 20
46.0527
 30
0.0
 11
336.851
 21
46.0527
 31
0.0
  0
LINE
  8
0
 62
     0
 10
336.851
 20
46.0527
 30
0.0
 11
336.851
 21
50.5217
 31
0.0
  0
LINE
  8
0
 62
     0
 10
336.851
 20
50.5217
 30
0.0
 11
337.575
 21
50.5217
 31
0.0
  0
LINE
  8
0
 62
     0
 10
337.575
 20
50.5217
 30
0.0
 11
337.575
 21
46.422
 31
0.0
  0
LINE
  8
0
 62
     0
 10
337.575
 20
46.422
 30
0.0
 11
338.376
 21
46.422
 31
0.0
  0
LINE
  8
0
 62
     0
 10
338.376
 20
46.422
 30
0.0
 11
338.376
 21
45.8227
 31
0.0
  0
LINE
  8
0
 62
     0
 10
338.376
 20
45.8227
 30
0.0
 11
352.375
 21
45.8227
 31
0.0
  0
LINE
  8
0
 62
     0
 10
352.375
 20
45.8227
 30
0.0
 11
352.375
 21
46.422
 31
0.0
  0
LINE
  8
0
 62
     0
 10
352.375
 20
46.422
 30
0.0
 11
353.176
 21
46.422
 31
0.0
  0
LINE
  8
0
 62
     0
 10
353.176
 20
46.422
 30
0.0
 11
353.176
 21
50.5217
 31
0.0
  0
LINE
  8
0
 62
     0
 10
353.176
 20
50.5217
 30
0.0
 11
353.9
 21
50.5217
 31
0.0
  0
LINE
  8
0
 62
     0
 10
353.9
 20
50.5217
 30
0.0
 11
353.9
 21
46.0527
 31
0.0
  0
LINE
  8
0
 62
     0
 10
353.9
 20
46.0527
 30
0.0
 11
355.625
 21
46.0527
 31
0.0
  0
LINE
  8
0
 62
     0
 10
355.625
 20
46.0527
 30
0.0
 11
355.625
 21
44.8525
 31
0.0
  0
LINE
  8
0
 62
     0
 10
355.625
 20
44.8525
 30
0.0
 11
358.927
 21
44.8525
 31
0.0
  0
LINE
  8
0
 62
     0
 10
358.927
 20
44.8525
 30
0.0
 11
358.927
 21
46.0527
 31
0.0
  0
LINE
  8
0
 62
     0
 10
358.927
 20
46.0527
 30
0.0
 11
360.652
 21
46.0527
 31
0.0
  0
LINE
  8
0
 62
     0
 10
360.652
 20
46.0527
 30
0.0
 11
360.652
 21
52.3226
 31
0.0
  0
LINE
  8
0
 62
     0
 10
360.652
 20
52.3226
 30
0.0
 11
361.477
 21
52.3226
 31
0.0
  0
LINE
  8
0
 62
     0
 10
361.477
 20
52.3226
 30
0.0
 11
361.477
 21
55.1215
 31
0.0
  0
LINE
  8
0
 62
     0
 10
361.477
 20
55.1215
 30
0.0
 11
360.652
 21
55.1215
 31
0.0
  0
LINE
  8
0
 62
     0
 10
360.652
 20
55.1215
 30
0.0
 11
360.652
 21
58.3516
 31
0.0
  0
LINE
  8
0
 62
     0
 10
360.652
 20
58.3516
 30
0.0
 11
353.9
 21
58.3516
 31
0.0
  0
LINE
  8
0
 62
     0
 10
353.9
 20
58.3516
 30
0.0
 11
353.9
 21
55.1215
 31
0.0
  0
LINE
  8
0
 62
     0
 10
353.9
 20
55.1215
 30
0.0
 11
353.176
 21
55.1215
 31
0.0
  0
LINE
  8
0
 62
     0
 10
353.176
 20
55.1215
 30
0.0
 11
353.176
 21
59.2226
 31
0.0
  0
LINE
  8
0
 62
     0
 10
353.176
 20
59.2226
 30
0.0
 11
352.375
 21
59.2226
 31
0.0
  0
LINE
  8
0
 62
     0
 10
352.375
 20
59.2226
 30
0.0
 11
352.375
 21
59.8219
 31
0.0
  0
LINE
  8
0
 62
     0
 10
352.375
 20
59.8219
 30
0.0
 11
338.376
 21
59.8219
 31
0.0
  0
LINE
  8
0
 62
     0
 10
2.61965
 20
59.8219
 30
0.0
 11
2.61965
 21
59.2226
 31
0.0
  0
LINE
  8
0
 62
     0
 10
2.61965
 20
59.2226
 30
0.0
 11
1.81901
 21
59.2226
 31
0.0
  0
LINE
  8
0
 62
     0
 10
1.81901
 20
59.2226
 30
0.0
 11
1.81901
 21
46.422
 31
0.0
  0
LINE
  8
0
 62
     0
 10
1.81901
 20
46.422
 30
0.0
 11
2.61965
 21
46.422
 31
0.0
  0
LINE
  8
0
 62
     0
 10
2.61965
 20
46.422
 30
0.0
 11
2.61965
 21
45.8227
 31
0.0
  0
LINE
  8
0
 62
     0
 10
2.61965
 20
45.8227
 30
0.0
 11
16.6192
 21
45.8227
 31
0.0
  0
LINE
  8
0
 62
     0
 10
16.6192
 20
45.8227
 30
0.0
 11
16.6192
 21
46.422
 31
0.0
  0
LINE
  8
0
 62
     0
 10
16.6192
 20
46.422
 30
0.0
 11
17.4198
 21
46.422
 31
0.0
  0
LINE
  8
0
 62
     0
 10
17.4198
 20
46.422
 30
0.0
 11
17.4198
 21
59.2226
 31
0.0
  0
LINE
  8
0
 62
     0
 10
17.4198
 20
59.2226
 30
0.0
 11
16.6192
 21
59.2226
 31
0.0
  0
LINE
  8
0
 62
     0
 10
16.6192
 20
59.2226
 30
0.0
 11
16.6192
 21
59.8219
 31
0.0
  0
LINE
  8
0
 62
     0
 10
16.6192
 20
59.8219
 30
0.0
 11
2.61965
 21
59.8219
 31
0.0
  0
LINE
  8
0
 62
     0
 10
21.6697
 20
59.8219
 30
0.0
 11
21.6697
 21
59.2226
 31
0.0
  0
LINE
  8
0
 62
     0
 10
21.6697
 20
59.2226
 30
0.0
 11
20.869
 21
59.2226
 31
0.0
  0
LINE
  8
0
 62
     0
 10
20.869
 20
59.2226
 30
0.0
 11
20.869
 21
46.422
 31
0.0
  0
LINE
  8
0
 62
     0
 10
20.869
 20
46.422
 30
0.0
 11
21.6697
 21
46.422
 31
0.0
  0
LINE
  8
0
 62
     0
 10
21.6697
 20
46.422
 30
0.0
 11
21.6697
 21
45.8227
 31
0.0
  0
LINE
  8
0
 62
     0
 10
21.6697
 20
45.8227
 30
0.0
 11
35.669
 21
45.8227
 31
0.0
  0
LINE
  8
0
 62
     0
 10
35.669
 20
45.8227
 30
0.0
 11
35.669
 21
46.422
 31
0.0
  0
LINE
  8
0
 62
     0
 10
35.669
 20
46.422
 30
0.0
 11
36.4698
 21
46.422
 31
0.0
  0
LINE
  8
0
 62
     0
 10
36.4698
 20
46.422
 30
0.0
 11
36.4698
 21
59.2226
 31
0.0
  0
LINE
  8
0
 62
     0
 10
36.4698
 20
59.2226
 30
0.0
 11
35.669
 21
59.2226
 31
0.0
  0
LINE
  8
0
 62
     0
 10
35.669
 20
59.2226
 30
0.0
 11
35.669
 21
59.8219
 31
0.0
  0
LINE
  8
0
 62
     0
 10
35.669
 20
59.8219
 30
0.0
 11
21.6697
 21
59.8219
 31
0.0
  0
LINE
  8
0
 62
     0
 10
40.7197
 20
59.8219
 30
0.0
 11
40.7197
 21
59.2226
 31
0.0
  0
LINE
  8
0
 62
     0
 10
40.7197
 20
59.2226
 30
0.0
 11
39.9189
 21
59.2226
 31
0.0
  0
LINE
  8
0
 62
     0
 10
39.9189
 20
59.2226
 30
0.0
 11
39.9189
 21
46.422
 31
0.0
  0
LINE
  8
0
 62
     0
 10
39.9189
 20
46.422
 30
0.0
 11
40.7197
 21
46.422
 31
0.0
  0
LINE
  8
0
 62
     0
 10
40.7197
 20
46.422
 30
0.0
 11
40.7197
 21
45.8227
 31
0.0
  0
LINE
  8
0
 62
     0
 10
40.7197
 20
45.8227
 30
0.0
 11
54.719
 21
45.8227
 31
0.0
  0
LINE
  8
0
 62
     0
 10
54.719
 20
45.8227
 30
0.0
 11
54.719
 21
46.422
 31
0.0
  0
LINE
  8
0
 62
     0
 10
54.719
 20
46.422
 30
0.0
 11
55.5198
 21
46.422
 31
0.0
  0
LINE
  8
0
 62
     0
 10
55.5198
 20
46.422
 30
0.0
 11
55.5198
 21
59.2226
 31
0.0
  0
LINE
  8
0
 62
     0
 10
55.5198
 20
59.2226
 30
0.0
 11
54.719
 21
59.2226
 31
0.0
  0
LINE
  8
0
 62
     0
 10
54.719
 20
59.2226
 30
0.0
 11
54.719
 21
59.8219
 31
0.0
  0
LINE
  8
0
 62
     0
 10
54.719
 20
59.8219
 30
0.0
 11
40.7197
 21
59.8219
 31
0.0
  0
LINE
  8
0
 62
     0
 10
90.726
 20
59.8219
 30
0.0
 11
90.726
 21
59.2226
 31
0.0
  0
LINE
  8
0
 62
     0
 10
90.726
 20
59.2226
 30
0.0
 11
89.9252
 21
59.2226
 31
0.0
  0
LINE
  8
0
 62
     0
 10
89.9252
 20
59.2226
 30
0.0
 11
89.9252
 21
46.422
 31
0.0
  0
LINE
  8
0
 62
     0
 10
89.9252
 20
46.422
 30
0.0
 11
90.726
 21
46.422
 31
0.0
  0
LINE
  8
0
 62
     0
 10
90.726
 20
46.422
 30
0.0
 11
90.726
 21
45.8227
 31
0.0
  0
LINE
  8
0
 62
     0
 10
90.726
 20
45.8227
 30
0.0
 11
104.725
 21
45.8227
 31
0.0
  0
LINE
  8
0
 62
     0
 10
104.725
 20
45.8227
 30
0.0
 11
104.725
 21
46.422
 31
0.0
  0
LINE
  8
0
 62
     0
 10
104.725
 20
46.422
 30
0.0
 11
105.526
 21
46.422
 31
0.0
  0
LINE
  8
0
 62
     0
 10
105.526
 20
46.422
 30
0.0
 11
105.526
 21
59.2226
 31
0.0
  0
LINE
  8
0
 62
     0
 10
105.526
 20
59.2226
 30
0.0
 11
104.725
 21
59.2226
 31
0.0
  0
LINE
  8
0
 62
     0
 10
104.725
 20
59.2226
 30
0.0
 11
104.725
 21
59.8219
 31
0.0
  0
LINE
  8
0
 62
     0
 10
104.725
 20
59.8219
 30
0.0
 11
90.726
 21
59.8219
 31
0.0
  0
LINE
  8
0
 62
     0
 10
116.918
 20
59.8219
 30
0.0
 11
116.918
 21
59.2226
 31
0.0
  0
LINE
  8
0
 62
     0
 10
116.918
 20
59.2226
 30
0.0
 11
116.119
 21
59.2226
 31
0.0
  0
LINE
  8
0
 62
     0
 10
116.119
 20
59.2226
 30
0.0
 11
116.119
 21
46.422
 31
0.0
  0
LINE
  8
0
 62
     0
 10
116.119
 20
46.422
 30
0.0
 11
116.918
 21
46.422
 31
0.0
  0
LINE
  8
0
 62
     0
 10
116.918
 20
46.422
 30
0.0
 11
116.918
 21
45.8227
 31
0.0
  0
LINE
  8
0
 62
     0
 10
116.918
 20
45.8227
 30
0.0
 11
130.919
 21
45.8227
 31
0.0
  0
LINE
  8
0
 62
     0
 10
130.919
 20
45.8227
 30
0.0
 11
130.919
 21
46.422
 31
0.0
  0
LINE
  8
0
 62
     0
 10
130.919
 20
46.422
 30
0.0
 11
131.72
 21
46.422
 31
0.0
  0
LINE
  8
0
 62
     0
 10
131.72
 20
46.422
 30
0.0
 11
131.72
 21
59.2226
 31
0.0
  0
LINE
  8
0
 62
     0
 10
131.72
 20
59.2226
 30
0.0
 11
130.919
 21
59.2226
 31
0.0
  0
LINE
  8
0
 62
     0
 10
130.919
 20
59.2226
 30
0.0
 11
130.919
 21
59.8219
 31
0.0
  0
LINE
  8
0
 62
     0
 10
130.919
 20
59.8219
 30
0.0
 11
116.918
 21
59.8219
 31
0.0
  0
LINE
  8
0
 62
     0
 10
135.97
 20
59.8219
 30
0.0
 11
135.97
 21
59.2226
 31
0.0
  0
LINE
  8
0
 62
     0
 10
135.97
 20
59.2226
 30
0.0
 11
135.169
 21
59.2226
 31
0.0
  0
LINE
  8
0
 62
     0
 10
135.169
 20
59.2226
 30
0.0
 11
135.169
 21
46.422
 31
0.0
  0
LINE
  8
0
 62
     0
 10
135.169
 20
46.422
 30
0.0
 11
135.97
 21
46.422
 31
0.0
  0
LINE
  8
0
 62
     0
 10
135.97
 20
46.422
 30
0.0
 11
135.97
 21
45.8227
 31
0.0
  0
LINE
  8
0
 62
     0
 10
135.97
 20
45.8227
 30
0.0
 11
149.969
 21
45.8227
 31
0.0
  0
LINE
  8
0
 62
     0
 10
149.969
 20
45.8227
 30
0.0
 11
149.969
 21
46.422
 31
0.0
  0
LINE
  8
0
 62
     0
 10
149.969
 20
46.422
 30
0.0
 11
150.77
 21
46.422
 31
0.0
  0
LINE
  8
0
 62
     0
 10
150.77
 20
46.422
 30
0.0
 11
150.77
 21
59.2226
 31
0.0
  0
LINE
  8
0
 62
     0
 10
150.77
 20
59.2226
 30
0.0
 11
149.969
 21
59.2226
 31
0.0
  0
LINE
  8
0
 62
     0
 10
149.969
 20
59.2226
 30
0.0
 11
149.969
 21
59.8219
 31
0.0
  0
LINE
  8
0
 62
     0
 10
149.969
 20
59.8219
 30
0.0
 11
135.97
 21
59.8219
 31
0.0
  0
LINE
  8
0
 62
     0
 10
155.02
 20
59.8219
 30
0.0
 11
155.02
 21
59.2226
 31
0.0
  0
LINE
  8
0
 62
     0
 10
155.02
 20
59.2226
 30
0.0
 11
154.219
 21
59.2226
 31
0.0
  0
LINE
  8
0
 62
     0
 10
154.219
 20
59.2226
 30
0.0
 11
154.219
 21
46.422
 31
0.0
  0
LINE
  8
0
 62
     0
 10
154.219
 20
46.422
 30
0.0
 11
155.02
 21
46.422
 31
0.0
  0
LINE
  8
0
 62
     0
 10
155.02
 20
46.422
 30
0.0
 11
155.02
 21
45.8227
 31
0.0
  0
LINE
  8
0
 62
     0
 10
155.02
 20
45.8227
 30
0.0
 11
169.019
 21
45.8227
 31
0.0
  0
LINE
  8
0
 62
     0
 10
169.019
 20
45.8227
 30
0.0
 11
169.019
 21
46.422
 31
0.0
  0
LINE
  8
0
 62
     0
 10
169.019
 20
46.422
 30
0.0
 11
169.82
 21
46.422
 31
0.0
  0
LINE
  8
0
 62
     0
 10
169.82
 20
46.422
 30
0.0
 11
169.82
 21
59.2226
 31
0.0
  0
LINE
  8
0
 62
     0
 10
169.82
 20
59.2226
 30
0.0
 11
169.019
 21
59.2226
 31
0.0
  0
LINE
  8
0
 62
     0
 10
169.019
 20
59.2226
 30
0.0
 11
169.019
 21
59.8219
 31
0.0
  0
LINE
  8
0
 62
     0
 10
169.019
 20
59.8219
 30
0.0
 11
155.02
 21
59.8219
 31
0.0
  0
LINE
  8
0
 62
     0
 10
174.07
 20
59.8219
 30
0.0
 11
174.07
 21
59.2226
 31
0.0
  0
LINE
  8
0
 62
     0
 10
174.07
 20
59.2226
 30
0.0
 11
173.269
 21
59.2226
 31
0.0
  0
LINE
  8
0
 62
     0
 10
173.269
 20
59.2226
 30
0.0
 11
173.269
 21
46.422
 31
0.0
  0
LINE
  8
0
 62
     0
 10
173.269
 20
46.422
 30
0.0
 11
174.07
 21
46.422
 31
0.0
  0
LINE
  8
0
 62
     0
 10
174.07
 20
46.422
 30
0.0
 11
174.07
 21
45.8227
 31
0.0
  0
LINE
  8
0
 62
     0
 10
174.07
 20
45.8227
 30
0.0
 11
188.069
 21
45.8227
 31
0.0
  0
LINE
  8
0
 62
     0
 10
188.069
 20
45.8227
 30
0.0
 11
188.069
 21
46.422
 31
0.0
  0
LINE
  8
0
 62
     0
 10
188.069
 20
46.422
 30
0.0
 11
188.87
 21
46.422
 31
0.0
  0
LINE
  8
0
 62
     0
 10
188.87
 20
46.422
 30
0.0
 11
188.87
 21
59.2226
 31
0.0
  0
LINE
  8
0
 62
     0
 10
188.87
 20
59.2226
 30
0.0
 11
188.069
 21
59.2226
 31
0.0
  0
LINE
  8
0
 62
     0
 10
188.069
 20
59.2226
 30
0.0
 11
188.069
 21
59.8219
 31
0.0
  0
LINE
  8
0
 62
     0
 10
188.069
 20
59.8219
 30
0.0
 11
174.07
 21
59.8219
 31
0.0
  0
LINE
  8
0
 62
     0
 10
193.12
 20
59.8219
 30
0.0
 11
193.12
 21
59.2226
 31
0.0
  0
LINE
  8
0
 62
     0
 10
193.12
 20
59.2226
 30
0.0
 11
192.319
 21
59.2226
 31
0.0
  0
LINE
  8
0
 62
     0
 10
192.319
 20
59.2226
 30
0.0
 11
192.319
 21
46.422
 31
0.0
  0
LINE
  8
0
 62
     0
 10
192.319
 20
46.422
 30
0.0
 11
193.12
 21
46.422
 31
0.0
  0
LINE
  8
0
 62
     0
 10
193.12
 20
46.422
 30
0.0
 11
193.12
 21
45.8227
 31
0.0
  0
LINE
  8
0
 62
     0
 10
193.12
 20
45.8227
 30
0.0
 11
207.119
 21
45.8227
 31
0.0
  0
LINE
  8
0
 62
     0
 10
207.119
 20
45.8227
 30
0.0
 11
207.119
 21
46.422
 31
0.0
  0
LINE
  8
0
 62
     0
 10
207.119
 20
46.422
 30
0.0
 11
207.92
 21
46.422
 31
0.0
  0
LINE
  8
0
 62
     0
 10
207.92
 20
46.422
 30
0.0
 11
207.92
 21
59.2226
 31
0.0
  0
LINE
  8
0
 62
     0
 10
207.92
 20
59.2226
 30
0.0
 11
207.119
 21
59.2226
 31
0.0
  0
LINE
  8
0
 62
     0
 10
207.119
 20
59.2226
 30
0.0
 11
207.119
 21
59.8219
 31
0.0
  0
LINE
  8
0
 62
     0
 10
207.119
 20
59.8219
 30
0.0
 11
193.12
 21
59.8219
 31
0.0
  0
LINE
  8
0
 62
     0
 10
212.17
 20
59.8219
 30
0.0
 11
212.17
 21
59.2226
 31
0.0
  0
LINE
  8
0
 62
     0
 10
212.17
 20
59.2226
 30
0.0
 11
211.369
 21
59.2226
 31
0.0
  0
LINE
  8
0
 62
     0
 10
211.369
 20
59.2226
 30
0.0
 11
211.369
 21
46.422
 31
0.0
  0
LINE
  8
0
 62
     0
 10
211.369
 20
46.422
 30
0.0
 11
212.17
 21
46.422
 31
0.0
  0
LINE
  8
0
 62
     0
 10
212.17
 20
46.422
 30
0.0
 11
212.17
 21
45.8227
 31
0.0
  0
LINE
  8
0
 62
     0
 10
212.17
 20
45.8227
 30
0.0
 11
226.169
 21
45.8227
 31
0.0
  0
LINE
  8
0
 62
     0
 10
226.169
 20
45.8227
 30
0.0
 11
226.169
 21
46.422
 31
0.0
  0
LINE
  8
0
 62
     0
 10
226.169
 20
46.422
 30
0.0
 11
226.97
 21
46.422
 31
0.0
  0
LINE
  8
0
 62
     0
 10
226.97
 20
46.422
 30
0.0
 11
226.97
 21
59.2226
 31
0.0
  0
LINE
  8
0
 62
     0
 10
226.97
 20
59.2226
 30
0.0
 11
226.169
 21
59.2226
 31
0.0
  0
LINE
  8
0
 62
     0
 10
226.169
 20
59.2226
 30
0.0
 11
226.169
 21
59.8219
 31
0.0
  0
LINE
  8
0
 62
     0
 10
226.169
 20
59.8219
 30
0.0
 11
212.17
 21
59.8219
 31
0.0
  0
LINE
  8
0
 62
     0
 10
231.22
 20
59.8219
 30
0.0
 11
231.22
 21
59.2226
 31
0.0
  0
LINE
  8
0
 62
     0
 10
231.22
 20
59.2226
 30
0.0
 11
230.419
 21
59.2226
 31
0.0
  0
LINE
  8
0
 62
     0
 10
230.419
 20
59.2226
 30
0.0
 11
230.419
 21
46.422
 31
0.0
  0
LINE
  8
0
 62
     0
 10
230.419
 20
46.422
 30
0.0
 11
231.22
 21
46.422
 31
0.0
  0
LINE
  8
0
 62
     0
 10
231.22
 20
46.422
 30
0.0
 11
231.22
 21
45.8227
 31
0.0
  0
LINE
  8
0
 62
     0
 10
231.22
 20
45.8227
 30
0.0
 11
245.219
 21
45.8227
 31
0.0
  0
LINE
  8
0
 62
     0
 10
245.219
 20
45.8227
 30
0.0
 11
245.219
 21
46.422
 31
0.0
  0
LINE
  8
0
 62
     0
 10
245.219
 20
46.422
 30
0.0
 11
246.02
 21
46.422
 31
0.0
  0
LINE
  8
0
 62
     0
 10
246.02
 20
46.422
 30
0.0
 11
246.02
 21
59.2226
 31
0.0
  0
LINE
  8
0
 62
     0
 10
246.02
 20
59.2226
 30
0.0
 11
245.219
 21
59.2226
 31
0.0
  0
LINE
  8
0
 62
     0
 10
245.219
 20
59.2226
 30
0.0
 11
245.219
 21
59.8219
 31
0.0
  0
LINE
  8
0
 62
     0
 10
245.219
 20
59.8219
 30
0.0
 11
231.22
 21
59.8219
 31
0.0
  0
LINE
  8
0
 62
     0
 10
250.27
 20
59.8219
 30
0.0
 11
250.27
 21
59.2226
 31
0.0
  0
LINE
  8
0
 62
     0
 10
250.27
 20
59.2226
 30
0.0
 11
249.469
 21
59.2226
 31
0.0
  0
LINE
  8
0
 62
     0
 10
249.469
 20
59.2226
 30
0.0
 11
249.469
 21
46.422
 31
0.0
  0
LINE
  8
0
 62
     0
 10
249.469
 20
46.422
 30
0.0
 11
250.27
 21
46.422
 31
0.0
  0
LINE
  8
0
 62
     0
 10
250.27
 20
46.422
 30
0.0
 11
250.27
 21
45.8227
 31
0.0
  0
LINE
  8
0
 62
     0
 10
250.27
 20
45.8227
 30
0.0
 11
264.269
 21
45.8227
 31
0.0
  0
LINE
  8
0
 62
     0
 10
264.269
 20
45.8227
 30
0.0
 11
264.269
 21
46.422
 31
0.0
  0
LINE
  8
0
 62
     0
 10
264.269
 20
46.422
 30
0.0
 11
265.07
 21
46.422
 31
0.0
  0
LINE
  8
0
 62
     0
 10
265.07
 20
46.422
 30
0.0
 11
265.07
 21
59.2226
 31
0.0
  0
LINE
  8
0
 62
     0
 10
265.07
 20
59.2226
 30
0.0
 11
264.269
 21
59.2226
 31
0.0
  0
LINE
  8
0
 62
     0
 10
264.269
 20
59.2226
 30
0.0
 11
264.269
 21
59.8219
 31
0.0
  0
LINE
  8
0
 62
     0
 10
264.269
 20
59.8219
 30
0.0
 11
250.27
 21
59.8219
 31
0.0
  0
LINE
  8
0
 62
     0
 10
269.32
 20
59.8219
 30
0.0
 11
269.32
 21
59.2226
 31
0.0
  0
LINE
  8
0
 62
     0
 10
269.32
 20
59.2226
 30
0.0
 11
268.519
 21
59.2226
 31
0.0
  0
LINE
  8
0
 62
     0
 10
268.519
 20
59.2226
 30
0.0
 11
268.519
 21
46.422
 31
0.0
  0
LINE
  8
0
 62
     0
 10
268.519
 20
46.422
 30
0.0
 11
269.32
 21
46.422
 31
0.0
  0
LINE
  8
0
 62
     0
 10
269.32
 20
46.422
 30
0.0
 11
269.32
 21
45.8227
 31
0.0
  0
LINE
  8
0
 62
     0
 10
269.32
 20
45.8227
 30
0.0
 11
283.319
 21
45.8227
 31
0.0
  0
LINE
  8
0
 62
     0
 10
283.319
 20
45.8227
 30
0.0
 11
283.319
 21
46.422
 31
0.0
  0
LINE
  8
0
 62
     0
 10
283.319
 20
46.422
 30
0.0
 11
284.12
 21
46.422
 31
0.0
  0
LINE
  8
0
 62
     0
 10
284.12
 20
46.422
 30
0.0
 11
284.12
 21
59.2226
 31
0.0
  0
LINE
  8
0
 62
     0
 10
284.12
 20
59.2226
 30
0.0
 11
283.319
 21
59.2226
 31
0.0
  0
LINE
  8
0
 62
     0
 10
283.319
 20
59.2226
 30
0.0
 11
283.319
 21
59.8219
 31
0.0
  0
LINE
  8
0
 62
     0
 10
283.319
 20
59.8219
 30
0.0
 11
269.32
 21
59.8219
 31
0.0
  0
LINE
  8
0
 62
     0
 10
288.37
 20
59.8219
 30
0.0
 11
288.37
 21
59.2226
 31
0.0
  0
LINE
  8
0
 62
     0
 10
288.37
 20
59.2226
 30
0.0
 11
287.569
 21
59.2226
 31
0.0
  0
LINE
  8
0
 62
     0
 10
287.569
 20
59.2226
 30
0.0
 11
287.569
 21
46.422
 31
0.0
  0
LINE
  8
0
 62
     0
 10
287.569
 20
46.422
 30
0.0
 11
288.37
 21
46.422
 31
0.0
  0
LINE
  8
0
 62
     0
 10
288.37
 20
46.422
 30
0.0
 11
288.37
 21
45.8227
 31
0.0
  0
LINE
  8
0
 62
     0
 10
288.37
 20
45.8227
 30
0.0
 11
302.369
 21
45.8227
 31
0.0
  0
LINE
  8
0
 62
     0
 10
302.369
 20
45.8227
 30
0.0
 11
302.369
 21
46.422
 31
0.0
  0
LINE
  8
0
 62
     0
 10
302.369
 20
46.422
 30
0.0
 11
303.17
 21
46.422
 31
0.0
  0
LINE
  8
0
 62
     0
 10
303.17
 20
46.422
 30
0.0
 11
303.17
 21
59.2226
 31
0.0
  0
LINE
  8
0
 62
     0
 10
303.17
 20
59.2226
 30
0.0
 11
302.369
 21
59.2226
 31
0.0
  0
LINE
  8
0
 62
     0
 10
302.369
 20
59.2226
 30
0.0
 11
302.369
 21
59.8219
 31
0.0
  0
LINE
  8
0
 62
     0
 10
302.369
 20
59.8219
 30
0.0
 11
288.37
 21
59.8219
 31
0.0
  0
LINE
  8
0
 62
     0
 10
307.42
 20
59.8219
 30
0.0
 11
307.42
 21
59.2226
 31
0.0
  0
LINE
  8
0
 62
     0
 10
307.42
 20
59.2226
 30
0.0
 11
306.619
 21
59.2226
 31
0.0
  0
LINE
  8
0
 62
     0
 10
306.619
 20
59.2226
 30
0.0
 11
306.619
 21
46.422
 31
0.0
  0
LINE
  8
0
 62
     0
 10
306.619
 20
46.422
 30
0.0
 11
307.42
 21
46.422
 31
0.0
  0
LINE
  8
0
 62
     0
 10
307.42
 20
46.422
 30
0.0
 11
307.42
 21
45.8227
 31
0.0
  0
LINE
  8
0
 62
     0
 10
307.42
 20
45.8227
 30
0.0
 11
321.419
 21
45.8227
 31
0.0
  0
LINE
  8
0
 62
     0
 10
321.419
 20
45.8227
 30
0.0
 11
321.419
 21
46.422
 31
0.0
  0
LINE
  8
0
 62
     0
 10
321.419
 20
46.422
 30
0.0
 11
322.22
 21
46.422
 31
0.0
  0
LINE
  8
0
 62
     0
 10
322.22
 20
46.422
 30
0.0
 11
322.22
 21
59.2226
 31
0.0
  0
LINE
  8
0
 62
     0
 10
322.22
 20
59.2226
 30
0.0
 11
321.419
 21
59.2226
 31
0.0
  0
LINE
  8
0
 62
     0
 10
321.419
 20
59.2226
 30
0.0
 11
321.419
 21
59.8219
 31
0.0
  0
LINE
  8
0
 62
     0
 10
321.419
 20
59.8219
 30
0.0
 11
307.42
 21
59.8219
 31
0.0
  0
LINE
  8
0
 62
     0
 10
374.096
 20
59.8219
 30
0.0
 11
374.096
 21
59.2226
 31
0.0
  0
LINE
  8
0
 62
     0
 10
374.096
 20
59.2226
 30
0.0
 11
373.295
 21
59.2226
 31
0.0
  0
LINE
  8
0
 62
     0
 10
373.295
 20
59.2226
 30
0.0
 11
373.295
 21
46.422
 31
0.0
  0
LINE
  8
0
 62
     0
 10
373.295
 20
46.422
 30
0.0
 11
374.096
 21
46.422
 31
0.0
  0
LINE
  8
0
 62
     0
 10
374.096
 20
46.422
 30
0.0
 11
374.096
 21
45.8227
 31
0.0
  0
LINE
  8
0
 62
     0
 10
374.096
 20
45.8227
 30
0.0
 11
388.094
 21
45.8227
 31
0.0
  0
LINE
  8
0
 62
     0
 10
388.094
 20
45.8227
 30
0.0
 11
388.094
 21
46.422
 31
0.0
  0
LINE
  8
0
 62
     0
 10
388.094
 20
46.422
 30
0.0
 11
388.895
 21
46.422
 31
0.0
  0
LINE
  8
0
 62
     0
 10
388.895
 20
46.422
 30
0.0
 11
388.895
 21
59.2226
 31
0.0
  0
LINE
  8
0
 62
     0
 10
388.895
 20
59.2226
 30
0.0
 11
388.094
 21
59.2226
 31
0.0
  0
LINE
  8
0
 62
     0
 10
388.094
 20
59.2226
 30
0.0
 11
388.094
 21
59.8219
 31
0.0
  0
LINE
  8
0
 62
     0
 10
388.094
 20
59.8219
 30
0.0
 11
374.096
 21
59.8219
 31
0.0
  0
LINE
  8
0
 62
     0
 10
393.146
 20
59.8219
 30
0.0
 11
393.146
 21
59.2226
 31
0.0
  0
LINE
  8
0
 62
     0
 10
393.146
 20
59.2226
 30
0.0
 11
392.345
 21
59.2226
 31
0.0
  0
LINE
  8
0
 62
     0
 10
392.345
 20
59.2226
 30
0.0
 11
392.345
 21
46.422
 31
0.0
  0
LINE
  8
0
 62
     0
 10
392.345
 20
46.422
 30
0.0
 11
393.146
 21
46.422
 31
0.0
  0
LINE
  8
0
 62
     0
 10
393.146
 20
46.422
 30
0.0
 11
393.146
 21
45.8227
 31
0.0
  0
LINE
  8
0
 62
     0
 10
393.146
 20
45.8227
 30
0.0
 11
407.144
 21
45.8227
 31
0.0
  0
LINE
  8
0
 62
     0
 10
407.144
 20
45.8227
 30
0.0
 11
407.144
 21
46.422
 31
0.0
  0
LINE
  8
0
 62
     0
 10
407.144
 20
46.422
 30
0.0
 11
407.945
 21
46.422
 31
0.0
  0
LINE
  8
0
 62
     0
 10
407.945
 20
46.422
 30
0.0
 11
407.945
 21
59.2226
 31
0.0
  0
LINE
  8
0
 62
     0
 10
407.945
 20
59.2226
 30
0.0
 11
407.144
 21
59.2226
 31
0.0
  0
LINE
  8
0
 62
     0
 10
407.144
 20
59.2226
 30
0.0
 11
407.144
 21
59.8219
 31
0.0
  0
LINE
  8
0
 62
     0
 10
407.144
 20
59.8219
 30
0.0
 11
393.146
 21
59.8219
 31
0.0
  0
LINE
  8
0
 62
     0
 10
66.27
 20
78.4475
 30
0.0
 11
66.27
 21
77.622
 31
0.0
  0
LINE
  8
0
 62
     0
 10
66.27
 20
77.622
 30
0.0
 11
59.9997
 21
77.622
 31
0.0
  0
LINE
  8
0
 62
     0
 10
59.9997
 20
77.622
 30
0.0
 11
59.9997
 21
75.897
 31
0.0
  0
LINE
  8
0
 62
     0
 10
59.9997
 20
75.897
 30
0.0
 11
58.7996
 21
75.897
 31
0.0
  0
LINE
  8
0
 62
     0
 10
58.7996
 20
75.897
 30
0.0
 11
58.7996
 21
72.5978
 31
0.0
  0
LINE
  8
0
 62
     0
 10
58.7996
 20
72.5978
 30
0.0
 11
59.9997
 21
72.5978
 31
0.0
  0
LINE
  8
0
 62
     0
 10
59.9997
 20
72.5978
 30
0.0
 11
59.9997
 21
70.8723
 31
0.0
  0
LINE
  8
0
 62
     0
 10
59.9997
 20
70.8723
 30
0.0
 11
64.4701
 21
70.8723
 31
0.0
  0
LINE
  8
0
 62
     0
 10
64.4701
 20
70.8723
 30
0.0
 11
64.4701
 21
70.1477
 31
0.0
  0
LINE
  8
0
 62
     0
 10
64.4701
 20
70.1477
 30
0.0
 11
60.3691
 21
70.1477
 31
0.0
  0
LINE
  8
0
 62
     0
 10
60.3691
 20
70.1477
 30
0.0
 11
60.3691
 21
69.3469
 31
0.0
  0
LINE
  8
0
 62
     0
 10
60.3691
 20
69.3469
 30
0.0
 11
59.7697
 21
69.3469
 31
0.0
  0
LINE
  8
0
 62
     0
 10
59.7697
 20
69.3469
 30
0.0
 11
59.7697
 21
55.3477
 31
0.0
  0
LINE
  8
0
 62
     0
 10
59.7697
 20
55.3477
 30
0.0
 11
60.3691
 21
55.3477
 31
0.0
  0
LINE
  8
0
 62
     0
 10
60.3691
 20
55.3477
 30
0.0
 11
60.3691
 21
54.5469
 31
0.0
  0
LINE
  8
0
 62
     0
 10
60.3691
 20
54.5469
 30
0.0
 11
64.4701
 21
54.5469
 31
0.0
  0
LINE
  8
0
 62
     0
 10
64.4701
 20
54.5469
 30
0.0
 11
64.4701
 21
53.8219
 31
0.0
  0
LINE
  8
0
 62
     0
 10
64.4701
 20
53.8219
 30
0.0
 11
59.9997
 21
53.8219
 31
0.0
  0
LINE
  8
0
 62
     0
 10
59.9997
 20
53.8219
 30
0.0
 11
59.9997
 21
52.0968
 31
0.0
  0
LINE
  8
0
 62
     0
 10
59.9997
 20
52.0968
 30
0.0
 11
58.7996
 21
52.0968
 31
0.0
  0
LINE
  8
0
 62
     0
 10
58.7996
 20
52.0968
 30
0.0
 11
58.7996
 21
48.7976
 31
0.0
  0
LINE
  8
0
 62
     0
 10
58.7996
 20
48.7976
 30
0.0
 11
59.9997
 21
48.7976
 31
0.0
  0
LINE
  8
0
 62
     0
 10
59.9997
 20
48.7976
 30
0.0
 11
59.9997
 21
47.0726
 31
0.0
  0
LINE
  8
0
 62
     0
 10
59.9997
 20
47.0726
 30
0.0
 11
66.27
 21
47.0726
 31
0.0
  0
LINE
  8
0
 62
     0
 10
66.27
 20
47.0726
 30
0.0
 11
66.27
 21
46.247
 31
0.0
  0
LINE
  8
0
 62
     0
 10
66.27
 20
46.247
 30
0.0
 11
69.07
 21
46.247
 31
0.0
  0
LINE
  8
0
 62
     0
 10
69.07
 20
46.247
 30
0.0
 11
69.07
 21
47.0726
 31
0.0
  0
LINE
  8
0
 62
     0
 10
69.07
 20
47.0726
 30
0.0
 11
72.3
 21
47.0726
 31
0.0
  0
LINE
  8
0
 62
     0
 10
72.3
 20
47.0726
 30
0.0
 11
72.3
 21
53.8219
 31
0.0
  0
LINE
  8
0
 62
     0
 10
72.3
 20
53.8219
 30
0.0
 11
69.07
 21
53.8219
 31
0.0
  0
LINE
  8
0
 62
     0
 10
69.07
 20
53.8219
 30
0.0
 11
69.07
 21
54.5469
 31
0.0
  0
LINE
  8
0
 62
     0
 10
69.07
 20
54.5469
 30
0.0
 11
73.1696
 21
54.5469
 31
0.0
  0
LINE
  8
0
 62
     0
 10
73.1696
 20
54.5469
 30
0.0
 11
73.1696
 21
55.3477
 31
0.0
  0
LINE
  8
0
 62
     0
 10
73.1696
 20
55.3477
 30
0.0
 11
73.769
 21
55.3477
 31
0.0
  0
LINE
  8
0
 62
     0
 10
73.769
 20
55.3477
 30
0.0
 11
73.769
 21
69.3469
 31
0.0
  0
LINE
  8
0
 62
     0
 10
73.769
 20
69.3469
 30
0.0
 11
73.1696
 21
69.3469
 31
0.0
  0
LINE
  8
0
 62
     0
 10
73.1696
 20
69.3469
 30
0.0
 11
73.1696
 21
70.1477
 31
0.0
  0
LINE
  8
0
 62
     0
 10
73.1696
 20
70.1477
 30
0.0
 11
69.07
 21
70.1477
 31
0.0
  0
LINE
  8
0
 62
     0
 10
69.07
 20
70.1477
 30
0.0
 11
69.07
 21
70.8723
 31
0.0
  0
LINE
  8
0
 62
     0
 10
69.07
 20
70.8723
 30
0.0
 11
72.3
 21
70.8723
 31
0.0
  0
LINE
  8
0
 62
     0
 10
72.3
 20
70.8723
 30
0.0
 11
72.3
 21
77.622
 31
0.0
  0
LINE
  8
0
 62
     0
 10
72.3
 20
77.622
 30
0.0
 11
69.07
 21
77.622
 31
0.0
  0
LINE
  8
0
 62
     0
 10
69.07
 20
77.622
 30
0.0
 11
69.07
 21
78.4475
 31
0.0
  0
LINE
  8
0
 62
     0
 10
69.07
 20
78.4475
 30
0.0
 11
66.27
 21
78.4475
 31
0.0
  0
LINE
  8
0
 62
     0
 10
2.61965
 20
78.8719
 30
0.0
 11
2.61965
 21
78.2726
 31
0.0
  0
LINE
  8
0
 62
     0
 10
2.61965
 20
78.2726
 30
0.0
 11
1.81901
 21
78.2726
 31
0.0
  0
LINE
  8
0
 62
     0
 10
1.81901
 20
78.2726
 30
0.0
 11
1.81901
 21
65.472
 31
0.0
  0
LINE
  8
0
 62
     0
 10
1.81901
 20
65.472
 30
0.0
 11
2.61965
 21
65.472
 31
0.0
  0
LINE
  8
0
 62
     0
 10
2.61965
 20
65.472
 30
0.0
 11
2.61965
 21
64.8727
 31
0.0
  0
LINE
  8
0
 62
     0
 10
2.61965
 20
64.8727
 30
0.0
 11
16.6192
 21
64.8727
 31
0.0
  0
LINE
  8
0
 62
     0
 10
16.6192
 20
64.8727
 30
0.0
 11
16.6192
 21
65.472
 31
0.0
  0
LINE
  8
0
 62
     0
 10
16.6192
 20
65.472
 30
0.0
 11
17.4198
 21
65.472
 31
0.0
  0
LINE
  8
0
 62
     0
 10
17.4198
 20
65.472
 30
0.0
 11
17.4198
 21
78.2726
 31
0.0
  0
LINE
  8
0
 62
     0
 10
17.4198
 20
78.2726
 30
0.0
 11
16.6192
 21
78.2726
 31
0.0
  0
LINE
  8
0
 62
     0
 10
16.6192
 20
78.2726
 30
0.0
 11
16.6192
 21
78.8719
 31
0.0
  0
LINE
  8
0
 62
     0
 10
16.6192
 20
78.8719
 30
0.0
 11
2.61965
 21
78.8719
 31
0.0
  0
LINE
  8
0
 62
     0
 10
21.6697
 20
78.8719
 30
0.0
 11
21.6697
 21
78.2726
 31
0.0
  0
LINE
  8
0
 62
     0
 10
21.6697
 20
78.2726
 30
0.0
 11
20.869
 21
78.2726
 31
0.0
  0
LINE
  8
0
 62
     0
 10
20.869
 20
78.2726
 30
0.0
 11
20.869
 21
65.472
 31
0.0
  0
LINE
  8
0
 62
     0
 10
20.869
 20
65.472
 30
0.0
 11
21.6697
 21
65.472
 31
0.0
  0
LINE
  8
0
 62
     0
 10
21.6697
 20
65.472
 30
0.0
 11
21.6697
 21
64.8727
 31
0.0
  0
LINE
  8
0
 62
     0
 10
21.6697
 20
64.8727
 30
0.0
 11
35.669
 21
64.8727
 31
0.0
  0
LINE
  8
0
 62
     0
 10
35.669
 20
64.8727
 30
0.0
 11
35.669
 21
65.472
 31
0.0
  0
LINE
  8
0
 62
     0
 10
35.669
 20
65.472
 30
0.0
 11
36.4698
 21
65.472
 31
0.0
  0
LINE
  8
0
 62
     0
 10
36.4698
 20
65.472
 30
0.0
 11
36.4698
 21
78.2726
 31
0.0
  0
LINE
  8
0
 62
     0
 10
36.4698
 20
78.2726
 30
0.0
 11
35.669
 21
78.2726
 31
0.0
  0
LINE
  8
0
 62
     0
 10
35.669
 20
78.2726
 30
0.0
 11
35.669
 21
78.8719
 31
0.0
  0
LINE
  8
0
 62
     0
 10
35.669
 20
78.8719
 30
0.0
 11
21.6697
 21
78.8719
 31
0.0
  0
LINE
  8
0
 62
     0
 10
40.7197
 20
78.8719
 30
0.0
 11
40.7197
 21
78.2726
 31
0.0
  0
LINE
  8
0
 62
     0
 10
40.7197
 20
78.2726
 30
0.0
 11
39.9189
 21
78.2726
 31
0.0
  0
LINE
  8
0
 62
     0
 10
39.9189
 20
78.2726
 30
0.0
 11
39.9189
 21
65.472
 31
0.0
  0
LINE
  8
0
 62
     0
 10
39.9189
 20
65.472
 30
0.0
 11
40.7197
 21
65.472
 31
0.0
  0
LINE
  8
0
 62
     0
 10
40.7197
 20
65.472
 30
0.0
 11
40.7197
 21
64.8727
 31
0.0
  0
LINE
  8
0
 62
     0
 10
40.7197
 20
64.8727
 30
0.0
 11
54.719
 21
64.8727
 31
0.0
  0
LINE
  8
0
 62
     0
 10
54.719
 20
64.8727
 30
0.0
 11
54.719
 21
65.472
 31
0.0
  0
LINE
  8
0
 62
     0
 10
54.719
 20
65.472
 30
0.0
 11
55.5198
 21
65.472
 31
0.0
  0
LINE
  8
0
 62
     0
 10
55.5198
 20
65.472
 30
0.0
 11
55.5198
 21
78.2726
 31
0.0
  0
LINE
  8
0
 62
     0
 10
55.5198
 20
78.2726
 30
0.0
 11
54.719
 21
78.2726
 31
0.0
  0
LINE
  8
0
 62
     0
 10
54.719
 20
78.2726
 30
0.0
 11
54.719
 21
78.8719
 31
0.0
  0
LINE
  8
0
 62
     0
 10
54.719
 20
78.8719
 30
0.0
 11
40.7197
 21
78.8719
 31
0.0
  0
LINE
  8
0
 62
     0
 10
88.3447
 20
78.8719
 30
0.0
 11
88.3447
 21
78.2726
 31
0.0
  0
LINE
  8
0
 62
     0
 10
88.3447
 20
78.2726
 30
0.0
 11
87.5439
 21
78.2726
 31
0.0
  0
LINE
  8
0
 62
     0
 10
87.5439
 20
78.2726
 30
0.0
 11
87.5439
 21
65.472
 31
0.0
  0
LINE
  8
0
 62
     0
 10
87.5439
 20
65.472
 30
0.0
 11
88.3447
 21
65.472
 31
0.0
  0
LINE
  8
0
 62
     0
 10
88.3447
 20
65.472
 30
0.0
 11
88.3447
 21
64.8727
 31
0.0
  0
LINE
  8
0
 62
     0
 10
88.3447
 20
64.8727
 30
0.0
 11
102.344
 21
64.8727
 31
0.0
  0
LINE
  8
0
 62
     0
 10
102.344
 20
64.8727
 30
0.0
 11
102.344
 21
65.472
 31
0.0
  0
LINE
  8
0
 62
     0
 10
102.344
 20
65.472
 30
0.0
 11
103.145
 21
65.472
 31
0.0
  0
LINE
  8
0
 62
     0
 10
103.145
 20
65.472
 30
0.0
 11
103.145
 21
78.2726
 31
0.0
  0
LINE
  8
0
 62
     0
 10
103.145
 20
78.2726
 30
0.0
 11
102.344
 21
78.2726
 31
0.0
  0
LINE
  8
0
 62
     0
 10
102.344
 20
78.2726
 30
0.0
 11
102.344
 21
78.8719
 31
0.0
  0
LINE
  8
0
 62
     0
 10
102.344
 20
78.8719
 30
0.0
 11
88.3447
 21
78.8719
 31
0.0
  0
LINE
  8
0
 62
     0
 10
112.157
 20
78.8719
 30
0.0
 11
112.157
 21
78.2726
 31
0.0
  0
LINE
  8
0
 62
     0
 10
112.157
 20
78.2726
 30
0.0
 11
111.356
 21
78.2726
 31
0.0
  0
LINE
  8
0
 62
     0
 10
111.356
 20
78.2726
 30
0.0
 11
111.356
 21
65.472
 31
0.0
  0
LINE
  8
0
 62
     0
 10
111.356
 20
65.472
 30
0.0
 11
112.157
 21
65.472
 31
0.0
  0
LINE
  8
0
 62
     0
 10
112.157
 20
65.472
 30
0.0
 11
112.157
 21
64.8727
 31
0.0
  0
LINE
  8
0
 62
     0
 10
112.157
 20
64.8727
 30
0.0
 11
126.157
 21
64.8727
 31
0.0
  0
LINE
  8
0
 62
     0
 10
126.157
 20
64.8727
 30
0.0
 11
126.157
 21
65.472
 31
0.0
  0
LINE
  8
0
 62
     0
 10
126.157
 20
65.472
 30
0.0
 11
126.956
 21
65.472
 31
0.0
  0
LINE
  8
0
 62
     0
 10
126.956
 20
65.472
 30
0.0
 11
126.956
 21
78.2726
 31
0.0
  0
LINE
  8
0
 62
     0
 10
126.956
 20
78.2726
 30
0.0
 11
126.157
 21
78.2726
 31
0.0
  0
LINE
  8
0
 62
     0
 10
126.157
 20
78.2726
 30
0.0
 11
126.157
 21
78.8719
 31
0.0
  0
LINE
  8
0
 62
     0
 10
126.157
 20
78.8719
 30
0.0
 11
112.157
 21
78.8719
 31
0.0
  0
LINE
  8
0
 62
     0
 10
131.207
 20
78.8719
 30
0.0
 11
131.207
 21
78.2726
 31
0.0
  0
LINE
  8
0
 62
     0
 10
131.207
 20
78.2726
 30
0.0
 11
130.406
 21
78.2726
 31
0.0
  0
LINE
  8
0
 62
     0
 10
130.406
 20
78.2726
 30
0.0
 11
130.406
 21
65.472
 31
0.0
  0
LINE
  8
0
 62
     0
 10
130.406
 20
65.472
 30
0.0
 11
131.207
 21
65.472
 31
0.0
  0
LINE
  8
0
 62
     0
 10
131.207
 20
65.472
 30
0.0
 11
131.207
 21
64.8727
 31
0.0
  0
LINE
  8
0
 62
     0
 10
131.207
 20
64.8727
 30
0.0
 11
145.207
 21
64.8727
 31
0.0
  0
LINE
  8
0
 62
     0
 10
145.207
 20
64.8727
 30
0.0
 11
145.207
 21
65.472
 31
0.0
  0
LINE
  8
0
 62
     0
 10
145.207
 20
65.472
 30
0.0
 11
146.006
 21
65.472
 31
0.0
  0
LINE
  8
0
 62
     0
 10
146.006
 20
65.472
 30
0.0
 11
146.006
 21
78.2726
 31
0.0
  0
LINE
  8
0
 62
     0
 10
146.006
 20
78.2726
 30
0.0
 11
145.207
 21
78.2726
 31
0.0
  0
LINE
  8
0
 62
     0
 10
145.207
 20
78.2726
 30
0.0
 11
145.207
 21
78.8719
 31
0.0
  0
LINE
  8
0
 62
     0
 10
145.207
 20
78.8719
 30
0.0
 11
131.207
 21
78.8719
 31
0.0
  0
LINE
  8
0
 62
     0
 10
150.257
 20
78.8719
 30
0.0
 11
150.257
 21
78.2726
 31
0.0
  0
LINE
  8
0
 62
     0
 10
150.257
 20
78.2726
 30
0.0
 11
149.456
 21
78.2726
 31
0.0
  0
LINE
  8
0
 62
     0
 10
149.456
 20
78.2726
 30
0.0
 11
149.456
 21
65.472
 31
0.0
  0
LINE
  8
0
 62
     0
 10
149.456
 20
65.472
 30
0.0
 11
150.257
 21
65.472
 31
0.0
  0
LINE
  8
0
 62
     0
 10
150.257
 20
65.472
 30
0.0
 11
150.257
 21
64.8727
 31
0.0
  0
LINE
  8
0
 62
     0
 10
150.257
 20
64.8727
 30
0.0
 11
164.257
 21
64.8727
 31
0.0
  0
LINE
  8
0
 62
     0
 10
164.257
 20
64.8727
 30
0.0
 11
164.257
 21
65.472
 31
0.0
  0
LINE
  8
0
 62
     0
 10
164.257
 20
65.472
 30
0.0
 11
165.056
 21
65.472
 31
0.0
  0
LINE
  8
0
 62
     0
 10
165.056
 20
65.472
 30
0.0
 11
165.056
 21
78.2726
 31
0.0
  0
LINE
  8
0
 62
     0
 10
165.056
 20
78.2726
 30
0.0
 11
164.257
 21
78.2726
 31
0.0
  0
LINE
  8
0
 62
     0
 10
164.257
 20
78.2726
 30
0.0
 11
164.257
 21
78.8719
 31
0.0
  0
LINE
  8
0
 62
     0
 10
164.257
 20
78.8719
 30
0.0
 11
150.257
 21
78.8719
 31
0.0
  0
LINE
  8
0
 62
     0
 10
169.307
 20
78.8719
 30
0.0
 11
169.307
 21
78.2726
 31
0.0
  0
LINE
  8
0
 62
     0
 10
169.307
 20
78.2726
 30
0.0
 11
168.506
 21
78.2726
 31
0.0
  0
LINE
  8
0
 62
     0
 10
168.506
 20
78.2726
 30
0.0
 11
168.506
 21
65.472
 31
0.0
  0
LINE
  8
0
 62
     0
 10
168.506
 20
65.472
 30
0.0
 11
169.307
 21
65.472
 31
0.0
  0
LINE
  8
0
 62
     0
 10
169.307
 20
65.472
 30
0.0
 11
169.307
 21
64.8727
 31
0.0
  0
LINE
  8
0
 62
     0
 10
169.307
 20
64.8727
 30
0.0
 11
183.307
 21
64.8727
 31
0.0
  0
LINE
  8
0
 62
     0
 10
183.307
 20
64.8727
 30
0.0
 11
183.307
 21
65.472
 31
0.0
  0
LINE
  8
0
 62
     0
 10
183.307
 20
65.472
 30
0.0
 11
184.106
 21
65.472
 31
0.0
  0
LINE
  8
0
 62
     0
 10
184.106
 20
65.472
 30
0.0
 11
184.106
 21
78.2726
 31
0.0
  0
LINE
  8
0
 62
     0
 10
184.106
 20
78.2726
 30
0.0
 11
183.307
 21
78.2726
 31
0.0
  0
LINE
  8
0
 62
     0
 10
183.307
 20
78.2726
 30
0.0
 11
183.307
 21
78.8719
 31
0.0
  0
LINE
  8
0
 62
     0
 10
183.307
 20
78.8719
 30
0.0
 11
169.307
 21
78.8719
 31
0.0
  0
LINE
  8
0
 62
     0
 10
188.357
 20
78.8719
 30
0.0
 11
188.357
 21
78.2726
 31
0.0
  0
LINE
  8
0
 62
     0
 10
188.357
 20
78.2726
 30
0.0
 11
187.556
 21
78.2726
 31
0.0
  0
LINE
  8
0
 62
     0
 10
187.556
 20
78.2726
 30
0.0
 11
187.556
 21
65.472
 31
0.0
  0
LINE
  8
0
 62
     0
 10
187.556
 20
65.472
 30
0.0
 11
188.357
 21
65.472
 31
0.0
  0
LINE
  8
0
 62
     0
 10
188.357
 20
65.472
 30
0.0
 11
188.357
 21
64.8727
 31
0.0
  0
LINE
  8
0
 62
     0
 10
188.357
 20
64.8727
 30
0.0
 11
202.357
 21
64.8727
 31
0.0
  0
LINE
  8
0
 62
     0
 10
202.357
 20
64.8727
 30
0.0
 11
202.357
 21
65.472
 31
0.0
  0
LINE
  8
0
 62
     0
 10
202.357
 20
65.472
 30
0.0
 11
203.156
 21
65.472
 31
0.0
  0
LINE
  8
0
 62
     0
 10
203.156
 20
65.472
 30
0.0
 11
203.156
 21
78.2726
 31
0.0
  0
LINE
  8
0
 62
     0
 10
203.156
 20
78.2726
 30
0.0
 11
202.357
 21
78.2726
 31
0.0
  0
LINE
  8
0
 62
     0
 10
202.357
 20
78.2726
 30
0.0
 11
202.357
 21
78.8719
 31
0.0
  0
LINE
  8
0
 62
     0
 10
202.357
 20
78.8719
 30
0.0
 11
188.357
 21
78.8719
 31
0.0
  0
LINE
  8
0
 62
     0
 10
207.407
 20
78.8719
 30
0.0
 11
207.407
 21
78.2726
 31
0.0
  0
LINE
  8
0
 62
     0
 10
207.407
 20
78.2726
 30
0.0
 11
206.606
 21
78.2726
 31
0.0
  0
LINE
  8
0
 62
     0
 10
206.606
 20
78.2726
 30
0.0
 11
206.606
 21
65.472
 31
0.0
  0
LINE
  8
0
 62
     0
 10
206.606
 20
65.472
 30
0.0
 11
207.407
 21
65.472
 31
0.0
  0
LINE
  8
0
 62
     0
 10
207.407
 20
65.472
 30
0.0
 11
207.407
 21
64.8727
 31
0.0
  0
LINE
  8
0
 62
     0
 10
207.407
 20
64.8727
 30
0.0
 11
221.407
 21
64.8727
 31
0.0
  0
LINE
  8
0
 62
     0
 10
221.407
 20
64.8727
 30
0.0
 11
221.407
 21
65.472
 31
0.0
  0
LINE
  8
0
 62
     0
 10
221.407
 20
65.472
 30
0.0
 11
222.206
 21
65.472
 31
0.0
  0
LINE
  8
0
 62
     0
 10
222.206
 20
65.472
 30
0.0
 11
222.206
 21
78.2726
 31
0.0
  0
LINE
  8
0
 62
     0
 10
222.206
 20
78.2726
 30
0.0
 11
221.407
 21
78.2726
 31
0.0
  0
LINE
  8
0
 62
     0
 10
221.407
 20
78.2726
 30
0.0
 11
221.407
 21
78.8719
 31
0.0
  0
LINE
  8
0
 62
     0
 10
221.407
 20
78.8719
 30
0.0
 11
207.407
 21
78.8719
 31
0.0
  0
LINE
  8
0
 62
     0
 10
226.457
 20
78.8719
 30
0.0
 11
226.457
 21
78.2726
 31
0.0
  0
LINE
  8
0
 62
     0
 10
226.457
 20
78.2726
 30
0.0
 11
225.656
 21
78.2726
 31
0.0
  0
LINE
  8
0
 62
     0
 10
225.656
 20
78.2726
 30
0.0
 11
225.656
 21
65.472
 31
0.0
  0
LINE
  8
0
 62
     0
 10
225.656
 20
65.472
 30
0.0
 11
226.457
 21
65.472
 31
0.0
  0
LINE
  8
0
 62
     0
 10
226.457
 20
65.472
 30
0.0
 11
226.457
 21
64.8727
 31
0.0
  0
LINE
  8
0
 62
     0
 10
226.457
 20
64.8727
 30
0.0
 11
240.457
 21
64.8727
 31
0.0
  0
LINE
  8
0
 62
     0
 10
240.457
 20
64.8727
 30
0.0
 11
240.457
 21
65.472
 31
0.0
  0
LINE
  8
0
 62
     0
 10
240.457
 20
65.472
 30
0.0
 11
241.256
 21
65.472
 31
0.0
  0
LINE
  8
0
 62
     0
 10
241.256
 20
65.472
 30
0.0
 11
241.256
 21
78.2726
 31
0.0
  0
LINE
  8
0
 62
     0
 10
241.256
 20
78.2726
 30
0.0
 11
240.457
 21
78.2726
 31
0.0
  0
LINE
  8
0
 62
     0
 10
240.457
 20
78.2726
 30
0.0
 11
240.457
 21
78.8719
 31
0.0
  0
LINE
  8
0
 62
     0
 10
240.457
 20
78.8719
 30
0.0
 11
226.457
 21
78.8719
 31
0.0
  0
LINE
  8
0
 62
     0
 10
245.507
 20
78.8719
 30
0.0
 11
245.507
 21
78.2726
 31
0.0
  0
LINE
  8
0
 62
     0
 10
245.507
 20
78.2726
 30
0.0
 11
244.706
 21
78.2726
 31
0.0
  0
LINE
  8
0
 62
     0
 10
244.706
 20
78.2726
 30
0.0
 11
244.706
 21
65.472
 31
0.0
  0
LINE
  8
0
 62
     0
 10
244.706
 20
65.472
 30
0.0
 11
245.507
 21
65.472
 31
0.0
  0
LINE
  8
0
 62
     0
 10
245.507
 20
65.472
 30
0.0
 11
245.507
 21
64.8727
 31
0.0
  0
LINE
  8
0
 62
     0
 10
245.507
 20
64.8727
 30
0.0
 11
259.507
 21
64.8727
 31
0.0
  0
LINE
  8
0
 62
     0
 10
259.507
 20
64.8727
 30
0.0
 11
259.507
 21
65.472
 31
0.0
  0
LINE
  8
0
 62
     0
 10
259.507
 20
65.472
 30
0.0
 11
260.306
 21
65.472
 31
0.0
  0
LINE
  8
0
 62
     0
 10
260.306
 20
65.472
 30
0.0
 11
260.306
 21
78.2726
 31
0.0
  0
LINE
  8
0
 62
     0
 10
260.306
 20
78.2726
 30
0.0
 11
259.507
 21
78.2726
 31
0.0
  0
LINE
  8
0
 62
     0
 10
259.507
 20
78.2726
 30
0.0
 11
259.507
 21
78.8719
 31
0.0
  0
LINE
  8
0
 62
     0
 10
259.507
 20
78.8719
 30
0.0
 11
245.507
 21
78.8719
 31
0.0
  0
LINE
  8
0
 62
     0
 10
264.557
 20
78.8719
 30
0.0
 11
264.557
 21
78.2726
 31
0.0
  0
LINE
  8
0
 62
     0
 10
264.557
 20
78.2726
 30
0.0
 11
263.756
 21
78.2726
 31
0.0
  0
LINE
  8
0
 62
     0
 10
263.756
 20
78.2726
 30
0.0
 11
263.756
 21
65.472
 31
0.0
  0
LINE
  8
0
 62
     0
 10
263.756
 20
65.472
 30
0.0
 11
264.557
 21
65.472
 31
0.0
  0
LINE
  8
0
 62
     0
 10
264.557
 20
65.472
 30
0.0
 11
264.557
 21
64.8727
 31
0.0
  0
LINE
  8
0
 62
     0
 10
264.557
 20
64.8727
 30
0.0
 11
278.557
 21
64.8727
 31
0.0
  0
LINE
  8
0
 62
     0
 10
278.557
 20
64.8727
 30
0.0
 11
278.557
 21
65.472
 31
0.0
  0
LINE
  8
0
 62
     0
 10
278.557
 20
65.472
 30
0.0
 11
279.356
 21
65.472
 31
0.0
  0
LINE
  8
0
 62
     0
 10
279.356
 20
65.472
 30
0.0
 11
279.356
 21
78.2726
 31
0.0
  0
LINE
  8
0
 62
     0
 10
279.356
 20
78.2726
 30
0.0
 11
278.557
 21
78.2726
 31
0.0
  0
LINE
  8
0
 62
     0
 10
278.557
 20
78.2726
 30
0.0
 11
278.557
 21
78.8719
 31
0.0
  0
LINE
  8
0
 62
     0
 10
278.557
 20
78.8719
 30
0.0
 11
264.557
 21
78.8719
 31
0.0
  0
LINE
  8
0
 62
     0
 10
283.607
 20
78.8719
 30
0.0
 11
283.607
 21
78.2726
 31
0.0
  0
LINE
  8
0
 62
     0
 10
283.607
 20
78.2726
 30
0.0
 11
282.806
 21
78.2726
 31
0.0
  0
LINE
  8
0
 62
     0
 10
282.806
 20
78.2726
 30
0.0
 11
282.806
 21
65.472
 31
0.0
  0
LINE
  8
0
 62
     0
 10
282.806
 20
65.472
 30
0.0
 11
283.607
 21
65.472
 31
0.0
  0
LINE
  8
0
 62
     0
 10
283.607
 20
65.472
 30
0.0
 11
283.607
 21
64.8727
 31
0.0
  0
LINE
  8
0
 62
     0
 10
283.607
 20
64.8727
 30
0.0
 11
297.607
 21
64.8727
 31
0.0
  0
LINE
  8
0
 62
     0
 10
297.607
 20
64.8727
 30
0.0
 11
297.607
 21
65.472
 31
0.0
  0
LINE
  8
0
 62
     0
 10
297.607
 20
65.472
 30
0.0
 11
298.406
 21
65.472
 31
0.0
  0
LINE
  8
0
 62
     0
 10
298.406
 20
65.472
 30
0.0
 11
298.406
 21
78.2726
 31
0.0
  0
LINE
  8
0
 62
     0
 10
298.406
 20
78.2726
 30
0.0
 11
297.607
 21
78.2726
 31
0.0
  0
LINE
  8
0
 62
     0
 10
297.607
 20
78.2726
 30
0.0
 11
297.607
 21
78.8719
 31
0.0
  0
LINE
  8
0
 62
     0
 10
297.607
 20
78.8719
 30
0.0
 11
283.607
 21
78.8719
 31
0.0
  0
LINE
  8
0
 62
     0
 10
302.657
 20
78.8719
 30
0.0
 11
302.657
 21
78.2726
 31
0.0
  0
LINE
  8
0
 62
     0
 10
302.657
 20
78.2726
 30
0.0
 11
301.856
 21
78.2726
 31
0.0
  0
LINE
  8
0
 62
     0
 10
301.856
 20
78.2726
 30
0.0
 11
301.856
 21
65.472
 31
0.0
  0
LINE
  8
0
 62
     0
 10
301.856
 20
65.472
 30
0.0
 11
302.657
 21
65.472
 31
0.0
  0
LINE
  8
0
 62
     0
 10
302.657
 20
65.472
 30
0.0
 11
302.657
 21
64.8727
 31
0.0
  0
LINE
  8
0
 62
     0
 10
302.657
 20
64.8727
 30
0.0
 11
316.657
 21
64.8727
 31
0.0
  0
LINE
  8
0
 62
     0
 10
316.657
 20
64.8727
 30
0.0
 11
316.657
 21
65.472
 31
0.0
  0
LINE
  8
0
 62
     0
 10
316.657
 20
65.472
 30
0.0
 11
317.456
 21
65.472
 31
0.0
  0
LINE
  8
0
 62
     0
 10
317.456
 20
65.472
 30
0.0
 11
317.456
 21
78.2726
 31
0.0
  0
LINE
  8
0
 62
     0
 10
317.456
 20
78.2726
 30
0.0
 11
316.657
 21
78.2726
 31
0.0
  0
LINE
  8
0
 62
     0
 10
316.657
 20
78.2726
 30
0.0
 11
316.657
 21
78.8719
 31
0.0
  0
LINE
  8
0
 62
     0
 10
316.657
 20
78.8719
 30
0.0
 11
302.657
 21
78.8719
 31
0.0
  0
LINE
  8
0
 62
     0
 10
321.707
 20
78.8719
 30
0.0
 11
321.707
 21
78.2726
 31
0.0
  0
LINE
  8
0
 62
     0
 10
321.707
 20
78.2726
 30
0.0
 11
320.906
 21
78.2726
 31
0.0
  0
LINE
  8
0
 62
     0
 10
320.906
 20
78.2726
 30
0.0
 11
320.906
 21
65.472
 31
0.0
  0
LINE
  8
0
 62
     0
 10
320.906
 20
65.472
 30
0.0
 11
321.707
 21
65.472
 31
0.0
  0
LINE
  8
0
 62
     0
 10
321.707
 20
65.472
 30
0.0
 11
321.707
 21
64.8727
 31
0.0
  0
LINE
  8
0
 62
     0
 10
321.707
 20
64.8727
 30
0.0
 11
335.707
 21
64.8727
 31
0.0
  0
LINE
  8
0
 62
     0
 10
335.707
 20
64.8727
 30
0.0
 11
335.707
 21
65.472
 31
0.0
  0
LINE
  8
0
 62
     0
 10
335.707
 20
65.472
 30
0.0
 11
336.506
 21
65.472
 31
0.0
  0
LINE
  8
0
 62
     0
 10
336.506
 20
65.472
 30
0.0
 11
336.506
 21
78.2726
 31
0.0
  0
LINE
  8
0
 62
     0
 10
336.506
 20
78.2726
 30
0.0
 11
335.707
 21
78.2726
 31
0.0
  0
LINE
  8
0
 62
     0
 10
335.707
 20
78.2726
 30
0.0
 11
335.707
 21
78.8719
 31
0.0
  0
LINE
  8
0
 62
     0
 10
335.707
 20
78.8719
 30
0.0
 11
321.707
 21
78.8719
 31
0.0
  0
LINE
  8
0
 62
     0
 10
345.52
 20
78.8719
 30
0.0
 11
345.52
 21
78.2726
 31
0.0
  0
LINE
  8
0
 62
     0
 10
345.52
 20
78.2726
 30
0.0
 11
344.719
 21
78.2726
 31
0.0
  0
LINE
  8
0
 62
     0
 10
344.719
 20
78.2726
 30
0.0
 11
344.719
 21
65.472
 31
0.0
  0
LINE
  8
0
 62
     0
 10
344.719
 20
65.472
 30
0.0
 11
345.52
 21
65.472
 31
0.0
  0
LINE
  8
0
 62
     0
 10
345.52
 20
65.472
 30
0.0
 11
345.52
 21
64.8727
 31
0.0
  0
LINE
  8
0
 62
     0
 10
345.52
 20
64.8727
 30
0.0
 11
359.519
 21
64.8727
 31
0.0
  0
LINE
  8
0
 62
     0
 10
359.519
 20
64.8727
 30
0.0
 11
359.519
 21
65.472
 31
0.0
  0
LINE
  8
0
 62
     0
 10
359.519
 20
65.472
 30
0.0
 11
360.32
 21
65.472
 31
0.0
  0
LINE
  8
0
 62
     0
 10
360.32
 20
65.472
 30
0.0
 11
360.32
 21
78.2726
 31
0.0
  0
LINE
  8
0
 62
     0
 10
360.32
 20
78.2726
 30
0.0
 11
359.519
 21
78.2726
 31
0.0
  0
LINE
  8
0
 62
     0
 10
359.519
 20
78.2726
 30
0.0
 11
359.519
 21
78.8719
 31
0.0
  0
LINE
  8
0
 62
     0
 10
359.519
 20
78.8719
 30
0.0
 11
345.52
 21
78.8719
 31
0.0
  0
LINE
  8
0
 62
     0
 10
374.096
 20
78.8719
 30
0.0
 11
374.096
 21
78.2726
 31
0.0
  0
LINE
  8
0
 62
     0
 10
374.096
 20
78.2726
 30
0.0
 11
373.295
 21
78.2726
 31
0.0
  0
LINE
  8
0
 62
     0
 10
373.295
 20
78.2726
 30
0.0
 11
373.295
 21
65.472
 31
0.0
  0
LINE
  8
0
 62
     0
 10
373.295
 20
65.472
 30
0.0
 11
374.096
 21
65.472
 31
0.0
  0
LINE
  8
0
 62
     0
 10
374.096
 20
65.472
 30
0.0
 11
374.096
 21
64.8727
 31
0.0
  0
LINE
  8
0
 62
     0
 10
374.096
 20
64.8727
 30
0.0
 11
388.094
 21
64.8727
 31
0.0
  0
LINE
  8
0
 62
     0
 10
388.094
 20
64.8727
 30
0.0
 11
388.094
 21
65.472
 31
0.0
  0
LINE
  8
0
 62
     0
 10
388.094
 20
65.472
 30
0.0
 11
388.895
 21
65.472
 31
0.0
  0
LINE
  8
0
 62
     0
 10
388.895
 20
65.472
 30
0.0
 11
388.895
 21
78.2726
 31
0.0
  0
LINE
  8
0
 62
     0
 10
388.895
 20
78.2726
 30
0.0
 11
388.094
 21
78.2726
 31
0.0
  0
LINE
  8
0
 62
     0
 10
388.094
 20
78.2726
 30
0.0
 11
388.094
 21
78.8719
 31
0.0
  0
LINE
  8
0
 62
     0
 10
388.094
 20
78.8719
 30
0.0
 11
374.096
 21
78.8719
 31
0.0
  0
LINE
  8
0
 62
     0
 10
393.146
 20
78.8719
 30
0.0
 11
393.146
 21
78.2726
 31
0.0
  0
LINE
  8
0
 62
     0
 10
393.146
 20
78.2726
 30
0.0
 11
392.345
 21
78.2726
 31
0.0
  0
LINE
  8
0
 62
     0
 10
392.345
 20
78.2726
 30
0.0
 11
392.345
 21
65.472
 31
0.0
  0
LINE
  8
0
 62
     0
 10
392.345
 20
65.472
 30
0.0
 11
393.146
 21
65.472
 31
0.0
  0
LINE
  8
0
 62
     0
 10
393.146
 20
65.472
 30
0.0
 11
393.146
 21
64.8727
 31
0.0
  0
LINE
  8
0
 62
     0
 10
393.146
 20
64.8727
 30
0.0
 11
407.144
 21
64.8727
 31
0.0
  0
LINE
  8
0
 62
     0
 10
407.144
 20
64.8727
 30
0.0
 11
407.144
 21
65.472
 31
0.0
  0
LINE
  8
0
 62
     0
 10
407.144
 20
65.472
 30
0.0
 11
407.945
 21
65.472
 31
0.0
  0
LINE
  8
0
 62
     0
 10
407.945
 20
65.472
 30
0.0
 11
407.945
 21
78.2726
 31
0.0
  0
LINE
  8
0
 62
     0
 10
407.945
 20
78.2726
 30
0.0
 11
407.144
 21
78.2726
 31
0.0
  0
LINE
  8
0
 62
     0
 10
407.144
 20
78.2726
 30
0.0
 11
407.144
 21
78.8719
 31
0.0
  0
LINE
  8
0
 62
     0
 10
407.144
 20
78.8719
 30
0.0
 11
393.146
 21
78.8719
 31
0.0
  0
LINE
  8
0
 62
     0
 10
340.757
 20
97.9219
 30
0.0
 11
340.757
 21
97.3226
 31
0.0
  0
LINE
  8
0
 62
     0
 10
340.757
 20
97.3226
 30
0.0
 11
339.956
 21
97.3226
 31
0.0
  0
LINE
  8
0
 62
     0
 10
339.956
 20
97.3226
 30
0.0
 11
339.956
 21
93.2215
 31
0.0
  0
LINE
  8
0
 62
     0
 10
339.956
 20
93.2215
 30
0.0
 11
339.232
 21
93.2215
 31
0.0
  0
LINE
  8
0
 62
     0
 10
339.232
 20
93.2215
 30
0.0
 11
339.232
 21
96.4516
 31
0.0
  0
LINE
  8
0
 62
     0
 10
339.232
 20
96.4516
 30
0.0
 11
332.482
 21
96.4516
 31
0.0
  0
LINE
  8
0
 62
     0
 10
332.482
 20
96.4516
 30
0.0
 11
332.482
 21
93.2215
 31
0.0
  0
LINE
  8
0
 62
     0
 10
332.482
 20
93.2215
 30
0.0
 11
331.657
 21
93.2215
 31
0.0
  0
LINE
  8
0
 62
     0
 10
331.657
 20
93.2215
 30
0.0
 11
331.657
 21
90.4226
 31
0.0
  0
LINE
  8
0
 62
     0
 10
331.657
 20
90.4226
 30
0.0
 11
332.482
 21
90.4226
 31
0.0
  0
LINE
  8
0
 62
     0
 10
332.482
 20
90.4226
 30
0.0
 11
332.482
 21
84.1527
 31
0.0
  0
LINE
  8
0
 62
     0
 10
332.482
 20
84.1527
 30
0.0
 11
334.206
 21
84.1527
 31
0.0
  0
LINE
  8
0
 62
     0
 10
334.206
 20
84.1527
 30
0.0
 11
334.206
 21
82.9525
 31
0.0
  0
LINE
  8
0
 62
     0
 10
334.206
 20
82.9525
 30
0.0
 11
337.506
 21
82.9525
 31
0.0
  0
LINE
  8
0
 62
     0
 10
337.506
 20
82.9525
 30
0.0
 11
337.506
 21
84.1527
 31
0.0
  0
LINE
  8
0
 62
     0
 10
337.506
 20
84.1527
 30
0.0
 11
339.232
 21
84.1527
 31
0.0
  0
LINE
  8
0
 62
     0
 10
339.232
 20
84.1527
 30
0.0
 11
339.232
 21
88.6217
 31
0.0
  0
LINE
  8
0
 62
     0
 10
339.232
 20
88.6217
 30
0.0
 11
339.956
 21
88.6217
 31
0.0
  0
LINE
  8
0
 62
     0
 10
339.956
 20
88.6217
 30
0.0
 11
339.956
 21
84.522
 31
0.0
  0
LINE
  8
0
 62
     0
 10
339.956
 20
84.522
 30
0.0
 11
340.757
 21
84.522
 31
0.0
  0
LINE
  8
0
 62
     0
 10
340.757
 20
84.522
 30
0.0
 11
340.757
 21
83.9227
 31
0.0
  0
LINE
  8
0
 62
     0
 10
340.757
 20
83.9227
 30
0.0
 11
354.757
 21
83.9227
 31
0.0
  0
LINE
  8
0
 62
     0
 10
354.757
 20
83.9227
 30
0.0
 11
354.757
 21
84.522
 31
0.0
  0
LINE
  8
0
 62
     0
 10
354.757
 20
84.522
 30
0.0
 11
355.558
 21
84.522
 31
0.0
  0
LINE
  8
0
 62
     0
 10
355.558
 20
84.522
 30
0.0
 11
355.558
 21
88.6217
 31
0.0
  0
LINE
  8
0
 62
     0
 10
355.558
 20
88.6217
 30
0.0
 11
356.281
 21
88.6217
 31
0.0
  0
LINE
  8
0
 62
     0
 10
356.281
 20
88.6217
 30
0.0
 11
356.281
 21
84.1527
 31
0.0
  0
LINE
  8
0
 62
     0
 10
356.281
 20
84.1527
 30
0.0
 11
358.006
 21
84.1527
 31
0.0
  0
LINE
  8
0
 62
     0
 10
358.006
 20
84.1527
 30
0.0
 11
358.006
 21
82.9525
 31
0.0
  0
LINE
  8
0
 62
     0
 10
358.006
 20
82.9525
 30
0.0
 11
361.308
 21
82.9525
 31
0.0
  0
LINE
  8
0
 62
     0
 10
361.308
 20
82.9525
 30
0.0
 11
361.308
 21
84.1527
 31
0.0
  0
LINE
  8
0
 62
     0
 10
361.308
 20
84.1527
 30
0.0
 11
363.033
 21
84.1527
 31
0.0
  0
LINE
  8
0
 62
     0
 10
363.033
 20
84.1527
 30
0.0
 11
363.033
 21
90.4226
 31
0.0
  0
LINE
  8
0
 62
     0
 10
363.033
 20
90.4226
 30
0.0
 11
363.855
 21
90.4226
 31
0.0
  0
LINE
  8
0
 62
     0
 10
363.855
 20
90.4226
 30
0.0
 11
363.855
 21
93.2215
 31
0.0
  0
LINE
  8
0
 62
     0
 10
363.855
 20
93.2215
 30
0.0
 11
363.033
 21
93.2215
 31
0.0
  0
LINE
  8
0
 62
     0
 10
363.033
 20
93.2215
 30
0.0
 11
363.033
 21
96.4516
 31
0.0
  0
LINE
  8
0
 62
     0
 10
363.033
 20
96.4516
 30
0.0
 11
356.281
 21
96.4516
 31
0.0
  0
LINE
  8
0
 62
     0
 10
356.281
 20
96.4516
 30
0.0
 11
356.281
 21
93.2215
 31
0.0
  0
LINE
  8
0
 62
     0
 10
356.281
 20
93.2215
 30
0.0
 11
355.558
 21
93.2215
 31
0.0
  0
LINE
  8
0
 62
     0
 10
355.558
 20
93.2215
 30
0.0
 11
355.558
 21
97.3226
 31
0.0
  0
LINE
  8
0
 62
     0
 10
355.558
 20
97.3226
 30
0.0
 11
354.757
 21
97.3226
 31
0.0
  0
LINE
  8
0
 62
     0
 10
354.757
 20
97.3226
 30
0.0
 11
354.757
 21
97.9219
 31
0.0
  0
LINE
  8
0
 62
     0
 10
354.757
 20
97.9219
 30
0.0
 11
340.757
 21
97.9219
 31
0.0
  0
LINE
  8
0
 62
     0
 10
2.61965
 20
97.9219
 30
0.0
 11
2.61965
 21
97.3226
 31
0.0
  0
LINE
  8
0
 62
     0
 10
2.61965
 20
97.3226
 30
0.0
 11
1.81901
 21
97.3226
 31
0.0
  0
LINE
  8
0
 62
     0
 10
1.81901
 20
97.3226
 30
0.0
 11
1.81901
 21
84.522
 31
0.0
  0
LINE
  8
0
 62
     0
 10
1.81901
 20
84.522
 30
0.0
 11
2.61965
 21
84.522
 31
0.0
  0
LINE
  8
0
 62
     0
 10
2.61965
 20
84.522
 30
0.0
 11
2.61965
 21
83.9227
 31
0.0
  0
LINE
  8
0
 62
     0
 10
2.61965
 20
83.9227
 30
0.0
 11
16.6192
 21
83.9227
 31
0.0
  0
LINE
  8
0
 62
     0
 10
16.6192
 20
83.9227
 30
0.0
 11
16.6192
 21
84.522
 31
0.0
  0
LINE
  8
0
 62
     0
 10
16.6192
 20
84.522
 30
0.0
 11
17.4198
 21
84.522
 31
0.0
  0
LINE
  8
0
 62
     0
 10
17.4198
 20
84.522
 30
0.0
 11
17.4198
 21
97.3226
 31
0.0
  0
LINE
  8
0
 62
     0
 10
17.4198
 20
97.3226
 30
0.0
 11
16.6192
 21
97.3226
 31
0.0
  0
LINE
  8
0
 62
     0
 10
16.6192
 20
97.3226
 30
0.0
 11
16.6192
 21
97.9219
 31
0.0
  0
LINE
  8
0
 62
     0
 10
16.6192
 20
97.9219
 30
0.0
 11
2.61965
 21
97.9219
 31
0.0
  0
LINE
  8
0
 62
     0
 10
21.6697
 20
97.9219
 30
0.0
 11
21.6697
 21
97.3226
 31
0.0
  0
LINE
  8
0
 62
     0
 10
21.6697
 20
97.3226
 30
0.0
 11
20.869
 21
97.3226
 31
0.0
  0
LINE
  8
0
 62
     0
 10
20.869
 20
97.3226
 30
0.0
 11
20.869
 21
84.522
 31
0.0
  0
LINE
  8
0
 62
     0
 10
20.869
 20
84.522
 30
0.0
 11
21.6697
 21
84.522
 31
0.0
  0
LINE
  8
0
 62
     0
 10
21.6697
 20
84.522
 30
0.0
 11
21.6697
 21
83.9227
 31
0.0
  0
LINE
  8
0
 62
     0
 10
21.6697
 20
83.9227
 30
0.0
 11
35.669
 21
83.9227
 31
0.0
  0
LINE
  8
0
 62
     0
 10
35.669
 20
83.9227
 30
0.0
 11
35.669
 21
84.522
 31
0.0
  0
LINE
  8
0
 62
     0
 10
35.669
 20
84.522
 30
0.0
 11
36.4698
 21
84.522
 31
0.0
  0
LINE
  8
0
 62
     0
 10
36.4698
 20
84.522
 30
0.0
 11
36.4698
 21
97.3226
 31
0.0
  0
LINE
  8
0
 62
     0
 10
36.4698
 20
97.3226
 30
0.0
 11
35.669
 21
97.3226
 31
0.0
  0
LINE
  8
0
 62
     0
 10
35.669
 20
97.3226
 30
0.0
 11
35.669
 21
97.9219
 31
0.0
  0
LINE
  8
0
 62
     0
 10
35.669
 20
97.9219
 30
0.0
 11
21.6697
 21
97.9219
 31
0.0
  0
LINE
  8
0
 62
     0
 10
40.7197
 20
97.9219
 30
0.0
 11
40.7197
 21
97.3226
 31
0.0
  0
LINE
  8
0
 62
     0
 10
40.7197
 20
97.3226
 30
0.0
 11
39.9189
 21
97.3226
 31
0.0
  0
LINE
  8
0
 62
     0
 10
39.9189
 20
97.3226
 30
0.0
 11
39.9189
 21
84.522
 31
0.0
  0
LINE
  8
0
 62
     0
 10
39.9189
 20
84.522
 30
0.0
 11
40.7197
 21
84.522
 31
0.0
  0
LINE
  8
0
 62
     0
 10
40.7197
 20
84.522
 30
0.0
 11
40.7197
 21
83.9227
 31
0.0
  0
LINE
  8
0
 62
     0
 10
40.7197
 20
83.9227
 30
0.0
 11
54.719
 21
83.9227
 31
0.0
  0
LINE
  8
0
 62
     0
 10
54.719
 20
83.9227
 30
0.0
 11
54.719
 21
84.522
 31
0.0
  0
LINE
  8
0
 62
     0
 10
54.719
 20
84.522
 30
0.0
 11
55.5198
 21
84.522
 31
0.0
  0
LINE
  8
0
 62
     0
 10
55.5198
 20
84.522
 30
0.0
 11
55.5198
 21
97.3226
 31
0.0
  0
LINE
  8
0
 62
     0
 10
55.5198
 20
97.3226
 30
0.0
 11
54.719
 21
97.3226
 31
0.0
  0
LINE
  8
0
 62
     0
 10
54.719
 20
97.3226
 30
0.0
 11
54.719
 21
97.9219
 31
0.0
  0
LINE
  8
0
 62
     0
 10
54.719
 20
97.9219
 30
0.0
 11
40.7197
 21
97.9219
 31
0.0
  0
LINE
  8
0
 62
     0
 10
59.7697
 20
97.9219
 30
0.0
 11
59.7697
 21
97.3226
 31
0.0
  0
LINE
  8
0
 62
     0
 10
59.7697
 20
97.3226
 30
0.0
 11
58.9689
 21
97.3226
 31
0.0
  0
LINE
  8
0
 62
     0
 10
58.9689
 20
97.3226
 30
0.0
 11
58.9689
 21
84.522
 31
0.0
  0
LINE
  8
0
 62
     0
 10
58.9689
 20
84.522
 30
0.0
 11
59.7697
 21
84.522
 31
0.0
  0
LINE
  8
0
 62
     0
 10
59.7697
 20
84.522
 30
0.0
 11
59.7697
 21
83.9227
 31
0.0
  0
LINE
  8
0
 62
     0
 10
59.7697
 20
83.9227
 30
0.0
 11
73.769
 21
83.9227
 31
0.0
  0
LINE
  8
0
 62
     0
 10
73.769
 20
83.9227
 30
0.0
 11
73.769
 21
84.522
 31
0.0
  0
LINE
  8
0
 62
     0
 10
73.769
 20
84.522
 30
0.0
 11
74.5698
 21
84.522
 31
0.0
  0
LINE
  8
0
 62
     0
 10
74.5698
 20
84.522
 30
0.0
 11
74.5698
 21
97.3226
 31
0.0
  0
LINE
  8
0
 62
     0
 10
74.5698
 20
97.3226
 30
0.0
 11
73.769
 21
97.3226
 31
0.0
  0
LINE
  8
0
 62
     0
 10
73.769
 20
97.3226
 30
0.0
 11
73.769
 21
97.9219
 31
0.0
  0
LINE
  8
0
 62
     0
 10
73.769
 20
97.9219
 30
0.0
 11
59.7697
 21
97.9219
 31
0.0
  0
LINE
  8
0
 62
     0
 10
83.5822
 20
97.9219
 30
0.0
 11
83.5822
 21
97.3226
 31
0.0
  0
LINE
  8
0
 62
     0
 10
83.5822
 20
97.3226
 30
0.0
 11
82.7814
 21
97.3226
 31
0.0
  0
LINE
  8
0
 62
     0
 10
82.7814
 20
97.3226
 30
0.0
 11
82.7814
 21
84.522
 31
0.0
  0
LINE
  8
0
 62
     0
 10
82.7814
 20
84.522
 30
0.0
 11
83.5822
 21
84.522
 31
0.0
  0
LINE
  8
0
 62
     0
 10
83.5822
 20
84.522
 30
0.0
 11
83.5822
 21
83.9227
 31
0.0
  0
LINE
  8
0
 62
     0
 10
83.5822
 20
83.9227
 30
0.0
 11
97.5815
 21
83.9227
 31
0.0
  0
LINE
  8
0
 62
     0
 10
97.5815
 20
83.9227
 30
0.0
 11
97.5815
 21
84.522
 31
0.0
  0
LINE
  8
0
 62
     0
 10
97.5815
 20
84.522
 30
0.0
 11
98.3809
 21
84.522
 31
0.0
  0
LINE
  8
0
 62
     0
 10
98.3809
 20
84.522
 30
0.0
 11
98.3809
 21
97.3226
 31
0.0
  0
LINE
  8
0
 62
     0
 10
98.3809
 20
97.3226
 30
0.0
 11
97.5815
 21
97.3226
 31
0.0
  0
LINE
  8
0
 62
     0
 10
97.5815
 20
97.3226
 30
0.0
 11
97.5815
 21
97.9219
 31
0.0
  0
LINE
  8
0
 62
     0
 10
97.5815
 20
97.9219
 30
0.0
 11
83.5822
 21
97.9219
 31
0.0
  0
LINE
  8
0
 62
     0
 10
102.632
 20
97.9219
 30
0.0
 11
102.632
 21
97.3226
 31
0.0
  0
LINE
  8
0
 62
     0
 10
102.632
 20
97.3226
 30
0.0
 11
101.831
 21
97.3226
 31
0.0
  0
LINE
  8
0
 62
     0
 10
101.831
 20
97.3226
 30
0.0
 11
101.831
 21
84.522
 31
0.0
  0
LINE
  8
0
 62
     0
 10
101.831
 20
84.522
 30
0.0
 11
102.632
 21
84.522
 31
0.0
  0
LINE
  8
0
 62
     0
 10
102.632
 20
84.522
 30
0.0
 11
102.632
 21
83.9227
 31
0.0
  0
LINE
  8
0
 62
     0
 10
102.632
 20
83.9227
 30
0.0
 11
116.632
 21
83.9227
 31
0.0
  0
LINE
  8
0
 62
     0
 10
116.632
 20
83.9227
 30
0.0
 11
116.632
 21
84.522
 31
0.0
  0
LINE
  8
0
 62
     0
 10
116.632
 20
84.522
 30
0.0
 11
117.431
 21
84.522
 31
0.0
  0
LINE
  8
0
 62
     0
 10
117.431
 20
84.522
 30
0.0
 11
117.431
 21
97.3226
 31
0.0
  0
LINE
  8
0
 62
     0
 10
117.431
 20
97.3226
 30
0.0
 11
116.632
 21
97.3226
 31
0.0
  0
LINE
  8
0
 62
     0
 10
116.632
 20
97.3226
 30
0.0
 11
116.632
 21
97.9219
 31
0.0
  0
LINE
  8
0
 62
     0
 10
116.632
 20
97.9219
 30
0.0
 11
102.632
 21
97.9219
 31
0.0
  0
LINE
  8
0
 62
     0
 10
121.682
 20
97.9219
 30
0.0
 11
121.682
 21
97.3226
 31
0.0
  0
LINE
  8
0
 62
     0
 10
121.682
 20
97.3226
 30
0.0
 11
120.881
 21
97.3226
 31
0.0
  0
LINE
  8
0
 62
     0
 10
120.881
 20
97.3226
 30
0.0
 11
120.881
 21
84.522
 31
0.0
  0
LINE
  8
0
 62
     0
 10
120.881
 20
84.522
 30
0.0
 11
121.682
 21
84.522
 31
0.0
  0
LINE
  8
0
 62
     0
 10
121.682
 20
84.522
 30
0.0
 11
121.682
 21
83.9227
 31
0.0
  0
LINE
  8
0
 62
     0
 10
121.682
 20
83.9227
 30
0.0
 11
135.682
 21
83.9227
 31
0.0
  0
LINE
  8
0
 62
     0
 10
135.682
 20
83.9227
 30
0.0
 11
135.682
 21
84.522
 31
0.0
  0
LINE
  8
0
 62
     0
 10
135.682
 20
84.522
 30
0.0
 11
136.481
 21
84.522
 31
0.0
  0
LINE
  8
0
 62
     0
 10
136.481
 20
84.522
 30
0.0
 11
136.481
 21
97.3226
 31
0.0
  0
LINE
  8
0
 62
     0
 10
136.481
 20
97.3226
 30
0.0
 11
135.682
 21
97.3226
 31
0.0
  0
LINE
  8
0
 62
     0
 10
135.682
 20
97.3226
 30
0.0
 11
135.682
 21
97.9219
 31
0.0
  0
LINE
  8
0
 62
     0
 10
135.682
 20
97.9219
 30
0.0
 11
121.682
 21
97.9219
 31
0.0
  0
LINE
  8
0
 62
     0
 10
140.732
 20
97.9219
 30
0.0
 11
140.732
 21
97.3226
 31
0.0
  0
LINE
  8
0
 62
     0
 10
140.732
 20
97.3226
 30
0.0
 11
139.931
 21
97.3226
 31
0.0
  0
LINE
  8
0
 62
     0
 10
139.931
 20
97.3226
 30
0.0
 11
139.931
 21
84.522
 31
0.0
  0
LINE
  8
0
 62
     0
 10
139.931
 20
84.522
 30
0.0
 11
140.732
 21
84.522
 31
0.0
  0
LINE
  8
0
 62
     0
 10
140.732
 20
84.522
 30
0.0
 11
140.732
 21
83.9227
 31
0.0
  0
LINE
  8
0
 62
     0
 10
140.732
 20
83.9227
 30
0.0
 11
154.732
 21
83.9227
 31
0.0
  0
LINE
  8
0
 62
     0
 10
154.732
 20
83.9227
 30
0.0
 11
154.732
 21
84.522
 31
0.0
  0
LINE
  8
0
 62
     0
 10
154.732
 20
84.522
 30
0.0
 11
155.531
 21
84.522
 31
0.0
  0
LINE
  8
0
 62
     0
 10
155.531
 20
84.522
 30
0.0
 11
155.531
 21
97.3226
 31
0.0
  0
LINE
  8
0
 62
     0
 10
155.531
 20
97.3226
 30
0.0
 11
154.732
 21
97.3226
 31
0.0
  0
LINE
  8
0
 62
     0
 10
154.732
 20
97.3226
 30
0.0
 11
154.732
 21
97.9219
 31
0.0
  0
LINE
  8
0
 62
     0
 10
154.732
 20
97.9219
 30
0.0
 11
140.732
 21
97.9219
 31
0.0
  0
LINE
  8
0
 62
     0
 10
159.782
 20
97.9219
 30
0.0
 11
159.782
 21
97.3226
 31
0.0
  0
LINE
  8
0
 62
     0
 10
159.782
 20
97.3226
 30
0.0
 11
158.981
 21
97.3226
 31
0.0
  0
LINE
  8
0
 62
     0
 10
158.981
 20
97.3226
 30
0.0
 11
158.981
 21
84.522
 31
0.0
  0
LINE
  8
0
 62
     0
 10
158.981
 20
84.522
 30
0.0
 11
159.782
 21
84.522
 31
0.0
  0
LINE
  8
0
 62
     0
 10
159.782
 20
84.522
 30
0.0
 11
159.782
 21
83.9227
 31
0.0
  0
LINE
  8
0
 62
     0
 10
159.782
 20
83.9227
 30
0.0
 11
173.782
 21
83.9227
 31
0.0
  0
LINE
  8
0
 62
     0
 10
173.782
 20
83.9227
 30
0.0
 11
173.782
 21
84.522
 31
0.0
  0
LINE
  8
0
 62
     0
 10
173.782
 20
84.522
 30
0.0
 11
174.581
 21
84.522
 31
0.0
  0
LINE
  8
0
 62
     0
 10
174.581
 20
84.522
 30
0.0
 11
174.581
 21
97.3226
 31
0.0
  0
LINE
  8
0
 62
     0
 10
174.581
 20
97.3226
 30
0.0
 11
173.782
 21
97.3226
 31
0.0
  0
LINE
  8
0
 62
     0
 10
173.782
 20
97.3226
 30
0.0
 11
173.782
 21
97.9219
 31
0.0
  0
LINE
  8
0
 62
     0
 10
173.782
 20
97.9219
 30
0.0
 11
159.782
 21
97.9219
 31
0.0
  0
LINE
  8
0
 62
     0
 10
178.832
 20
97.9219
 30
0.0
 11
178.832
 21
97.3226
 31
0.0
  0
LINE
  8
0
 62
     0
 10
178.832
 20
97.3226
 30
0.0
 11
178.031
 21
97.3226
 31
0.0
  0
LINE
  8
0
 62
     0
 10
178.031
 20
97.3226
 30
0.0
 11
178.031
 21
84.522
 31
0.0
  0
LINE
  8
0
 62
     0
 10
178.031
 20
84.522
 30
0.0
 11
178.832
 21
84.522
 31
0.0
  0
LINE
  8
0
 62
     0
 10
178.832
 20
84.522
 30
0.0
 11
178.832
 21
83.9227
 31
0.0
  0
LINE
  8
0
 62
     0
 10
178.832
 20
83.9227
 30
0.0
 11
192.832
 21
83.9227
 31
0.0
  0
LINE
  8
0
 62
     0
 10
192.832
 20
83.9227
 30
0.0
 11
192.832
 21
84.522
 31
0.0
  0
LINE
  8
0
 62
     0
 10
192.832
 20
84.522
 30
0.0
 11
193.631
 21
84.522
 31
0.0
  0
LINE
  8
0
 62
     0
 10
193.631
 20
84.522
 30
0.0
 11
193.631
 21
97.3226
 31
0.0
  0
LINE
  8
0
 62
     0
 10
193.631
 20
97.3226
 30
0.0
 11
192.832
 21
97.3226
 31
0.0
  0
LINE
  8
0
 62
     0
 10
192.832
 20
97.3226
 30
0.0
 11
192.832
 21
97.9219
 31
0.0
  0
LINE
  8
0
 62
     0
 10
192.832
 20
97.9219
 30
0.0
 11
178.832
 21
97.9219
 31
0.0
  0
LINE
  8
0
 62
     0
 10
197.882
 20
97.9219
 30
0.0
 11
197.882
 21
97.3226
 31
0.0
  0
LINE
  8
0
 62
     0
 10
197.882
 20
97.3226
 30
0.0
 11
197.081
 21
97.3226
 31
0.0
  0
LINE
  8
0
 62
     0
 10
197.081
 20
97.3226
 30
0.0
 11
197.081
 21
84.522
 31
0.0
  0
LINE
  8
0
 62
     0
 10
197.081
 20
84.522
 30
0.0
 11
197.882
 21
84.522
 31
0.0
  0
LINE
  8
0
 62
     0
 10
197.882
 20
84.522
 30
0.0
 11
197.882
 21
83.9227
 31
0.0
  0
LINE
  8
0
 62
     0
 10
197.882
 20
83.9227
 30
0.0
 11
211.882
 21
83.9227
 31
0.0
  0
LINE
  8
0
 62
     0
 10
211.882
 20
83.9227
 30
0.0
 11
211.882
 21
84.522
 31
0.0
  0
LINE
  8
0
 62
     0
 10
211.882
 20
84.522
 30
0.0
 11
212.681
 21
84.522
 31
0.0
  0
LINE
  8
0
 62
     0
 10
212.681
 20
84.522
 30
0.0
 11
212.681
 21
97.3226
 31
0.0
  0
LINE
  8
0
 62
     0
 10
212.681
 20
97.3226
 30
0.0
 11
211.882
 21
97.3226
 31
0.0
  0
LINE
  8
0
 62
     0
 10
211.882
 20
97.3226
 30
0.0
 11
211.882
 21
97.9219
 31
0.0
  0
LINE
  8
0
 62
     0
 10
211.882
 20
97.9219
 30
0.0
 11
197.882
 21
97.9219
 31
0.0
  0
LINE
  8
0
 62
     0
 10
216.932
 20
97.9219
 30
0.0
 11
216.932
 21
97.3226
 31
0.0
  0
LINE
  8
0
 62
     0
 10
216.932
 20
97.3226
 30
0.0
 11
216.131
 21
97.3226
 31
0.0
  0
LINE
  8
0
 62
     0
 10
216.131
 20
97.3226
 30
0.0
 11
216.131
 21
84.522
 31
0.0
  0
LINE
  8
0
 62
     0
 10
216.131
 20
84.522
 30
0.0
 11
216.932
 21
84.522
 31
0.0
  0
LINE
  8
0
 62
     0
 10
216.932
 20
84.522
 30
0.0
 11
216.932
 21
83.9227
 31
0.0
  0
LINE
  8
0
 62
     0
 10
216.932
 20
83.9227
 30
0.0
 11
230.932
 21
83.9227
 31
0.0
  0
LINE
  8
0
 62
     0
 10
230.932
 20
83.9227
 30
0.0
 11
230.932
 21
84.522
 31
0.0
  0
LINE
  8
0
 62
     0
 10
230.932
 20
84.522
 30
0.0
 11
231.731
 21
84.522
 31
0.0
  0
LINE
  8
0
 62
     0
 10
231.731
 20
84.522
 30
0.0
 11
231.731
 21
97.3226
 31
0.0
  0
LINE
  8
0
 62
     0
 10
231.731
 20
97.3226
 30
0.0
 11
230.932
 21
97.3226
 31
0.0
  0
LINE
  8
0
 62
     0
 10
230.932
 20
97.3226
 30
0.0
 11
230.932
 21
97.9219
 31
0.0
  0
LINE
  8
0
 62
     0
 10
230.932
 20
97.9219
 30
0.0
 11
216.932
 21
97.9219
 31
0.0
  0
LINE
  8
0
 62
     0
 10
235.982
 20
97.9219
 30
0.0
 11
235.982
 21
97.3226
 31
0.0
  0
LINE
  8
0
 62
     0
 10
235.982
 20
97.3226
 30
0.0
 11
235.181
 21
97.3226
 31
0.0
  0
LINE
  8
0
 62
     0
 10
235.181
 20
97.3226
 30
0.0
 11
235.181
 21
84.522
 31
0.0
  0
LINE
  8
0
 62
     0
 10
235.181
 20
84.522
 30
0.0
 11
235.982
 21
84.522
 31
0.0
  0
LINE
  8
0
 62
     0
 10
235.982
 20
84.522
 30
0.0
 11
235.982
 21
83.9227
 31
0.0
  0
LINE
  8
0
 62
     0
 10
235.982
 20
83.9227
 30
0.0
 11
249.982
 21
83.9227
 31
0.0
  0
LINE
  8
0
 62
     0
 10
249.982
 20
83.9227
 30
0.0
 11
249.982
 21
84.522
 31
0.0
  0
LINE
  8
0
 62
     0
 10
249.982
 20
84.522
 30
0.0
 11
250.781
 21
84.522
 31
0.0
  0
LINE
  8
0
 62
     0
 10
250.781
 20
84.522
 30
0.0
 11
250.781
 21
97.3226
 31
0.0
  0
LINE
  8
0
 62
     0
 10
250.781
 20
97.3226
 30
0.0
 11
249.982
 21
97.3226
 31
0.0
  0
LINE
  8
0
 62
     0
 10
249.982
 20
97.3226
 30
0.0
 11
249.982
 21
97.9219
 31
0.0
  0
LINE
  8
0
 62
     0
 10
249.982
 20
97.9219
 30
0.0
 11
235.982
 21
97.9219
 31
0.0
  0
LINE
  8
0
 62
     0
 10
255.032
 20
97.9219
 30
0.0
 11
255.032
 21
97.3226
 31
0.0
  0
LINE
  8
0
 62
     0
 10
255.032
 20
97.3226
 30
0.0
 11
254.231
 21
97.3226
 31
0.0
  0
LINE
  8
0
 62
     0
 10
254.231
 20
97.3226
 30
0.0
 11
254.231
 21
84.522
 31
0.0
  0
LINE
  8
0
 62
     0
 10
254.231
 20
84.522
 30
0.0
 11
255.032
 21
84.522
 31
0.0
  0
LINE
  8
0
 62
     0
 10
255.032
 20
84.522
 30
0.0
 11
255.032
 21
83.9227
 31
0.0
  0
LINE
  8
0
 62
     0
 10
255.032
 20
83.9227
 30
0.0
 11
269.032
 21
83.9227
 31
0.0
  0
LINE
  8
0
 62
     0
 10
269.032
 20
83.9227
 30
0.0
 11
269.032
 21
84.522
 31
0.0
  0
LINE
  8
0
 62
     0
 10
269.032
 20
84.522
 30
0.0
 11
269.831
 21
84.522
 31
0.0
  0
LINE
  8
0
 62
     0
 10
269.831
 20
84.522
 30
0.0
 11
269.831
 21
97.3226
 31
0.0
  0
LINE
  8
0
 62
     0
 10
269.831
 20
97.3226
 30
0.0
 11
269.032
 21
97.3226
 31
0.0
  0
LINE
  8
0
 62
     0
 10
269.032
 20
97.3226
 30
0.0
 11
269.032
 21
97.9219
 31
0.0
  0
LINE
  8
0
 62
     0
 10
269.032
 20
97.9219
 30
0.0
 11
255.032
 21
97.9219
 31
0.0
  0
LINE
  8
0
 62
     0
 10
274.082
 20
97.9219
 30
0.0
 11
274.082
 21
97.3226
 31
0.0
  0
LINE
  8
0
 62
     0
 10
274.082
 20
97.3226
 30
0.0
 11
273.281
 21
97.3226
 31
0.0
  0
LINE
  8
0
 62
     0
 10
273.281
 20
97.3226
 30
0.0
 11
273.281
 21
84.522
 31
0.0
  0
LINE
  8
0
 62
     0
 10
273.281
 20
84.522
 30
0.0
 11
274.082
 21
84.522
 31
0.0
  0
LINE
  8
0
 62
     0
 10
274.082
 20
84.522
 30
0.0
 11
274.082
 21
83.9227
 31
0.0
  0
LINE
  8
0
 62
     0
 10
274.082
 20
83.9227
 30
0.0
 11
288.082
 21
83.9227
 31
0.0
  0
LINE
  8
0
 62
     0
 10
288.082
 20
83.9227
 30
0.0
 11
288.082
 21
84.522
 31
0.0
  0
LINE
  8
0
 62
     0
 10
288.082
 20
84.522
 30
0.0
 11
288.881
 21
84.522
 31
0.0
  0
LINE
  8
0
 62
     0
 10
288.881
 20
84.522
 30
0.0
 11
288.881
 21
97.3226
 31
0.0
  0
LINE
  8
0
 62
     0
 10
288.881
 20
97.3226
 30
0.0
 11
288.082
 21
97.3226
 31
0.0
  0
LINE
  8
0
 62
     0
 10
288.082
 20
97.3226
 30
0.0
 11
288.082
 21
97.9219
 31
0.0
  0
LINE
  8
0
 62
     0
 10
288.082
 20
97.9219
 30
0.0
 11
274.082
 21
97.9219
 31
0.0
  0
LINE
  8
0
 62
     0
 10
293.132
 20
97.9219
 30
0.0
 11
293.132
 21
97.3226
 31
0.0
  0
LINE
  8
0
 62
     0
 10
293.132
 20
97.3226
 30
0.0
 11
292.331
 21
97.3226
 31
0.0
  0
LINE
  8
0
 62
     0
 10
292.331
 20
97.3226
 30
0.0
 11
292.331
 21
84.522
 31
0.0
  0
LINE
  8
0
 62
     0
 10
292.331
 20
84.522
 30
0.0
 11
293.132
 21
84.522
 31
0.0
  0
LINE
  8
0
 62
     0
 10
293.132
 20
84.522
 30
0.0
 11
293.132
 21
83.9227
 31
0.0
  0
LINE
  8
0
 62
     0
 10
293.132
 20
83.9227
 30
0.0
 11
307.132
 21
83.9227
 31
0.0
  0
LINE
  8
0
 62
     0
 10
307.132
 20
83.9227
 30
0.0
 11
307.132
 21
84.522
 31
0.0
  0
LINE
  8
0
 62
     0
 10
307.132
 20
84.522
 30
0.0
 11
307.931
 21
84.522
 31
0.0
  0
LINE
  8
0
 62
     0
 10
307.931
 20
84.522
 30
0.0
 11
307.931
 21
97.3226
 31
0.0
  0
LINE
  8
0
 62
     0
 10
307.931
 20
97.3226
 30
0.0
 11
307.132
 21
97.3226
 31
0.0
  0
LINE
  8
0
 62
     0
 10
307.132
 20
97.3226
 30
0.0
 11
307.132
 21
97.9219
 31
0.0
  0
LINE
  8
0
 62
     0
 10
307.132
 20
97.9219
 30
0.0
 11
293.132
 21
97.9219
 31
0.0
  0
LINE
  8
0
 62
     0
 10
312.182
 20
97.9219
 30
0.0
 11
312.182
 21
97.3226
 31
0.0
  0
LINE
  8
0
 62
     0
 10
312.182
 20
97.3226
 30
0.0
 11
311.381
 21
97.3226
 31
0.0
  0
LINE
  8
0
 62
     0
 10
311.381
 20
97.3226
 30
0.0
 11
311.381
 21
84.522
 31
0.0
  0
LINE
  8
0
 62
     0
 10
311.381
 20
84.522
 30
0.0
 11
312.182
 21
84.522
 31
0.0
  0
LINE
  8
0
 62
     0
 10
312.182
 20
84.522
 30
0.0
 11
312.182
 21
83.9227
 31
0.0
  0
LINE
  8
0
 62
     0
 10
312.182
 20
83.9227
 30
0.0
 11
326.182
 21
83.9227
 31
0.0
  0
LINE
  8
0
 62
     0
 10
326.182
 20
83.9227
 30
0.0
 11
326.182
 21
84.522
 31
0.0
  0
LINE
  8
0
 62
     0
 10
326.182
 20
84.522
 30
0.0
 11
326.981
 21
84.522
 31
0.0
  0
LINE
  8
0
 62
     0
 10
326.981
 20
84.522
 30
0.0
 11
326.981
 21
97.3226
 31
0.0
  0
LINE
  8
0
 62
     0
 10
326.981
 20
97.3226
 30
0.0
 11
326.182
 21
97.3226
 31
0.0
  0
LINE
  8
0
 62
     0
 10
326.182
 20
97.3226
 30
0.0
 11
326.182
 21
97.9219
 31
0.0
  0
LINE
  8
0
 62
     0
 10
326.182
 20
97.9219
 30
0.0
 11
312.182
 21
97.9219
 31
0.0
  0
LINE
  8
0
 62
     0
 10
374.096
 20
97.9219
 30
0.0
 11
374.096
 21
97.3226
 31
0.0
  0
LINE
  8
0
 62
     0
 10
374.096
 20
97.3226
 30
0.0
 11
373.295
 21
97.3226
 31
0.0
  0
LINE
  8
0
 62
     0
 10
373.295
 20
97.3226
 30
0.0
 11
373.295
 21
84.522
 31
0.0
  0
LINE
  8
0
 62
     0
 10
373.295
 20
84.522
 30
0.0
 11
374.096
 21
84.522
 31
0.0
  0
LINE
  8
0
 62
     0
 10
374.096
 20
84.522
 30
0.0
 11
374.096
 21
83.9227
 31
0.0
  0
LINE
  8
0
 62
     0
 10
374.096
 20
83.9227
 30
0.0
 11
388.094
 21
83.9227
 31
0.0
  0
LINE
  8
0
 62
     0
 10
388.094
 20
83.9227
 30
0.0
 11
388.094
 21
84.522
 31
0.0
  0
LINE
  8
0
 62
     0
 10
388.094
 20
84.522
 30
0.0
 11
388.895
 21
84.522
 31
0.0
  0
LINE
  8
0
 62
     0
 10
388.895
 20
84.522
 30
0.0
 11
388.895
 21
97.3226
 31
0.0
  0
LINE
  8
0
 62
     0
 10
388.895
 20
97.3226
 30
0.0
 11
388.094
 21
97.3226
 31
0.0
  0
LINE
  8
0
 62
     0
 10
388.094
 20
97.3226
 30
0.0
 11
388.094
 21
97.9219
 31
0.0
  0
LINE
  8
0
 62
     0
 10
388.094
 20
97.9219
 30
0.0
 11
374.096
 21
97.9219
 31
0.0
  0
LINE
  8
0
 62
     0
 10
393.146
 20
97.9219
 30
0.0
 11
393.146
 21
97.3226
 31
0.0
  0
LINE
  8
0
 62
     0
 10
393.146
 20
97.3226
 30
0.0
 11
392.345
 21
97.3226
 31
0.0
  0
LINE
  8
0
 62
     0
 10
392.345
 20
97.3226
 30
0.0
 11
392.345
 21
84.522
 31
0.0
  0
LINE
  8
0
 62
     0
 10
392.345
 20
84.522
 30
0.0
 11
393.146
 21
84.522
 31
0.0
  0
LINE
  8
0
 62
     0
 10
393.146
 20
84.522
 30
0.0
 11
393.146
 21
83.9227
 31
0.0
  0
LINE
  8
0
 62
     0
 10
393.146
 20
83.9227
 30
0.0
 11
407.144
 21
83.9227
 31
0.0
  0
LINE
  8
0
 62
     0
 10
407.144
 20
83.9227
 30
0.0
 11
407.144
 21
84.522
 31
0.0
  0
LINE
  8
0
 62
     0
 10
407.144
 20
84.522
 30
0.0
 11
407.945
 21
84.522
 31
0.0
  0
LINE
  8
0
 62
     0
 10
407.945
 20
84.522
 30
0.0
 11
407.945
 21
97.3226
 31
0.0
  0
LINE
  8
0
 62
     0
 10
407.945
 20
97.3226
 30
0.0
 11
407.144
 21
97.3226
 31
0.0
  0
LINE
  8
0
 62
     0
 10
407.144
 20
97.3226
 30
0.0
 11
407.144
 21
97.9219
 31
0.0
  0
LINE
  8
0
 62
     0
 10
407.144
 20
97.9219
 30
0.0
 11
393.146
 21
97.9219
 31
0.0
  0
LINE
  8
0
 62
     0
 10
2.61965
 20
126.497
 30
0.0
 11
2.61965
 21
125.898
 31
0.0
  0
LINE
  8
0
 62
     0
 10
2.61965
 20
125.898
 30
0.0
 11
1.81901
 21
125.898
 31
0.0
  0
LINE
  8
0
 62
     0
 10
1.81901
 20
125.898
 30
0.0
 11
1.81901
 21
113.097
 31
0.0
  0
LINE
  8
0
 62
     0
 10
1.81901
 20
113.097
 30
0.0
 11
2.61965
 21
113.097
 31
0.0
  0
LINE
  8
0
 62
     0
 10
2.61965
 20
113.097
 30
0.0
 11
2.61965
 21
112.498
 31
0.0
  0
LINE
  8
0
 62
     0
 10
2.61965
 20
112.498
 30
0.0
 11
16.6192
 21
112.498
 31
0.0
  0
LINE
  8
0
 62
     0
 10
16.6192
 20
112.498
 30
0.0
 11
16.6192
 21
113.097
 31
0.0
  0
LINE
  8
0
 62
     0
 10
16.6192
 20
113.097
 30
0.0
 11
17.4198
 21
113.097
 31
0.0
  0
LINE
  8
0
 62
     0
 10
17.4198
 20
113.097
 30
0.0
 11
17.4198
 21
125.898
 31
0.0
  0
LINE
  8
0
 62
     0
 10
17.4198
 20
125.898
 30
0.0
 11
16.6192
 21
125.898
 31
0.0
  0
LINE
  8
0
 62
     0
 10
16.6192
 20
125.898
 30
0.0
 11
16.6192
 21
126.497
 31
0.0
  0
LINE
  8
0
 62
     0
 10
16.6192
 20
126.497
 30
0.0
 11
2.61965
 21
126.497
 31
0.0
  0
LINE
  8
0
 62
     0
 10
21.6697
 20
126.497
 30
0.0
 11
21.6697
 21
125.898
 31
0.0
  0
LINE
  8
0
 62
     0
 10
21.6697
 20
125.898
 30
0.0
 11
20.869
 21
125.898
 31
0.0
  0
LINE
  8
0
 62
     0
 10
20.869
 20
125.898
 30
0.0
 11
20.869
 21
113.097
 31
0.0
  0
LINE
  8
0
 62
     0
 10
20.869
 20
113.097
 30
0.0
 11
21.6697
 21
113.097
 31
0.0
  0
LINE
  8
0
 62
     0
 10
21.6697
 20
113.097
 30
0.0
 11
21.6697
 21
112.498
 31
0.0
  0
LINE
  8
0
 62
     0
 10
21.6697
 20
112.498
 30
0.0
 11
35.669
 21
112.498
 31
0.0
  0
LINE
  8
0
 62
     0
 10
35.669
 20
112.498
 30
0.0
 11
35.669
 21
113.097
 31
0.0
  0
LINE
  8
0
 62
     0
 10
35.669
 20
113.097
 30
0.0
 11
36.4698
 21
113.097
 31
0.0
  0
LINE
  8
0
 62
     0
 10
36.4698
 20
113.097
 30
0.0
 11
36.4698
 21
125.898
 31
0.0
  0
LINE
  8
0
 62
     0
 10
36.4698
 20
125.898
 30
0.0
 11
35.669
 21
125.898
 31
0.0
  0
LINE
  8
0
 62
     0
 10
35.669
 20
125.898
 30
0.0
 11
35.669
 21
126.497
 31
0.0
  0
LINE
  8
0
 62
     0
 10
35.669
 20
126.497
 30
0.0
 11
21.6697
 21
126.497
 31
0.0
  0
LINE
  8
0
 62
     0
 10
40.7197
 20
126.497
 30
0.0
 11
40.7197
 21
125.898
 31
0.0
  0
LINE
  8
0
 62
     0
 10
40.7197
 20
125.898
 30
0.0
 11
39.9189
 21
125.898
 31
0.0
  0
LINE
  8
0
 62
     0
 10
39.9189
 20
125.898
 30
0.0
 11
39.9189
 21
113.097
 31
0.0
  0
LINE
  8
0
 62
     0
 10
39.9189
 20
113.097
 30
0.0
 11
40.7197
 21
113.097
 31
0.0
  0
LINE
  8
0
 62
     0
 10
40.7197
 20
113.097
 30
0.0
 11
40.7197
 21
112.498
 31
0.0
  0
LINE
  8
0
 62
     0
 10
40.7197
 20
112.498
 30
0.0
 11
54.719
 21
112.498
 31
0.0
  0
LINE
  8
0
 62
     0
 10
54.719
 20
112.498
 30
0.0
 11
54.719
 21
113.097
 31
0.0
  0
LINE
  8
0
 62
     0
 10
54.719
 20
113.097
 30
0.0
 11
55.5198
 21
113.097
 31
0.0
  0
LINE
  8
0
 62
     0
 10
55.5198
 20
113.097
 30
0.0
 11
55.5198
 21
125.898
 31
0.0
  0
LINE
  8
0
 62
     0
 10
55.5198
 20
125.898
 30
0.0
 11
54.719
 21
125.898
 31
0.0
  0
LINE
  8
0
 62
     0
 10
54.719
 20
125.898
 30
0.0
 11
54.719
 21
126.497
 31
0.0
  0
LINE
  8
0
 62
     0
 10
54.719
 20
126.497
 30
0.0
 11
40.7197
 21
126.497
 31
0.0
  0
LINE
  8
0
 62
     0
 10
59.7697
 20
126.497
 30
0.0
 11
59.7697
 21
125.898
 31
0.0
  0
LINE
  8
0
 62
     0
 10
59.7697
 20
125.898
 30
0.0
 11
58.9689
 21
125.898
 31
0.0
  0
LINE
  8
0
 62
     0
 10
58.9689
 20
125.898
 30
0.0
 11
58.9689
 21
113.097
 31
0.0
  0
LINE
  8
0
 62
     0
 10
58.9689
 20
113.097
 30
0.0
 11
59.7697
 21
113.097
 31
0.0
  0
LINE
  8
0
 62
     0
 10
59.7697
 20
113.097
 30
0.0
 11
59.7697
 21
112.498
 31
0.0
  0
LINE
  8
0
 62
     0
 10
59.7697
 20
112.498
 30
0.0
 11
73.769
 21
112.498
 31
0.0
  0
LINE
  8
0
 62
     0
 10
73.769
 20
112.498
 30
0.0
 11
73.769
 21
113.097
 31
0.0
  0
LINE
  8
0
 62
     0
 10
73.769
 20
113.097
 30
0.0
 11
74.5698
 21
113.097
 31
0.0
  0
LINE
  8
0
 62
     0
 10
74.5698
 20
113.097
 30
0.0
 11
74.5698
 21
125.898
 31
0.0
  0
LINE
  8
0
 62
     0
 10
74.5698
 20
125.898
 30
0.0
 11
73.769
 21
125.898
 31
0.0
  0
LINE
  8
0
 62
     0
 10
73.769
 20
125.898
 30
0.0
 11
73.769
 21
126.497
 31
0.0
  0
LINE
  8
0
 62
     0
 10
73.769
 20
126.497
 30
0.0
 11
59.7697
 21
126.497
 31
0.0
  0
LINE
  8
0
 62
     0
 10
83.5822
 20
126.497
 30
0.0
 11
83.5822
 21
125.898
 31
0.0
  0
LINE
  8
0
 62
     0
 10
83.5822
 20
125.898
 30
0.0
 11
82.7814
 21
125.898
 31
0.0
  0
LINE
  8
0
 62
     0
 10
82.7814
 20
125.898
 30
0.0
 11
82.7814
 21
113.097
 31
0.0
  0
LINE
  8
0
 62
     0
 10
82.7814
 20
113.097
 30
0.0
 11
83.5822
 21
113.097
 31
0.0
  0
LINE
  8
0
 62
     0
 10
83.5822
 20
113.097
 30
0.0
 11
83.5822
 21
112.498
 31
0.0
  0
LINE
  8
0
 62
     0
 10
83.5822
 20
112.498
 30
0.0
 11
97.5815
 21
112.498
 31
0.0
  0
LINE
  8
0
 62
     0
 10
97.5815
 20
112.498
 30
0.0
 11
97.5815
 21
113.097
 31
0.0
  0
LINE
  8
0
 62
     0
 10
97.5815
 20
113.097
 30
0.0
 11
98.3809
 21
113.097
 31
0.0
  0
LINE
  8
0
 62
     0
 10
98.3809
 20
113.097
 30
0.0
 11
98.3809
 21
125.898
 31
0.0
  0
LINE
  8
0
 62
     0
 10
98.3809
 20
125.898
 30
0.0
 11
97.5815
 21
125.898
 31
0.0
  0
LINE
  8
0
 62
     0
 10
97.5815
 20
125.898
 30
0.0
 11
97.5815
 21
126.497
 31
0.0
  0
LINE
  8
0
 62
     0
 10
97.5815
 20
126.497
 30
0.0
 11
83.5822
 21
126.497
 31
0.0
  0
LINE
  8
0
 62
     0
 10
107.395
 20
126.497
 30
0.0
 11
107.395
 21
125.898
 31
0.0
  0
LINE
  8
0
 62
     0
 10
107.395
 20
125.898
 30
0.0
 11
106.594
 21
125.898
 31
0.0
  0
LINE
  8
0
 62
     0
 10
106.594
 20
125.898
 30
0.0
 11
106.594
 21
113.097
 31
0.0
  0
LINE
  8
0
 62
     0
 10
106.594
 20
113.097
 30
0.0
 11
107.395
 21
113.097
 31
0.0
  0
LINE
  8
0
 62
     0
 10
107.395
 20
113.097
 30
0.0
 11
107.395
 21
112.498
 31
0.0
  0
LINE
  8
0
 62
     0
 10
107.395
 20
112.498
 30
0.0
 11
121.394
 21
112.498
 31
0.0
  0
LINE
  8
0
 62
     0
 10
121.394
 20
112.498
 30
0.0
 11
121.394
 21
113.097
 31
0.0
  0
LINE
  8
0
 62
     0
 10
121.394
 20
113.097
 30
0.0
 11
122.195
 21
113.097
 31
0.0
  0
LINE
  8
0
 62
     0
 10
122.195
 20
113.097
 30
0.0
 11
122.195
 21
125.898
 31
0.0
  0
LINE
  8
0
 62
     0
 10
122.195
 20
125.898
 30
0.0
 11
121.394
 21
125.898
 31
0.0
  0
LINE
  8
0
 62
     0
 10
121.394
 20
125.898
 30
0.0
 11
121.394
 21
126.497
 31
0.0
  0
LINE
  8
0
 62
     0
 10
121.394
 20
126.497
 30
0.0
 11
107.395
 21
126.497
 31
0.0
  0
LINE
  8
0
 62
     0
 10
126.445
 20
126.497
 30
0.0
 11
126.445
 21
125.898
 31
0.0
  0
LINE
  8
0
 62
     0
 10
126.445
 20
125.898
 30
0.0
 11
125.644
 21
125.898
 31
0.0
  0
LINE
  8
0
 62
     0
 10
125.644
 20
125.898
 30
0.0
 11
125.644
 21
113.097
 31
0.0
  0
LINE
  8
0
 62
     0
 10
125.644
 20
113.097
 30
0.0
 11
126.445
 21
113.097
 31
0.0
  0
LINE
  8
0
 62
     0
 10
126.445
 20
113.097
 30
0.0
 11
126.445
 21
112.498
 31
0.0
  0
LINE
  8
0
 62
     0
 10
126.445
 20
112.498
 30
0.0
 11
140.444
 21
112.498
 31
0.0
  0
LINE
  8
0
 62
     0
 10
140.444
 20
112.498
 30
0.0
 11
140.444
 21
113.097
 31
0.0
  0
LINE
  8
0
 62
     0
 10
140.444
 20
113.097
 30
0.0
 11
141.245
 21
113.097
 31
0.0
  0
LINE
  8
0
 62
     0
 10
141.245
 20
113.097
 30
0.0
 11
141.245
 21
125.898
 31
0.0
  0
LINE
  8
0
 62
     0
 10
141.245
 20
125.898
 30
0.0
 11
140.444
 21
125.898
 31
0.0
  0
LINE
  8
0
 62
     0
 10
140.444
 20
125.898
 30
0.0
 11
140.444
 21
126.497
 31
0.0
  0
LINE
  8
0
 62
     0
 10
140.444
 20
126.497
 30
0.0
 11
126.445
 21
126.497
 31
0.0
  0
LINE
  8
0
 62
     0
 10
145.495
 20
126.497
 30
0.0
 11
145.495
 21
125.898
 31
0.0
  0
LINE
  8
0
 62
     0
 10
145.495
 20
125.898
 30
0.0
 11
144.694
 21
125.898
 31
0.0
  0
LINE
  8
0
 62
     0
 10
144.694
 20
125.898
 30
0.0
 11
144.694
 21
113.097
 31
0.0
  0
LINE
  8
0
 62
     0
 10
144.694
 20
113.097
 30
0.0
 11
145.495
 21
113.097
 31
0.0
  0
LINE
  8
0
 62
     0
 10
145.495
 20
113.097
 30
0.0
 11
145.495
 21
112.498
 31
0.0
  0
LINE
  8
0
 62
     0
 10
145.495
 20
112.498
 30
0.0
 11
159.494
 21
112.498
 31
0.0
  0
LINE
  8
0
 62
     0
 10
159.494
 20
112.498
 30
0.0
 11
159.494
 21
113.097
 31
0.0
  0
LINE
  8
0
 62
     0
 10
159.494
 20
113.097
 30
0.0
 11
160.295
 21
113.097
 31
0.0
  0
LINE
  8
0
 62
     0
 10
160.295
 20
113.097
 30
0.0
 11
160.295
 21
125.898
 31
0.0
  0
LINE
  8
0
 62
     0
 10
160.295
 20
125.898
 30
0.0
 11
159.494
 21
125.898
 31
0.0
  0
LINE
  8
0
 62
     0
 10
159.494
 20
125.898
 30
0.0
 11
159.494
 21
126.497
 31
0.0
  0
LINE
  8
0
 62
     0
 10
159.494
 20
126.497
 30
0.0
 11
145.495
 21
126.497
 31
0.0
  0
LINE
  8
0
 62
     0
 10
164.545
 20
126.497
 30
0.0
 11
164.545
 21
125.898
 31
0.0
  0
LINE
  8
0
 62
     0
 10
164.545
 20
125.898
 30
0.0
 11
163.744
 21
125.898
 31
0.0
  0
LINE
  8
0
 62
     0
 10
163.744
 20
125.898
 30
0.0
 11
163.744
 21
113.097
 31
0.0
  0
LINE
  8
0
 62
     0
 10
163.744
 20
113.097
 30
0.0
 11
164.545
 21
113.097
 31
0.0
  0
LINE
  8
0
 62
     0
 10
164.545
 20
113.097
 30
0.0
 11
164.545
 21
112.498
 31
0.0
  0
LINE
  8
0
 62
     0
 10
164.545
 20
112.498
 30
0.0
 11
178.544
 21
112.498
 31
0.0
  0
LINE
  8
0
 62
     0
 10
178.544
 20
112.498
 30
0.0
 11
178.544
 21
113.097
 31
0.0
  0
LINE
  8
0
 62
     0
 10
178.544
 20
113.097
 30
0.0
 11
179.345
 21
113.097
 31
0.0
  0
LINE
  8
0
 62
     0
 10
179.345
 20
113.097
 30
0.0
 11
179.345
 21
125.898
 31
0.0
  0
LINE
  8
0
 62
     0
 10
179.345
 20
125.898
 30
0.0
 11
178.544
 21
125.898
 31
0.0
  0
LINE
  8
0
 62
     0
 10
178.544
 20
125.898
 30
0.0
 11
178.544
 21
126.497
 31
0.0
  0
LINE
  8
0
 62
     0
 10
178.544
 20
126.497
 30
0.0
 11
164.545
 21
126.497
 31
0.0
  0
LINE
  8
0
 62
     0
 10
188.357
 20
126.497
 30
0.0
 11
188.357
 21
125.898
 31
0.0
  0
LINE
  8
0
 62
     0
 10
188.357
 20
125.898
 30
0.0
 11
187.556
 21
125.898
 31
0.0
  0
LINE
  8
0
 62
     0
 10
187.556
 20
125.898
 30
0.0
 11
187.556
 21
113.097
 31
0.0
  0
LINE
  8
0
 62
     0
 10
187.556
 20
113.097
 30
0.0
 11
188.357
 21
113.097
 31
0.0
  0
LINE
  8
0
 62
     0
 10
188.357
 20
113.097
 30
0.0
 11
188.357
 21
112.498
 31
0.0
  0
LINE
  8
0
 62
     0
 10
188.357
 20
112.498
 30
0.0
 11
202.357
 21
112.498
 31
0.0
  0
LINE
  8
0
 62
     0
 10
202.357
 20
112.498
 30
0.0
 11
202.357
 21
113.097
 31
0.0
  0
LINE
  8
0
 62
     0
 10
202.357
 20
113.097
 30
0.0
 11
203.156
 21
113.097
 31
0.0
  0
LINE
  8
0
 62
     0
 10
203.156
 20
113.097
 30
0.0
 11
203.156
 21
125.898
 31
0.0
  0
LINE
  8
0
 62
     0
 10
203.156
 20
125.898
 30
0.0
 11
202.357
 21
125.898
 31
0.0
  0
LINE
  8
0
 62
     0
 10
202.357
 20
125.898
 30
0.0
 11
202.357
 21
126.497
 31
0.0
  0
LINE
  8
0
 62
     0
 10
202.357
 20
126.497
 30
0.0
 11
188.357
 21
126.497
 31
0.0
  0
LINE
  8
0
 62
     0
 10
207.407
 20
126.497
 30
0.0
 11
207.407
 21
125.898
 31
0.0
  0
LINE
  8
0
 62
     0
 10
207.407
 20
125.898
 30
0.0
 11
206.606
 21
125.898
 31
0.0
  0
LINE
  8
0
 62
     0
 10
206.606
 20
125.898
 30
0.0
 11
206.606
 21
113.097
 31
0.0
  0
LINE
  8
0
 62
     0
 10
206.606
 20
113.097
 30
0.0
 11
207.407
 21
113.097
 31
0.0
  0
LINE
  8
0
 62
     0
 10
207.407
 20
113.097
 30
0.0
 11
207.407
 21
112.498
 31
0.0
  0
LINE
  8
0
 62
     0
 10
207.407
 20
112.498
 30
0.0
 11
221.407
 21
112.498
 31
0.0
  0
LINE
  8
0
 62
     0
 10
221.407
 20
112.498
 30
0.0
 11
221.407
 21
113.097
 31
0.0
  0
LINE
  8
0
 62
     0
 10
221.407
 20
113.097
 30
0.0
 11
222.206
 21
113.097
 31
0.0
  0
LINE
  8
0
 62
     0
 10
222.206
 20
113.097
 30
0.0
 11
222.206
 21
125.898
 31
0.0
  0
LINE
  8
0
 62
     0
 10
222.206
 20
125.898
 30
0.0
 11
221.407
 21
125.898
 31
0.0
  0
LINE
  8
0
 62
     0
 10
221.407
 20
125.898
 30
0.0
 11
221.407
 21
126.497
 31
0.0
  0
LINE
  8
0
 62
     0
 10
221.407
 20
126.497
 30
0.0
 11
207.407
 21
126.497
 31
0.0
  0
LINE
  8
0
 62
     0
 10
226.457
 20
126.497
 30
0.0
 11
226.457
 21
125.898
 31
0.0
  0
LINE
  8
0
 62
     0
 10
226.457
 20
125.898
 30
0.0
 11
225.656
 21
125.898
 31
0.0
  0
LINE
  8
0
 62
     0
 10
225.656
 20
125.898
 30
0.0
 11
225.656
 21
113.097
 31
0.0
  0
LINE
  8
0
 62
     0
 10
225.656
 20
113.097
 30
0.0
 11
226.457
 21
113.097
 31
0.0
  0
LINE
  8
0
 62
     0
 10
226.457
 20
113.097
 30
0.0
 11
226.457
 21
112.498
 31
0.0
  0
LINE
  8
0
 62
     0
 10
226.457
 20
112.498
 30
0.0
 11
240.457
 21
112.498
 31
0.0
  0
LINE
  8
0
 62
     0
 10
240.457
 20
112.498
 30
0.0
 11
240.457
 21
113.097
 31
0.0
  0
LINE
  8
0
 62
     0
 10
240.457
 20
113.097
 30
0.0
 11
241.256
 21
113.097
 31
0.0
  0
LINE
  8
0
 62
     0
 10
241.256
 20
113.097
 30
0.0
 11
241.256
 21
125.898
 31
0.0
  0
LINE
  8
0
 62
     0
 10
241.256
 20
125.898
 30
0.0
 11
240.457
 21
125.898
 31
0.0
  0
LINE
  8
0
 62
     0
 10
240.457
 20
125.898
 30
0.0
 11
240.457
 21
126.497
 31
0.0
  0
LINE
  8
0
 62
     0
 10
240.457
 20
126.497
 30
0.0
 11
226.457
 21
126.497
 31
0.0
  0
LINE
  8
0
 62
     0
 10
245.507
 20
126.497
 30
0.0
 11
245.507
 21
125.898
 31
0.0
  0
LINE
  8
0
 62
     0
 10
245.507
 20
125.898
 30
0.0
 11
244.706
 21
125.898
 31
0.0
  0
LINE
  8
0
 62
     0
 10
244.706
 20
125.898
 30
0.0
 11
244.706
 21
113.097
 31
0.0
  0
LINE
  8
0
 62
     0
 10
244.706
 20
113.097
 30
0.0
 11
245.507
 21
113.097
 31
0.0
  0
LINE
  8
0
 62
     0
 10
245.507
 20
113.097
 30
0.0
 11
245.507
 21
112.498
 31
0.0
  0
LINE
  8
0
 62
     0
 10
245.507
 20
112.498
 30
0.0
 11
259.507
 21
112.498
 31
0.0
  0
LINE
  8
0
 62
     0
 10
259.507
 20
112.498
 30
0.0
 11
259.507
 21
113.097
 31
0.0
  0
LINE
  8
0
 62
     0
 10
259.507
 20
113.097
 30
0.0
 11
260.306
 21
113.097
 31
0.0
  0
LINE
  8
0
 62
     0
 10
260.306
 20
113.097
 30
0.0
 11
260.306
 21
125.898
 31
0.0
  0
LINE
  8
0
 62
     0
 10
260.306
 20
125.898
 30
0.0
 11
259.507
 21
125.898
 31
0.0
  0
LINE
  8
0
 62
     0
 10
259.507
 20
125.898
 30
0.0
 11
259.507
 21
126.497
 31
0.0
  0
LINE
  8
0
 62
     0
 10
259.507
 20
126.497
 30
0.0
 11
245.507
 21
126.497
 31
0.0
  0
LINE
  8
0
 62
     0
 10
269.32
 20
126.497
 30
0.0
 11
269.32
 21
125.898
 31
0.0
  0
LINE
  8
0
 62
     0
 10
269.32
 20
125.898
 30
0.0
 11
268.519
 21
125.898
 31
0.0
  0
LINE
  8
0
 62
     0
 10
268.519
 20
125.898
 30
0.0
 11
268.519
 21
113.097
 31
0.0
  0
LINE
  8
0
 62
     0
 10
268.519
 20
113.097
 30
0.0
 11
269.32
 21
113.097
 31
0.0
  0
LINE
  8
0
 62
     0
 10
269.32
 20
113.097
 30
0.0
 11
269.32
 21
112.498
 31
0.0
  0
LINE
  8
0
 62
     0
 10
269.32
 20
112.498
 30
0.0
 11
283.319
 21
112.498
 31
0.0
  0
LINE
  8
0
 62
     0
 10
283.319
 20
112.498
 30
0.0
 11
283.319
 21
113.097
 31
0.0
  0
LINE
  8
0
 62
     0
 10
283.319
 20
113.097
 30
0.0
 11
284.12
 21
113.097
 31
0.0
  0
LINE
  8
0
 62
     0
 10
284.12
 20
113.097
 30
0.0
 11
284.12
 21
125.898
 31
0.0
  0
LINE
  8
0
 62
     0
 10
284.12
 20
125.898
 30
0.0
 11
283.319
 21
125.898
 31
0.0
  0
LINE
  8
0
 62
     0
 10
283.319
 20
125.898
 30
0.0
 11
283.319
 21
126.497
 31
0.0
  0
LINE
  8
0
 62
     0
 10
283.319
 20
126.497
 30
0.0
 11
269.32
 21
126.497
 31
0.0
  0
LINE
  8
0
 62
     0
 10
288.37
 20
126.497
 30
0.0
 11
288.37
 21
125.898
 31
0.0
  0
LINE
  8
0
 62
     0
 10
288.37
 20
125.898
 30
0.0
 11
287.569
 21
125.898
 31
0.0
  0
LINE
  8
0
 62
     0
 10
287.569
 20
125.898
 30
0.0
 11
287.569
 21
113.097
 31
0.0
  0
LINE
  8
0
 62
     0
 10
287.569
 20
113.097
 30
0.0
 11
288.37
 21
113.097
 31
0.0
  0
LINE
  8
0
 62
     0
 10
288.37
 20
113.097
 30
0.0
 11
288.37
 21
112.498
 31
0.0
  0
LINE
  8
0
 62
     0
 10
288.37
 20
112.498
 30
0.0
 11
302.369
 21
112.498
 31
0.0
  0
LINE
  8
0
 62
     0
 10
302.369
 20
112.498
 30
0.0
 11
302.369
 21
113.097
 31
0.0
  0
LINE
  8
0
 62
     0
 10
302.369
 20
113.097
 30
0.0
 11
303.17
 21
113.097
 31
0.0
  0
LINE
  8
0
 62
     0
 10
303.17
 20
113.097
 30
0.0
 11
303.17
 21
125.898
 31
0.0
  0
LINE
  8
0
 62
     0
 10
303.17
 20
125.898
 30
0.0
 11
302.369
 21
125.898
 31
0.0
  0
LINE
  8
0
 62
     0
 10
302.369
 20
125.898
 30
0.0
 11
302.369
 21
126.497
 31
0.0
  0
LINE
  8
0
 62
     0
 10
302.369
 20
126.497
 30
0.0
 11
288.37
 21
126.497
 31
0.0
  0
LINE
  8
0
 62
     0
 10
307.42
 20
126.497
 30
0.0
 11
307.42
 21
125.898
 31
0.0
  0
LINE
  8
0
 62
     0
 10
307.42
 20
125.898
 30
0.0
 11
306.619
 21
125.898
 31
0.0
  0
LINE
  8
0
 62
     0
 10
306.619
 20
125.898
 30
0.0
 11
306.619
 21
113.097
 31
0.0
  0
LINE
  8
0
 62
     0
 10
306.619
 20
113.097
 30
0.0
 11
307.42
 21
113.097
 31
0.0
  0
LINE
  8
0
 62
     0
 10
307.42
 20
113.097
 30
0.0
 11
307.42
 21
112.498
 31
0.0
  0
LINE
  8
0
 62
     0
 10
307.42
 20
112.498
 30
0.0
 11
321.419
 21
112.498
 31
0.0
  0
LINE
  8
0
 62
     0
 10
321.419
 20
112.498
 30
0.0
 11
321.419
 21
113.097
 31
0.0
  0
LINE
  8
0
 62
     0
 10
321.419
 20
113.097
 30
0.0
 11
322.22
 21
113.097
 31
0.0
  0
LINE
  8
0
 62
     0
 10
322.22
 20
113.097
 30
0.0
 11
322.22
 21
125.898
 31
0.0
  0
LINE
  8
0
 62
     0
 10
322.22
 20
125.898
 30
0.0
 11
321.419
 21
125.898
 31
0.0
  0
LINE
  8
0
 62
     0
 10
321.419
 20
125.898
 30
0.0
 11
321.419
 21
126.497
 31
0.0
  0
LINE
  8
0
 62
     0
 10
321.419
 20
126.497
 30
0.0
 11
307.42
 21
126.497
 31
0.0
  0
LINE
  8
0
 62
     0
 10
326.47
 20
126.497
 30
0.0
 11
326.47
 21
125.898
 31
0.0
  0
LINE
  8
0
 62
     0
 10
326.47
 20
125.898
 30
0.0
 11
325.669
 21
125.898
 31
0.0
  0
LINE
  8
0
 62
     0
 10
325.669
 20
125.898
 30
0.0
 11
325.669
 21
113.097
 31
0.0
  0
LINE
  8
0
 62
     0
 10
325.669
 20
113.097
 30
0.0
 11
326.47
 21
113.097
 31
0.0
  0
LINE
  8
0
 62
     0
 10
326.47
 20
113.097
 30
0.0
 11
326.47
 21
112.498
 31
0.0
  0
LINE
  8
0
 62
     0
 10
326.47
 20
112.498
 30
0.0
 11
340.469
 21
112.498
 31
0.0
  0
LINE
  8
0
 62
     0
 10
340.469
 20
112.498
 30
0.0
 11
340.469
 21
113.097
 31
0.0
  0
LINE
  8
0
 62
     0
 10
340.469
 20
113.097
 30
0.0
 11
341.27
 21
113.097
 31
0.0
  0
LINE
  8
0
 62
     0
 10
341.27
 20
113.097
 30
0.0
 11
341.27
 21
125.898
 31
0.0
  0
LINE
  8
0
 62
     0
 10
341.27
 20
125.898
 30
0.0
 11
340.469
 21
125.898
 31
0.0
  0
LINE
  8
0
 62
     0
 10
340.469
 20
125.898
 30
0.0
 11
340.469
 21
126.497
 31
0.0
  0
LINE
  8
0
 62
     0
 10
340.469
 20
126.497
 30
0.0
 11
326.47
 21
126.497
 31
0.0
  0
LINE
  8
0
 62
     0
 10
350.282
 20
126.497
 30
0.0
 11
350.282
 21
125.898
 31
0.0
  0
LINE
  8
0
 62
     0
 10
350.282
 20
125.898
 30
0.0
 11
349.481
 21
125.898
 31
0.0
  0
LINE
  8
0
 62
     0
 10
349.481
 20
125.898
 30
0.0
 11
349.481
 21
113.097
 31
0.0
  0
LINE
  8
0
 62
     0
 10
349.481
 20
113.097
 30
0.0
 11
350.282
 21
113.097
 31
0.0
  0
LINE
  8
0
 62
     0
 10
350.282
 20
113.097
 30
0.0
 11
350.282
 21
112.498
 31
0.0
  0
LINE
  8
0
 62
     0
 10
350.282
 20
112.498
 30
0.0
 11
364.282
 21
112.498
 31
0.0
  0
LINE
  8
0
 62
     0
 10
364.282
 20
112.498
 30
0.0
 11
364.282
 21
113.097
 31
0.0
  0
LINE
  8
0
 62
     0
 10
364.282
 20
113.097
 30
0.0
 11
365.083
 21
113.097
 31
0.0
  0
LINE
  8
0
 62
     0
 10
365.083
 20
113.097
 30
0.0
 11
365.083
 21
125.898
 31
0.0
  0
LINE
  8
0
 62
     0
 10
365.083
 20
125.898
 30
0.0
 11
364.282
 21
125.898
 31
0.0
  0
LINE
  8
0
 62
     0
 10
364.282
 20
125.898
 30
0.0
 11
364.282
 21
126.497
 31
0.0
  0
LINE
  8
0
 62
     0
 10
364.282
 20
126.497
 30
0.0
 11
350.282
 21
126.497
 31
0.0
  0
ENDSEC
  0
EOF
